<svg width="508" height="488" viewBox="0 0 508 488" fill="none" xmlns="http://www.w3.org/2000/svg">
<path d="M113.886 348.858C143.946 388.72 186.414 404.877 232.416 410.003C249.456 411.907 267.884 417.084 285.179 415.279C311.221 412.563 335.805 399.892 358.046 383.142C380.288 366.391 401.135 349.667 414.063 328.778C424.299 312.22 428.717 292.453 430.993 272.15C433.479 249.953 427.819 225.787 420.443 201.634C413.626 179.331 405.752 156.911 392.352 139.142C380.907 123.964 367.229 110.701 351.991 101.217C335.22 90.7629 316.597 84.6189 297.863 79.4494C270.178 71.8044 242.207 74.4147 214.369 79.9636C191.519 84.5053 168.473 89.5844 148.192 104.858C125.361 122.053 103.457 140.92 90.4311 163.452C80.9034 179.944 77.4798 198.874 75.1883 218.108C72.5759 240.123 78.5027 263.608 85.6543 286.74C92.4708 308.821 100.128 330.614 113.886 348.858Z" fill="#EEEEEE"/>
<g opacity="0.05336">
<path d="M150.999 222.079C159.841 222.079 167.01 229.172 167.01 237.928C167.01 246.684 159.841 253.778 150.999 253.778C146.178 253.778 130.051 253.778 124.519 253.778C112.617 253.778 102.966 244.222 102.966 232.444C102.966 220.665 112.617 211.109 124.519 211.109C133.236 211.109 140.743 216.23 144.141 223.608C146.222 222.63 148.544 222.079 150.999 222.079Z" fill="#6B868F"/>
</g>
<g opacity="0.319973">
<path d="M322.945 146.223C318.159 146.223 314.281 142.357 314.281 137.592C314.281 132.818 318.159 128.952 322.945 128.952C323.888 128.952 324.795 129.103 325.649 129.378C326.512 121.849 332.925 116 340.717 116C349.096 116 355.883 122.765 355.883 131.112C355.883 131.165 355.883 131.209 355.883 131.263C356.373 131.165 356.88 131.112 357.396 131.112C361.585 131.112 364.983 134.498 364.983 138.668C364.983 142.837 361.585 146.223 357.396 146.223C354.576 146.223 326.067 146.223 322.945 146.223Z" fill="#6B868F"/>
</g>
<g opacity="0.4">
<path d="M207.479 325.786C203.539 325.786 200.345 322.533 200.345 318.524C200.345 314.515 203.539 311.261 207.479 311.261C208.911 311.261 210.254 311.688 211.366 312.435C211.446 305.208 217.228 299.377 224.335 299.377C226.719 299.377 228.952 300.025 230.873 301.163C231.629 289.11 241.485 279.562 253.52 279.562C262.05 279.562 269.478 284.354 273.356 291.439C276.087 289.767 279.289 288.807 282.704 288.807C292.729 288.807 300.859 297.083 300.859 307.297C300.859 317.511 292.729 325.786 282.704 325.786C277.27 325.786 210.619 325.786 207.479 325.786Z" fill="#6B868F"/>
</g>
<path d="M85.8925 257.553V196.679L39.4959 257.553H85.8925ZM0.5 295.101V249.588L77.3532 148.891H130.866V257.553H160.469V295.101H130.866V333.502H85.8925V295.101H0.5Z" fill="url(#paint0_linear_11213_331287)"/>
<path d="M85.8925 257.553V196.679L39.4959 257.553H85.8925ZM0.5 295.101V249.588L77.3532 148.891H130.866V257.553H160.469V295.101H130.866V333.502H85.8925V295.101H0.5Z" fill="black" fill-opacity="0.2"/>
<path d="M432.924 257.553V196.679L386.527 257.553H432.924ZM347.531 295.101V249.588L424.384 148.891H477.897V257.553H507.5V295.101H477.897V333.502H432.924V295.101H347.531Z" fill="url(#paint1_linear_11213_331287)"/>
<path d="M432.924 257.553V196.679L386.527 257.553H432.924ZM347.531 295.101V249.588L424.384 148.891H477.897V257.553H507.5V295.101H477.897V333.502H432.924V295.101H347.531Z" fill="black" fill-opacity="0.2"/>
<path d="M266.933 362.408L265.521 362.528C265.464 362.533 265.418 362.57 265.381 362.622L262.831 366.849C262.803 366.9 262.757 366.937 262.7 366.942C262.651 366.946 262.591 366.919 262.554 366.872L260.439 364.44C260.402 364.394 260.351 364.373 260.294 364.378L259.209 364.471C259.16 364.475 259.113 364.503 259.076 364.556L258.308 365.862C258.286 365.897 258.281 365.938 258.301 365.977C258.32 366.009 258.355 366.03 258.388 366.028L259.163 365.962L259.922 365.897L262.717 369.266C262.754 369.312 262.805 369.332 262.862 369.327L262.943 369.32C262.992 369.316 263.047 369.287 263.076 369.235L267.023 362.589C267.044 362.555 267.048 362.505 267.029 362.466C267.009 362.426 266.974 362.405 266.933 362.408ZM259.596 366.319L259.147 366.357L259.546 371.031C259.556 371.153 259.654 371.244 259.769 371.234L260.993 371.13C261.107 371.12 261.189 371.014 261.178 370.892L260.915 367.801L259.596 366.319ZM265.025 367.796L265.261 370.569C265.27 370.675 265.368 370.757 265.482 370.747L266.706 370.643C266.821 370.633 266.903 370.536 266.894 370.43L266.493 365.732L265.025 367.796Z" fill="#EEEEEE"/>
<path d="M245.24 353.296C244.84 353.33 244.437 353.135 244.224 352.767L189.713 255.991C189.423 255.482 189.606 254.833 190.109 254.552C190.618 254.263 191.267 254.446 191.549 254.956L246.068 351.731C246.349 352.232 246.174 352.88 245.664 353.17C245.531 353.239 245.378 353.285 245.24 353.296Z" fill="#88C088"/>
<path d="M255.584 288.522C247.79 289.185 239.994 288.493 232.566 286.415C221.381 283.284 211.215 277.437 203.172 269.503C201.699 268.043 200.269 266.497 198.917 264.911C198.542 264.467 198.592 263.805 199.036 263.422C199.481 263.048 200.152 263.097 200.527 263.542C201.833 265.082 203.227 266.582 204.655 267.997C212.446 275.681 222.293 281.341 233.141 284.378C247.669 288.448 263.661 287.021 278.172 280.371C292.177 273.954 303.928 263.193 311.262 250.088C311.548 249.579 312.19 249.393 312.699 249.678C313.208 249.964 313.395 250.605 313.109 251.114C305.554 264.615 293.467 275.684 279.051 282.293C271.495 285.754 263.542 287.844 255.584 288.522Z" fill="#87B587"/>
<path d="M272 376.809L255.301 378.23C251.808 378.528 248.654 376.159 247.974 372.717L244.221 353.762C244.107 353.197 244.479 352.639 245.053 352.525C245.618 352.411 246.176 352.782 246.291 353.356L250.044 372.303C250.519 374.694 252.697 376.332 255.122 376.126L271.821 374.704C274.049 374.515 275.744 372.694 275.776 370.465L276.044 349.508C276.043 349.393 276.066 349.284 276.106 349.174L311.188 250.251C311.38 249.701 311.988 249.411 312.539 249.61C313.082 249.802 313.372 250.402 313.18 250.952L278.15 349.715L277.891 370.49C277.845 373.813 275.314 376.527 272 376.809Z" fill="#88C088"/>
<path d="M261.935 360.347C252.385 361.16 244.595 358.217 244.205 353.641C243.815 349.065 250.994 344.847 260.544 344.034C261.123 343.985 261.637 344.418 261.686 344.997C261.736 345.576 261.303 346.089 260.723 346.139C253.663 346.74 246.007 349.897 246.311 353.462C246.615 357.026 254.695 358.844 261.755 358.243C268.815 357.642 276.463 354.485 276.159 350.921C276.011 349.175 273.644 347.553 269.978 346.69C269.408 346.558 269.055 345.988 269.187 345.418C269.32 344.848 269.89 344.504 270.461 344.636C275.184 345.745 278.029 347.976 278.265 350.741C278.655 355.317 271.484 359.534 261.935 360.347Z" fill="#88C088"/>
<path d="M256.269 346.526C255.771 346.568 255.3 346.247 255.159 345.75L240.735 291.323C240.589 290.761 240.926 290.182 241.489 290.035C242.044 289.889 242.631 290.217 242.778 290.788L257.2 345.206C257.355 345.768 257.018 346.347 256.455 346.494C256.391 346.515 256.334 346.52 256.269 346.526Z" fill="#88C088"/>
<path d="M264.7 360.01C264.66 360.013 264.618 360.009 264.577 360.012C263.992 359.996 263.54 359.509 263.556 358.924L265.61 288.898C265.626 288.314 266.113 287.861 266.698 287.877C267.283 287.893 267.736 288.38 267.72 288.965L265.665 358.983C265.646 359.527 265.231 359.965 264.7 360.01Z" fill="#88C088"/>
<path d="M318.629 218.003C323.639 264.046 275.683 302.791 231.432 290.398C220.576 287.362 210.521 281.67 202.487 273.744C185.458 256.93 177.291 231.721 183.393 208.312C195.11 163.392 252.336 137.808 290.84 167.36C306.77 179.577 316.513 198.49 318.629 218.003Z" fill="url(#paint2_linear_11213_331287)"/>
<path d="M318.629 218.003C323.639 264.046 275.683 302.791 231.432 290.398C220.576 287.362 210.521 281.67 202.487 273.744C185.458 256.93 177.291 231.721 183.393 208.312C195.11 163.392 252.336 137.808 290.84 167.36C306.77 179.577 316.513 198.49 318.629 218.003Z" fill="black" fill-opacity="0.2"/>
<g opacity="0.3">
<path d="M250.716 281.323C243.452 281.941 237.057 276.554 236.438 269.295C235.819 262.027 241.21 255.636 248.474 255.018C266.365 253.494 279.685 237.695 278.16 219.808C277.915 216.928 277.296 214.105 276.319 211.428C273.836 204.574 277.375 197.001 284.225 194.512C291.083 192.022 298.652 195.56 301.144 202.413C302.906 207.275 304.031 212.371 304.474 217.567C307.236 249.965 283.12 278.564 250.716 281.323Z" fill="#88C088"/>
</g>
<path d="M224.077 175.822C223.236 175.894 222.402 175.463 222.005 174.659C221.488 173.619 221.906 172.351 222.955 171.826C226.007 170.301 229.228 169.033 232.524 168.054C233.647 167.728 234.819 168.359 235.153 169.481C235.487 170.603 234.847 171.775 233.724 172.109C230.661 173.018 227.67 174.193 224.84 175.609C224.595 175.729 224.338 175.8 224.077 175.822Z" fill="#88C088"/>
<path d="M201.317 255.846C200.55 255.911 199.771 255.55 199.333 254.848C196.65 250.475 194.537 245.75 193.07 240.79C186.539 218.769 193.552 194.847 210.942 179.835C211.822 179.07 213.155 179.17 213.921 180.058C214.678 180.938 214.586 182.268 213.698 183.034C197.563 196.962 191.061 219.156 197.119 239.582C198.482 244.19 200.443 248.583 202.934 252.635C203.545 253.627 203.236 254.926 202.244 255.537C201.947 255.718 201.635 255.818 201.317 255.846Z" fill="#88C088"/>
<defs>
<linearGradient id="paint0_linear_11213_331287" x1="80.4843" y1="148.891" x2="80.4843" y2="333.502" gradientUnits="userSpaceOnUse">
<stop stop-color="#009900"/>
<stop offset="1" stop-color="#2FCE2F"/>
</linearGradient>
<linearGradient id="paint1_linear_11213_331287" x1="427.516" y1="148.891" x2="427.516" y2="333.502" gradientUnits="userSpaceOnUse">
<stop stop-color="#009900"/>
<stop offset="1" stop-color="#2FCE2F"/>
</linearGradient>
<linearGradient id="paint2_linear_11213_331287" x1="244.28" y1="155.214" x2="255.955" y2="292.337" gradientUnits="userSpaceOnUse">
<stop stop-color="#009900"/>
<stop offset="1" stop-color="#2FCE2F"/>
</linearGradient>
</defs>
</svg>
