<svg width="149" height="45" viewBox="0 0 149 45" fill="none" xmlns="http://www.w3.org/2000/svg">
<rect x="0.5" y="0.5" width="147.5" height="44" rx="6.5" fill="white"/>
<rect x="0.5" y="0.5" width="147.5" height="44" rx="6.5" stroke="#A6A6A6"/>
<path d="M100.888 21.6009V24.1783H99.1112V25.8685H100.888V31.6116C100.888 33.5727 101.864 34.3571 104.319 34.3571C104.751 34.3571 105.162 34.3104 105.521 34.2544V32.5828C105.213 32.6109 105.018 32.6295 104.679 32.6295C103.58 32.6295 103.097 32.1626 103.097 31.098V25.8685H105.521V24.1783H103.097V21.6009H100.888Z" fill="#222222"/>
<path d="M111.775 34.4972C115.042 34.4972 117.045 32.5081 117.045 29.2117C117.045 25.9339 115.031 23.9355 111.775 23.9355C108.509 23.9355 106.495 25.9339 106.495 29.2117C106.495 32.5081 108.498 34.4972 111.775 34.4972ZM111.775 32.7136C109.854 32.7136 108.776 31.4342 108.776 29.2117C108.776 27.0078 109.854 25.7191 111.775 25.7191C113.686 25.7191 114.775 27.0078 114.775 29.2117C114.775 31.4249 113.686 32.7136 111.775 32.7136Z" fill="#222222"/>
<path d="M118.759 34.3011H120.967V28.2965C120.967 26.8678 122.148 25.9059 123.823 25.9059C124.213 25.9059 124.871 25.9713 125.056 26.0273V24.0476C124.819 23.9915 124.398 23.9635 124.069 23.9635C122.611 23.9635 121.368 24.6919 121.049 25.6911H120.885V24.1316H118.759V34.3011Z" fill="#222222"/>
<path d="M130.539 25.6444C132.173 25.6444 133.241 26.681 133.292 28.2778H127.642C127.766 26.6903 128.906 25.6444 130.539 25.6444ZM133.282 31.5556C132.871 32.3494 131.957 32.7883 130.621 32.7883C128.855 32.7883 127.714 31.6583 127.642 29.8747V29.7626H135.542V29.0623C135.542 25.8685 133.662 23.9355 130.549 23.9355C127.396 23.9355 125.393 25.9993 125.393 29.249C125.393 32.4988 127.355 34.4972 130.56 34.4972C133.118 34.4972 134.905 33.3766 135.408 31.5556H133.282Z" fill="#222222"/>
<path d="M86.4051 30.5457C86.5754 33.0428 88.8645 34.6399 92.2715 34.6399C95.9127 34.6399 98.1911 32.9654 98.1911 30.294C98.1911 28.1937 96.8922 27.0322 93.7408 26.3644L92.0479 25.9869C90.0463 25.561 89.2371 24.9899 89.2371 23.993C89.2371 22.7348 90.4935 21.912 92.378 21.912C94.1666 21.912 95.4017 22.7154 95.6253 24.0027H97.9463C97.8079 21.6507 95.5294 19.9956 92.4099 19.9956C89.0562 19.9956 86.8203 21.6507 86.8203 24.1382C86.8203 26.1901 88.0873 27.4097 90.8661 28.0001L92.8464 28.4357C94.88 28.8712 95.7743 29.51 95.7743 30.5747C95.7743 31.8136 94.3689 32.7138 92.4525 32.7138C90.3977 32.7138 88.971 31.8717 88.7687 30.5457H86.4051Z" fill="#222222"/>
<path d="M63.527 23.9635C62.0067 23.9635 60.6919 24.6546 60.0139 25.8125H59.8496V24.1316H57.7232V37.6816H59.9317V32.7603H60.1064C60.6919 33.8342 61.9554 34.4692 63.5476 34.4692C66.3724 34.4692 68.17 32.4428 68.17 29.2117C68.17 25.9806 66.3724 23.9635 63.527 23.9635ZM62.9004 32.6669C61.0514 32.6669 59.8906 31.3408 59.8906 29.221C59.8906 27.0919 61.0514 25.7658 62.9107 25.7658C64.7802 25.7658 65.8999 27.0639 65.8999 29.2117C65.8999 31.3689 64.7802 32.6669 62.9004 32.6669Z" fill="#222222"/>
<path d="M75.898 23.9635C74.3778 23.9635 73.0629 24.6546 72.3849 25.8125H72.2206V24.1316H70.0942V37.6816H72.3028V32.7603H72.4774C73.0629 33.8342 74.3264 34.4692 75.9186 34.4692C78.7434 34.4692 80.5411 32.4428 80.5411 29.2117C80.5411 25.9806 78.7434 23.9635 75.898 23.9635ZM75.2714 32.6669C73.4224 32.6669 72.2617 31.3408 72.2617 29.221C72.2617 27.0919 73.4224 25.7658 75.2817 25.7658C77.1513 25.7658 78.2709 27.0639 78.2709 29.2117C78.2709 31.3689 77.1513 32.6669 75.2714 32.6669Z" fill="#222222"/>
<path d="M53.7607 34.3011H56.2947L50.7477 20.3344H48.1818L42.6348 34.3011H45.0835L46.4996 30.5941H52.3553L53.7607 34.3011ZM49.3423 22.8703H49.5233L51.7485 28.7744H47.1064L49.3423 22.8703Z" fill="#222222"/>
<path d="M44.1191 9.79977V16.5374H46.7951C49.0036 16.5374 50.2825 15.3001 50.2825 13.1476C50.2825 11.0278 48.9933 9.79977 46.7951 9.79977H44.1191ZM45.2696 10.7523H46.6667C48.2023 10.7523 49.1114 11.6394 49.1114 13.1616C49.1114 14.7071 48.2178 15.5849 46.6667 15.5849H45.2696V10.7523Z" fill="#222222"/>
<path d="M54.1993 16.6355C55.8326 16.6355 56.8341 15.6409 56.8341 13.9927C56.8341 12.3538 55.8274 11.3546 54.1993 11.3546C52.566 11.3546 51.5593 12.3538 51.5593 13.9927C51.5593 15.6409 52.5608 16.6355 54.1993 16.6355ZM54.1993 15.7437C53.2388 15.7437 52.6995 15.104 52.6995 13.9927C52.6995 12.8908 53.2388 12.2464 54.1993 12.2464C55.1546 12.2464 55.699 12.8908 55.699 13.9927C55.699 15.0993 55.1546 15.7437 54.1993 15.7437Z" fill="#222222"/>
<path d="M65.3631 11.4527H64.2589L63.2624 15.3328H63.1751L62.0246 11.4527H60.9666L59.8161 15.3328H59.7339L58.7324 11.4527H57.6127L59.1536 16.5374H60.2886L61.4391 12.7927H61.5264L62.6821 16.5374H63.8274L65.3631 11.4527Z" fill="#222222"/>
<path d="M66.6348 16.5374H67.7391V13.5631C67.7391 12.7694 68.2578 12.2744 69.0745 12.2744C69.8911 12.2744 70.2815 12.6807 70.2815 13.4978V16.5374H71.3857V13.2456C71.3857 12.0363 70.6975 11.3546 69.4494 11.3546C68.6071 11.3546 68.0524 11.6955 67.7802 12.2604H67.698V11.4527H66.6348V16.5374Z" fill="#222222"/>
<path d="M73.1248 16.5374H74.2291V9.46826H73.1248V16.5374Z" fill="#222222"/>
<path d="M78.3821 16.6355C80.0154 16.6355 81.0169 15.6409 81.0169 13.9927C81.0169 12.3538 80.0103 11.3546 78.3821 11.3546C76.7488 11.3546 75.7422 12.3538 75.7422 13.9927C75.7422 15.6409 76.7437 16.6355 78.3821 16.6355ZM78.3821 15.7437C77.4217 15.7437 76.8824 15.104 76.8824 13.9927C76.8824 12.8908 77.4217 12.2464 78.3821 12.2464C79.3374 12.2464 79.8819 12.8908 79.8819 13.9927C79.8819 15.0993 79.3374 15.7437 78.3821 15.7437Z" fill="#222222"/>
<path d="M84.3071 15.7763C83.7062 15.7763 83.2696 15.5102 83.2696 15.0526C83.2696 14.6044 83.6189 14.3662 84.3893 14.3195L85.7555 14.2402V14.6651C85.7555 15.2954 85.1392 15.7763 84.3071 15.7763ZM84.0247 16.6215C84.7591 16.6215 85.3703 16.332 85.7042 15.823H85.7915V16.5374H86.8546V13.0635C86.8546 11.9896 86.0637 11.3546 84.6615 11.3546C83.3929 11.3546 82.489 11.9149 82.376 12.7881H83.4443C83.5675 12.4285 83.9938 12.2231 84.6102 12.2231C85.3652 12.2231 85.7555 12.5266 85.7555 13.0635V13.5024L84.2404 13.5818C82.9101 13.6565 82.1602 14.1841 82.1602 15.0993C82.1602 16.0285 82.9461 16.6215 84.0247 16.6215Z" fill="#222222"/>
<path d="M90.602 16.6215C91.3724 16.6215 92.0247 16.2899 92.3585 15.7343H92.4458V16.5374H93.5039V9.46826H92.3996V12.2604H92.3174C92.0144 11.7001 91.3672 11.3686 90.602 11.3686C89.1895 11.3686 88.2804 12.3865 88.2804 13.9927C88.2804 15.6036 89.1793 16.6215 90.602 16.6215ZM90.9153 12.2698C91.8398 12.2698 92.4201 12.9375 92.4201 13.9974C92.4201 15.062 91.8449 15.7203 90.9153 15.7203C89.9805 15.7203 89.4206 15.0713 89.4206 13.9927C89.4206 12.9235 89.9856 12.2698 90.9153 12.2698Z" fill="#222222"/>
<path d="M100.665 16.6355C102.298 16.6355 103.299 15.6409 103.299 13.9927C103.299 12.3538 102.293 11.3546 100.665 11.3546C99.0313 11.3546 98.0247 12.3538 98.0247 13.9927C98.0247 15.6409 99.0262 16.6355 100.665 16.6355ZM100.665 15.7437C99.7042 15.7437 99.1649 15.104 99.1649 13.9927C99.1649 12.8908 99.7042 12.2464 100.665 12.2464C101.62 12.2464 102.164 12.8908 102.164 13.9927C102.164 15.0993 101.62 15.7437 100.665 15.7437Z" fill="#222222"/>
<path d="M104.761 16.5374H105.865V13.5631C105.865 12.7694 106.384 12.2744 107.201 12.2744C108.017 12.2744 108.408 12.6807 108.408 13.4978V16.5374H109.512V13.2456C109.512 12.0363 108.824 11.3546 107.576 11.3546C106.733 11.3546 106.179 11.6955 105.907 12.2604H105.824V11.4527H104.761V16.5374Z" fill="#222222"/>
<path d="M114.598 10.1873V11.476H113.709V12.3211H114.598V15.1927C114.598 16.1732 115.086 16.5654 116.313 16.5654C116.529 16.5654 116.734 16.5421 116.914 16.5141V15.6783C116.76 15.6923 116.663 15.7016 116.493 15.7016C115.944 15.7016 115.702 15.4682 115.702 14.9359V12.3211H116.914V11.476H115.702V10.1873H114.598Z" fill="#222222"/>
<path d="M118.397 16.5374H119.501V13.5678C119.501 12.7974 120.004 12.2791 120.908 12.2791C121.689 12.2791 122.105 12.69 122.105 13.5024V16.5374H123.209V13.255C123.209 12.0457 122.475 11.3593 121.283 11.3593C120.441 11.3593 119.85 11.7001 119.578 12.2698H119.491V9.46826H118.397V16.5374Z" fill="#222222"/>
<path d="M127.193 12.2091C128.009 12.2091 128.543 12.7274 128.569 13.5258H125.744C125.806 12.732 126.376 12.2091 127.193 12.2091ZM128.564 15.1647C128.359 15.5616 127.901 15.781 127.234 15.781C126.35 15.781 125.78 15.216 125.744 14.3242V14.2682H129.694V13.918C129.694 12.3211 128.754 11.3546 127.198 11.3546C125.621 11.3546 124.619 12.3865 124.619 14.0114C124.619 15.6363 125.6 16.6355 127.203 16.6355C128.482 16.6355 129.375 16.0752 129.627 15.1647H128.564Z" fill="#222222"/>
<path d="M30.6515 22.8385C30.6783 20.9473 31.7955 19.1579 33.5678 18.1674C32.4497 16.7158 30.577 15.7954 28.6287 15.74C26.5506 15.5417 24.5361 16.8704 23.4771 16.8704C22.3977 16.8704 20.7673 15.7597 19.0116 15.7925C16.7231 15.8597 14.5897 17.0425 13.4764 18.8614C11.083 22.6283 12.8682 28.1645 15.1608 31.2095C16.3079 32.7005 17.6484 34.366 19.4025 34.3069C21.119 34.2422 21.7601 33.3119 23.832 33.3119C25.8848 33.3119 26.4862 34.3069 28.2759 34.2694C30.1178 34.2422 31.2782 32.7717 32.385 31.2666C33.2092 30.2042 33.8434 29.03 34.2641 27.7875C32.0995 26.9553 30.654 24.975 30.6515 22.8385Z" fill="#222222"/>
<path d="M27.2711 13.7375C28.2753 12.6415 28.7701 11.2328 28.6503 9.81055C27.116 9.95704 25.6988 10.6237 24.6809 11.6776C23.6856 12.7074 23.1677 14.0913 23.2656 15.4592C24.8004 15.4735 26.3093 14.825 27.2711 13.7375Z" fill="#222222"/>
</svg>
