<svg width="32" height="32" viewBox="0 0 32 32" fill="none" xmlns="http://www.w3.org/2000/svg">
<rect x="0.5" y="0.5" width="31" height="31" rx="7.5" stroke="#EEEEEE"/>
<path d="M22.6473 20.2197C22.6473 20.4597 22.594 20.7063 22.4807 20.9463C22.3673 21.1863 22.2207 21.413 22.0273 21.6263C21.7007 21.9863 21.3407 22.2463 20.934 22.413C20.534 22.5797 20.1007 22.6663 19.634 22.6663C18.954 22.6663 18.2273 22.5063 17.4607 22.1797C16.694 21.853 15.9273 21.413 15.1673 20.8597C14.4007 20.2997 13.674 19.6797 12.9807 18.993C12.294 18.2997 11.674 17.573 11.1207 16.813C10.574 16.053 10.134 15.293 9.81398 14.5397C9.49398 13.7797 9.33398 13.053 9.33398 12.3597C9.33398 11.9063 9.41398 11.473 9.57398 11.073C9.73398 10.6663 9.98732 10.293 10.3407 9.95967C10.7673 9.53967 11.234 9.33301 11.7273 9.33301C11.914 9.33301 12.1007 9.37301 12.2673 9.45301C12.4407 9.53301 12.594 9.65301 12.714 9.82634L14.2607 12.0063C14.3807 12.173 14.4673 12.3263 14.5273 12.473C14.5873 12.613 14.6207 12.753 14.6207 12.8797C14.6207 13.0397 14.574 13.1997 14.4807 13.353C14.394 13.5063 14.2673 13.6663 14.1073 13.8263L13.6007 14.353C13.5273 14.4263 13.494 14.513 13.494 14.6197C13.494 14.673 13.5007 14.7197 13.514 14.773C13.534 14.8263 13.554 14.8663 13.5673 14.9063C13.6873 15.1263 13.894 15.413 14.1873 15.7597C14.4873 16.1063 14.8073 16.4597 15.154 16.813C15.514 17.1663 15.8607 17.493 16.214 17.793C16.5607 18.0863 16.8473 18.2863 17.074 18.4063C17.1073 18.4197 17.1473 18.4397 17.194 18.4597C17.2473 18.4797 17.3007 18.4863 17.3607 18.4863C17.474 18.4863 17.5607 18.4463 17.634 18.373L18.1407 17.873C18.3073 17.7063 18.4673 17.5797 18.6207 17.4997C18.774 17.4063 18.9273 17.3597 19.094 17.3597C19.2207 17.3597 19.354 17.3863 19.5007 17.4463C19.6473 17.5063 19.8007 17.593 19.9673 17.7063L22.174 19.273C22.3473 19.393 22.4673 19.533 22.5407 19.6997C22.6073 19.8663 22.6473 20.033 22.6473 20.2197Z" stroke="#828282" stroke-width="1.5" stroke-miterlimit="10"/>
</svg>
