<svg width="20" height="21" viewBox="0 0 20 21" fill="none" xmlns="http://www.w3.org/2000/svg">
<path d="M5.6351 18.8337H14.3684C16.6684 18.8337 17.5851 17.4253 17.6934 15.7087L18.1268 8.82533C18.2434 7.02533 16.8101 5.50033 15.0018 5.50033C14.4934 5.50033 14.0268 5.20866 13.7934 4.75866L13.1934 3.55033C12.8101 2.79199 11.8101 2.16699 10.9601 2.16699H9.05177C8.19343 2.16699 7.19343 2.79199 6.8101 3.55033L6.2101 4.75866C5.97677 5.20866 5.5101 5.50033 5.00177 5.50033C3.19343 5.50033 1.7601 7.02533 1.87677 8.82533L2.3101 15.7087C2.4101 17.4253 3.3351 18.8337 5.6351 18.8337Z" stroke="#181820" stroke-width="1.5" stroke-linecap="round" stroke-linejoin="round"/>
<path d="M8.75 7.16699H11.25" stroke="#181820" stroke-width="1.5" stroke-linecap="round" stroke-linejoin="round"/>
<path d="M9.99837 15.4997C11.49 15.4997 12.7067 14.283 12.7067 12.7913C12.7067 11.2997 11.49 10.083 9.99837 10.083C8.50671 10.083 7.29004 11.2997 7.29004 12.7913C7.29004 14.283 8.50671 15.4997 9.99837 15.4997Z" stroke="#181820" stroke-width="1.5" stroke-linecap="round" stroke-linejoin="round"/>
</svg>
