<svg width="20" height="20" viewBox="0 0 20 20" fill="none" xmlns="http://www.w3.org/2000/svg">
<path d="M12.9823 10.0001C12.9823 11.6501 11.649 12.9834 9.99896 12.9834C8.34896 12.9834 7.01562 11.6501 7.01562 10.0001C7.01562 8.35006 8.34896 7.01672 9.99896 7.01672C11.649 7.01672 12.9823 8.35006 12.9823 10.0001Z" stroke="#828282" stroke-width="1.5" stroke-linecap="round" stroke-linejoin="round"/>
<path d="M10.0018 16.8916C12.9435 16.8916 15.6852 15.1583 17.5935 12.1583C18.3435 10.9833 18.3435 9.00831 17.5935 7.83331C15.6852 4.83331 12.9435 3.09998 10.0018 3.09998C7.06016 3.09998 4.31849 4.83331 2.41016 7.83331C1.66016 9.00831 1.66016 10.9833 2.41016 12.1583C4.31849 15.1583 7.06016 16.8916 10.0018 16.8916Z" stroke="#828282" stroke-width="1.5" stroke-linecap="round" stroke-linejoin="round"/>
</svg>
