<svg width="20" height="20" viewBox="0 0 20 20" fill="none" xmlns="http://www.w3.org/2000/svg">
<path d="M7.5026 14.167V9.16699L5.83594 10.8337" fill="url(#paint0_linear_6496_32952)"/>
<path d="M7.5026 14.167V9.16699L5.83594 10.8337" fill="black" fill-opacity="0.2"/>
<path d="M7.5026 14.167V9.16699L5.83594 10.8337" stroke="url(#paint1_linear_6496_32952)" stroke-width="1.5" stroke-linecap="round" stroke-linejoin="round"/>
<path d="M7.5026 14.167V9.16699L5.83594 10.8337" stroke="black" stroke-opacity="0.2" stroke-width="1.5" stroke-linecap="round" stroke-linejoin="round"/>
<path d="M7.5 9.16699L9.16667 10.8337" stroke="url(#paint2_linear_6496_32952)" stroke-width="1.5" stroke-linecap="round" stroke-linejoin="round"/>
<path d="M7.5 9.16699L9.16667 10.8337" stroke="black" stroke-opacity="0.2" stroke-width="1.5" stroke-linecap="round" stroke-linejoin="round"/>
<path d="M18.3307 8.33366V12.5003C18.3307 16.667 16.6641 18.3337 12.4974 18.3337H7.4974C3.33073 18.3337 1.66406 16.667 1.66406 12.5003V7.50033C1.66406 3.33366 3.33073 1.66699 7.4974 1.66699H11.6641" stroke="url(#paint3_linear_6496_32952)" stroke-width="1.5" stroke-linecap="round" stroke-linejoin="round"/>
<path d="M18.3307 8.33366V12.5003C18.3307 16.667 16.6641 18.3337 12.4974 18.3337H7.4974C3.33073 18.3337 1.66406 16.667 1.66406 12.5003V7.50033C1.66406 3.33366 3.33073 1.66699 7.4974 1.66699H11.6641" stroke="black" stroke-opacity="0.2" stroke-width="1.5" stroke-linecap="round" stroke-linejoin="round"/>
<path d="M18.3307 8.33366H14.9974C12.4974 8.33366 11.6641 7.50033 11.6641 5.00033V1.66699L18.3307 8.33366Z" stroke="url(#paint4_linear_6496_32952)" stroke-width="1.5" stroke-linecap="round" stroke-linejoin="round"/>
<path d="M18.3307 8.33366H14.9974C12.4974 8.33366 11.6641 7.50033 11.6641 5.00033V1.66699L18.3307 8.33366Z" stroke="black" stroke-opacity="0.2" stroke-width="1.5" stroke-linecap="round" stroke-linejoin="round"/>
<defs>
<linearGradient id="paint0_linear_6496_32952" x1="6.66927" y1="9.16699" x2="6.66927" y2="14.167" gradientUnits="userSpaceOnUse">
<stop stop-color="#009900"/>
<stop offset="1" stop-color="#2FCE2F"/>
</linearGradient>
<linearGradient id="paint1_linear_6496_32952" x1="6.66927" y1="9.16699" x2="6.66927" y2="14.167" gradientUnits="userSpaceOnUse">
<stop stop-color="#009900"/>
<stop offset="1" stop-color="#2FCE2F"/>
</linearGradient>
<linearGradient id="paint2_linear_6496_32952" x1="8.33333" y1="9.16699" x2="8.33333" y2="10.8337" gradientUnits="userSpaceOnUse">
<stop stop-color="#009900"/>
<stop offset="1" stop-color="#2FCE2F"/>
</linearGradient>
<linearGradient id="paint3_linear_6496_32952" x1="9.9974" y1="1.66699" x2="9.9974" y2="18.3337" gradientUnits="userSpaceOnUse">
<stop stop-color="#009900"/>
<stop offset="1" stop-color="#2FCE2F"/>
</linearGradient>
<linearGradient id="paint4_linear_6496_32952" x1="14.9974" y1="1.66699" x2="14.9974" y2="8.33366" gradientUnits="userSpaceOnUse">
<stop stop-color="#009900"/>
<stop offset="1" stop-color="#2FCE2F"/>
</linearGradient>
</defs>
</svg>
