<svg width="180" height="99" viewBox="0 0 180 99" fill="none" xmlns="http://www.w3.org/2000/svg">
<path d="M39.2287 28.125H41.4326C41.5444 28.1251 41.654 28.157 41.7487 28.2169C41.8434 28.2769 41.9194 28.3625 41.9679 28.464C42.0164 28.5654 42.0355 28.6786 42.023 28.7905C42.0105 28.9024 41.9669 29.0085 41.8972 29.0965L40.9465 30.2955L39.6921 31.8797C39.6365 31.95 39.5659 32.0069 39.4854 32.0459C39.405 32.085 39.3168 32.1053 39.2275 32.1053C39.1382 32.1053 39.05 32.085 38.9696 32.0459C38.8891 32.0069 38.8185 31.95 38.7629 31.8797L37.5085 30.2955L36.559 29.0965C36.4893 29.0085 36.4457 28.9024 36.4332 28.7905C36.4207 28.6786 36.4398 28.5654 36.4883 28.464C36.5368 28.3625 36.6128 28.2769 36.7075 28.2169C36.8021 28.157 36.9117 28.1251 37.0236 28.125H39.2287Z" fill="url(#paint0_linear_811_110367)"/>
<path d="M39.2287 28.125H41.4326C41.5444 28.1251 41.654 28.157 41.7487 28.2169C41.8434 28.2769 41.9194 28.3625 41.9679 28.464C42.0164 28.5654 42.0355 28.6786 42.023 28.7905C42.0105 28.9024 41.9669 29.0085 41.8972 29.0965L40.9465 30.2955L39.6921 31.8797C39.6365 31.95 39.5659 32.0069 39.4854 32.0459C39.405 32.085 39.3168 32.1053 39.2275 32.1053C39.1382 32.1053 39.05 32.085 38.9696 32.0459C38.8891 32.0069 38.8185 31.95 38.7629 31.8797L37.5085 30.2955L36.559 29.0965C36.4893 29.0085 36.4457 28.9024 36.4332 28.7905C36.4207 28.6786 36.4398 28.5654 36.4883 28.464C36.5368 28.3625 36.6128 28.2769 36.7075 28.2169C36.8021 28.157 36.9117 28.1251 37.0236 28.125H39.2287Z" fill="black" fill-opacity="0.2"/>
<path d="M28.731 21.6338C28.7187 21.8551 28.6689 22.0726 28.5835 22.2768C28.4585 22.5773 28.2611 22.8417 28.0092 23.0461C27.7572 23.2505 27.4587 23.3885 27.1405 23.4477C26.8222 23.5068 26.4944 23.4852 26.1865 23.3849C25.8787 23.2845 25.6005 23.1085 25.3772 22.8728C25.1539 22.6371 24.9924 22.349 24.9074 22.0348C24.8224 21.7205 24.8165 21.3898 24.8903 21.0727C24.964 20.7555 25.1151 20.4619 25.3299 20.2182C25.5447 19.9746 25.8165 19.7887 26.1205 19.6773C24.8018 19.181 23.3494 19.1805 22.0304 19.6758C20.7113 20.1711 19.6142 21.1291 18.9406 22.3735C18.2671 23.6179 18.0624 25.0653 18.3641 26.4495C18.6659 27.8337 19.4539 29.0617 20.5832 29.9079C21.7126 30.7541 23.1074 31.1616 24.5113 31.0554C25.9153 30.9493 27.2339 30.3366 28.225 29.3301C29.2161 28.3236 29.813 26.9908 29.9059 25.5768C29.9989 24.1627 29.5817 22.7624 28.731 21.6332V21.6338Z" fill="url(#paint1_linear_811_110367)"/>
<path d="M28.731 21.6338C28.7187 21.8551 28.6689 22.0726 28.5835 22.2768C28.4585 22.5773 28.2611 22.8417 28.0092 23.0461C27.7572 23.2505 27.4587 23.3885 27.1405 23.4477C26.8222 23.5068 26.4944 23.4852 26.1865 23.3849C25.8787 23.2845 25.6005 23.1085 25.3772 22.8728C25.1539 22.6371 24.9924 22.349 24.9074 22.0348C24.8224 21.7205 24.8165 21.3898 24.8903 21.0727C24.964 20.7555 25.1151 20.4619 25.3299 20.2182C25.5447 19.9746 25.8165 19.7887 26.1205 19.6773C24.8018 19.181 23.3494 19.1805 22.0304 19.6758C20.7113 20.1711 19.6142 21.1291 18.9406 22.3735C18.2671 23.6179 18.0624 25.0653 18.3641 26.4495C18.6659 27.8337 19.4539 29.0617 20.5832 29.9079C21.7126 30.7541 23.1074 31.1616 24.5113 31.0554C25.9153 30.9493 27.2339 30.3366 28.225 29.3301C29.2161 28.3236 29.813 26.9908 29.9059 25.5768C29.9989 24.1627 29.5817 22.7624 28.731 21.6332V21.6338Z" fill="black" fill-opacity="0.2"/>
<path d="M59.6883 22.0027C59.6754 22.2238 59.626 22.4411 59.5419 22.6457C59.417 22.9464 59.2195 23.2111 58.9674 23.4157C58.7153 23.6204 58.4166 23.7585 58.0981 23.8178C57.7797 23.877 57.4516 23.8555 57.1435 23.755C56.8354 23.6546 56.557 23.4785 56.3335 23.2426C56.11 23.0067 55.9484 22.7185 55.8634 22.4039C55.7783 22.0894 55.7725 21.7585 55.8463 21.4411C55.9202 21.1238 56.0715 20.8299 56.2865 20.5862C56.5015 20.3424 56.7735 20.1564 57.0778 20.045C55.7588 19.5483 54.306 19.5475 52.9864 20.0427C51.6668 20.538 50.5691 21.496 49.8952 22.7407C49.2212 23.9854 49.0162 25.4332 49.3178 26.8179C49.6195 28.2026 50.4075 29.4311 51.5371 30.2778C52.6667 31.1244 54.0619 31.5322 55.4663 31.4262C56.8707 31.3202 58.1899 30.7075 59.1814 29.7008C60.1729 28.694 60.7701 27.3609 60.8632 25.9464C60.9563 24.5319 60.5391 23.1312 59.6883 22.0015V22.0027Z" fill="url(#paint2_linear_811_110367)"/>
<path d="M59.6883 22.0027C59.6754 22.2238 59.626 22.4411 59.5419 22.6457C59.417 22.9464 59.2195 23.2111 58.9674 23.4157C58.7153 23.6204 58.4166 23.7585 58.0981 23.8178C57.7797 23.877 57.4516 23.8555 57.1435 23.755C56.8354 23.6546 56.557 23.4785 56.3335 23.2426C56.11 23.0067 55.9484 22.7185 55.8634 22.4039C55.7783 22.0894 55.7725 21.7585 55.8463 21.4411C55.9202 21.1238 56.0715 20.8299 56.2865 20.5862C56.5015 20.3424 56.7735 20.1564 57.0778 20.045C55.7588 19.5483 54.306 19.5475 52.9864 20.0427C51.6668 20.538 50.5691 21.496 49.8952 22.7407C49.2212 23.9854 49.0162 25.4332 49.3178 26.8179C49.6195 28.2026 50.4075 29.4311 51.5371 30.2778C52.6667 31.1244 54.0619 31.5322 55.4663 31.4262C56.8707 31.3202 58.1899 30.7075 59.1814 29.7008C60.1729 28.694 60.7701 27.3609 60.8632 25.9464C60.9563 24.5319 60.5391 23.1312 59.6883 22.0015V22.0027Z" fill="black" fill-opacity="0.2"/>
<path d="M57.8799 0.19413C55.7753 -0.794951 55.2845 2.16995 50.8657 5.13544C47.7169 7.24805 41.9698 7.13874 39.0005 6.87627C36.0311 7.13874 30.2835 7.24805 27.1353 5.13544C22.7164 2.16995 22.2245 -0.794951 20.1204 0.19413C19.0815 0.681071 16.5901 5.00683 14.2485 10.7391C17.5731 10.7996 20.8776 11.2708 24.0881 12.142C31.3573 10.6642 36.4115 15.353 38.4325 17.7082C38.8085 17.7848 39.1959 17.7848 39.5719 17.7082C41.59 15.3536 46.6448 10.666 53.9163 12.1426C57.1266 11.2714 60.4309 10.8002 63.7553 10.7396C61.4102 5.00684 58.9194 0.681071 57.8799 0.19413Z" fill="url(#paint3_linear_811_110367)"/>
<path d="M57.8799 0.19413C55.7753 -0.794951 55.2845 2.16995 50.8657 5.13544C47.7169 7.24805 41.9698 7.13874 39.0005 6.87627C36.0311 7.13874 30.2835 7.24805 27.1353 5.13544C22.7164 2.16995 22.2245 -0.794951 20.1204 0.19413C19.0815 0.681071 16.5901 5.00683 14.2485 10.7391C17.5731 10.7996 20.8776 11.2708 24.0881 12.142C31.3573 10.6642 36.4115 15.353 38.4325 17.7082C38.8085 17.7848 39.1959 17.7848 39.5719 17.7082C41.59 15.3536 46.6448 10.666 53.9163 12.1426C57.1266 11.2714 60.4309 10.8002 63.7553 10.7396C61.4102 5.00684 58.9194 0.681071 57.8799 0.19413Z" fill="black" fill-opacity="0.2"/>
<path d="M38.9998 23.3601L40.5469 23.4519C41.7142 23.5033 41.9175 24.3714 42.831 26.0059C43.7445 27.6403 45.3683 35.1496 55.6712 34.9965C65.9742 34.8433 76.1715 23.553 77.6449 19.519C79.1182 15.4849 76.2244 12.5194 64.8557 12.1622C53.4871 11.8051 41.6643 18.4966 41.6643 18.4966C40.8466 18.9443 39.9306 19.1789 38.9998 19.1789C38.069 19.1789 37.153 18.9443 36.3354 18.4966C36.3354 18.4966 24.5102 11.8051 13.1427 12.1622C1.77523 12.5194 -1.11746 15.4849 0.354726 19.5184C1.82691 23.5519 12.0277 34.8433 22.329 34.9959C32.6302 35.1484 34.2545 27.6403 35.1686 26.0053C36.0827 24.3703 36.2842 23.5028 37.4515 23.4513L38.9998 23.3601ZM54.4017 32.9528C47.3474 32.4928 42.831 25.0355 46.5861 20.8465C50.3412 16.6575 58.6139 15.8409 58.6139 15.8409C60.8474 15.7386 69.9825 14.8185 69.9825 20.2836C69.9825 25.7487 61.456 33.4129 54.4023 32.9528H54.4017ZM8.01707 20.2842C8.01707 14.8185 17.1522 15.7386 19.3846 15.8415C19.3846 15.8415 27.6584 16.6599 31.413 20.8471C35.1675 25.0343 30.6522 32.4933 23.5979 32.9534C16.5436 33.4134 8.01707 25.7504 8.01707 20.2842Z" fill="url(#paint4_linear_811_110367)"/>
<path d="M38.9998 23.3601L40.5469 23.4519C41.7142 23.5033 41.9175 24.3714 42.831 26.0059C43.7445 27.6403 45.3683 35.1496 55.6712 34.9965C65.9742 34.8433 76.1715 23.553 77.6449 19.519C79.1182 15.4849 76.2244 12.5194 64.8557 12.1622C53.4871 11.8051 41.6643 18.4966 41.6643 18.4966C40.8466 18.9443 39.9306 19.1789 38.9998 19.1789C38.069 19.1789 37.153 18.9443 36.3354 18.4966C36.3354 18.4966 24.5102 11.8051 13.1427 12.1622C1.77523 12.5194 -1.11746 15.4849 0.354726 19.5184C1.82691 23.5519 12.0277 34.8433 22.329 34.9959C32.6302 35.1484 34.2545 27.6403 35.1686 26.0053C36.0827 24.3703 36.2842 23.5028 37.4515 23.4513L38.9998 23.3601ZM54.4017 32.9528C47.3474 32.4928 42.831 25.0355 46.5861 20.8465C50.3412 16.6575 58.6139 15.8409 58.6139 15.8409C60.8474 15.7386 69.9825 14.8185 69.9825 20.2836C69.9825 25.7487 61.456 33.4129 54.4023 32.9528H54.4017ZM8.01707 20.2842C8.01707 14.8185 17.1522 15.7386 19.3846 15.8415C19.3846 15.8415 27.6584 16.6599 31.413 20.8471C35.1675 25.0343 30.6522 32.4933 23.5979 32.9534C16.5436 33.4134 8.01707 25.7504 8.01707 20.2842Z" fill="black" fill-opacity="0.2"/>
<path d="M11.04 84.296C11.904 84.296 12.64 84.1947 13.248 83.992C13.8667 83.7893 14.368 83.512 14.752 83.16C15.1467 82.808 15.4347 82.392 15.616 81.912C15.7973 81.4213 15.888 80.888 15.888 80.312C15.888 79.1707 15.4933 78.2747 14.704 77.624C13.9147 76.9627 12.6933 76.632 11.04 76.632H6.24V84.296H11.04ZM6.24 66.696V74.216H10.16C11.8347 74.216 13.0773 73.88 13.888 73.208C14.7093 72.5253 15.12 71.608 15.12 70.456C15.12 69.144 14.7307 68.1893 13.952 67.592C13.1733 66.9947 11.9627 66.696 10.32 66.696H6.24ZM10.32 64.024C11.76 64.024 12.992 64.1627 14.016 64.44C15.0507 64.7173 15.8987 65.1173 16.56 65.64C17.2213 66.1627 17.7067 66.7973 18.016 67.544C18.336 68.28 18.496 69.1173 18.496 70.056C18.496 70.6107 18.4107 71.144 18.24 71.656C18.0693 72.168 17.808 72.648 17.456 73.096C17.104 73.5333 16.6613 73.928 16.128 74.28C15.5947 74.632 14.9653 74.9253 14.24 75.16C17.5787 75.8213 19.248 77.5653 19.248 80.392C19.248 81.3733 19.0667 82.2693 18.704 83.08C18.3413 83.88 17.8133 84.5733 17.12 85.16C16.4267 85.7467 15.5733 86.2 14.56 86.52C13.5467 86.84 12.3947 87 11.104 87H2.832V64.024H10.32ZM36.1253 84.136V87H22.9733V64.024H26.3813V84.136H36.1253ZM42.226 87H38.802V64.024H42.226V87ZM66.0718 64.024V87H64.3438C64.0771 87 63.8531 86.952 63.6718 86.856C63.5011 86.76 63.3251 86.6053 63.1438 86.392L50.1678 69.608C50.1891 69.896 50.2051 70.1787 50.2158 70.456C50.2371 70.7333 50.2478 70.9947 50.2478 71.24V87H47.2558V64.024H49.0158C49.3144 64.024 49.5384 64.0613 49.6878 64.136C49.8371 64.2 50.0024 64.3547 50.1838 64.6L63.1918 81.4C63.1598 81.0907 63.1331 80.792 63.1118 80.504C63.1011 80.2053 63.0958 79.928 63.0958 79.672V64.024H66.0718ZM74.5238 73.96H75.6438C76.0491 73.96 76.3744 73.912 76.6198 73.816C76.8758 73.7093 77.1051 73.5333 77.3078 73.288L84.6198 64.792C84.8544 64.504 85.0944 64.3067 85.3398 64.2C85.5851 64.0827 85.8891 64.024 86.2518 64.024H89.1638L80.6518 73.816C80.4384 74.0933 80.2251 74.3173 80.0118 74.488C79.8091 74.6587 79.5958 74.8027 79.3718 74.92C79.9584 75.1227 80.4704 75.5333 80.9078 76.152L89.7558 87H86.7958C86.5824 87 86.3958 86.984 86.2358 86.952C86.0864 86.92 85.9531 86.8773 85.8358 86.824C85.7291 86.76 85.6278 86.6853 85.5318 86.6C85.4464 86.5147 85.3664 86.4133 85.2918 86.296L77.7238 77.336C77.6171 77.1973 77.5104 77.08 77.4038 76.984C77.2971 76.888 77.1744 76.8133 77.0358 76.76C76.8971 76.696 76.7371 76.6533 76.5558 76.632C76.3744 76.6 76.1611 76.584 75.9158 76.584H74.5238V87H71.1158V64.024H74.5238V73.96ZM106.138 84.232L106.122 87H91.882V64.024H106.122V66.792H95.306V74.072H104.01V76.744H95.306V84.232H106.138ZM116.223 75.096C117.097 75.096 117.865 74.9893 118.527 74.776C119.199 74.5627 119.759 74.264 120.207 73.88C120.655 73.4853 120.991 73.0213 121.215 72.488C121.439 71.944 121.551 71.3467 121.551 70.696C121.551 69.3733 121.113 68.376 120.239 67.704C119.375 67.032 118.073 66.696 116.335 66.696H113.119V75.096H116.223ZM126.943 87H123.903C123.295 87 122.852 86.76 122.575 86.28L116.895 78.312C116.713 78.0453 116.516 77.8587 116.303 77.752C116.089 77.6347 115.769 77.576 115.343 77.576H113.119V87H109.711V64.024H116.335C117.817 64.024 119.092 64.1787 120.159 64.488C121.236 64.7867 122.121 65.2187 122.815 65.784C123.519 66.3387 124.036 67.0107 124.367 67.8C124.708 68.5893 124.879 69.4747 124.879 70.456C124.879 71.256 124.756 72.008 124.511 72.712C124.265 73.416 123.903 74.0507 123.423 74.616C122.953 75.1707 122.377 75.6507 121.695 76.056C121.012 76.4613 120.239 76.7707 119.375 76.984C119.801 77.24 120.169 77.5973 120.479 78.056L126.943 87ZM141.146 67.768C141.04 67.9493 140.928 68.0827 140.81 68.168C140.693 68.2533 140.544 68.296 140.362 68.296C140.17 68.296 139.952 68.2107 139.706 68.04C139.461 67.8587 139.152 67.6613 138.778 67.448C138.416 67.224 137.978 67.0267 137.466 66.856C136.954 66.6747 136.341 66.584 135.626 66.584C134.954 66.584 134.362 66.6747 133.85 66.856C133.349 67.0267 132.928 67.2667 132.586 67.576C132.245 67.8747 131.984 68.232 131.802 68.648C131.632 69.0533 131.546 69.496 131.546 69.976C131.546 70.5947 131.701 71.1067 132.01 71.512C132.33 71.9173 132.746 72.264 133.258 72.552C133.77 72.84 134.352 73.0907 135.002 73.304C135.653 73.5173 136.32 73.7413 137.002 73.976C137.685 74.2 138.352 74.4613 139.002 74.76C139.653 75.0587 140.234 75.4373 140.746 75.896C141.258 76.344 141.669 76.8987 141.978 77.56C142.298 78.2107 142.458 79.0107 142.458 79.96C142.458 80.9733 142.282 81.9227 141.93 82.808C141.589 83.6933 141.088 84.4667 140.426 85.128C139.765 85.7893 138.949 86.312 137.978 86.696C137.018 87.0693 135.925 87.256 134.698 87.256C133.962 87.256 133.248 87.1813 132.554 87.032C131.861 86.8933 131.205 86.696 130.586 86.44C129.968 86.1733 129.386 85.8587 128.842 85.496C128.309 85.1227 127.829 84.7067 127.402 84.248L128.378 82.616C128.474 82.488 128.586 82.3813 128.714 82.296C128.853 82.2107 129.008 82.168 129.178 82.168C129.402 82.168 129.658 82.2853 129.946 82.52C130.245 82.7547 130.608 83.016 131.034 83.304C131.472 83.5813 131.989 83.8373 132.586 84.072C133.194 84.3067 133.93 84.424 134.794 84.424C135.498 84.424 136.128 84.3333 136.682 84.152C137.237 83.96 137.701 83.6933 138.074 83.352C138.458 83 138.752 82.5787 138.954 82.088C139.157 81.5973 139.258 81.0533 139.258 80.456C139.258 79.784 139.104 79.2347 138.794 78.808C138.485 78.3813 138.074 78.024 137.562 77.736C137.05 77.448 136.469 77.2027 135.818 77C135.168 76.7973 134.501 76.5893 133.818 76.376C133.136 76.152 132.469 75.896 131.818 75.608C131.168 75.32 130.586 74.9467 130.074 74.488C129.562 74.0187 129.152 73.4373 128.842 72.744C128.533 72.04 128.378 71.176 128.378 70.152C128.378 69.3307 128.538 68.536 128.858 67.768C129.178 67 129.642 66.3227 130.25 65.736C130.869 65.1387 131.626 64.664 132.522 64.312C133.418 63.9493 134.442 63.768 135.594 63.768C136.885 63.768 138.069 63.976 139.146 64.392C140.234 64.7973 141.178 65.384 141.978 66.152L141.146 67.768Z" fill="#222222"/>
<defs>
<linearGradient id="paint0_linear_811_110367" x1="39.2281" y1="28.125" x2="39.2281" y2="32.1053" gradientUnits="userSpaceOnUse">
<stop stop-color="#009900"/>
<stop offset="1" stop-color="#2FCE2F"/>
</linearGradient>
<linearGradient id="paint1_linear_811_110367" x1="24.0735" y1="19.3047" x2="24.0735" y2="31.072" gradientUnits="userSpaceOnUse">
<stop stop-color="#009900"/>
<stop offset="1" stop-color="#2FCE2F"/>
</linearGradient>
<linearGradient id="paint2_linear_811_110367" x1="55.0291" y1="19.6719" x2="55.0291" y2="31.4426" gradientUnits="userSpaceOnUse">
<stop stop-color="#009900"/>
<stop offset="1" stop-color="#2FCE2F"/>
</linearGradient>
<linearGradient id="paint3_linear_811_110367" x1="39.0019" y1="0" x2="39.0019" y2="17.7657" gradientUnits="userSpaceOnUse">
<stop stop-color="#009900"/>
<stop offset="1" stop-color="#2FCE2F"/>
</linearGradient>
<linearGradient id="paint4_linear_811_110367" x1="39" y1="12.1484" x2="39" y2="34.9988" gradientUnits="userSpaceOnUse">
<stop stop-color="#009900"/>
<stop offset="1" stop-color="#2FCE2F"/>
</linearGradient>
</defs>
</svg>
