<svg width="50" height="50" viewBox="0 0 50 50" fill="none" xmlns="http://www.w3.org/2000/svg">
<rect width="50" height="50" rx="8" fill="#D68910" fill-opacity="0.1"/>
<g clip-path="url(#clip0_10036_123349)">
<path d="M32.2188 13.9697C32.3381 13.9458 32.462 13.9705 32.5635 14.0381C32.6649 14.1057 32.7358 14.2106 32.7598 14.3301L36.3584 32.2783C36.4083 32.5273 36.246 32.7694 35.9971 32.8193L18.0498 36.418C18.0194 36.4241 17.9888 36.4267 17.959 36.4268C17.7445 36.4268 17.5516 36.2751 17.5078 36.0566L13.9102 18.1094C13.8602 17.8605 14.0217 17.6184 14.2705 17.5684L32.2188 13.9697Z" fill="#D68910" stroke="#D68910" stroke-width="0.0972987"/>
<path d="M14.2611 17.52C13.9858 17.5752 13.8073 17.8431 13.8626 18.1184L17.4606 36.0664C17.509 36.308 17.7213 36.4751 17.9586 36.4751C17.9917 36.4751 18.0254 36.4718 18.0591 36.4651L19.8844 36.0991L16.0222 17.167L14.2611 17.52Z" fill="#FFB94B"/>
<path d="M20.8456 24.4985C20.7904 24.2231 20.5221 24.0446 20.2471 24.0999L17.7543 24.5996C17.479 24.6548 17.3005 24.9228 17.3557 25.1981L18.1553 29.1865C18.2104 29.4616 18.4886 29.6435 18.7627 29.5832C19.0299 29.5244 19.2062 29.2553 19.1524 28.9867L18.8525 27.4911L19.8496 27.2912C20.1249 27.236 20.3034 26.968 20.2482 26.6927C20.193 26.4173 19.9248 26.2389 19.6497 26.2941L18.6525 26.494L18.4526 25.497L20.4468 25.0971C20.7224 25.0417 20.9008 24.7738 20.8456 24.4985Z" fill="white"/>
<path d="M22.6417 28.7953C22.4045 28.7953 22.1922 28.6283 22.1437 28.3866L21.3441 24.3982C21.2896 24.1266 21.4715 23.8541 21.7427 23.7997L24.2355 23.3C24.5105 23.2449 24.7788 23.4232 24.834 23.6986L25.2338 25.6928C25.289 25.9681 25.1105 26.236 24.8352 26.2912L24.3366 26.3912L25.4739 27.4078C25.6804 27.5924 25.6987 27.9192 25.5141 28.1258C25.3294 28.3323 25.0027 28.3507 24.7961 28.166L22.9007 26.4716C22.8184 26.3981 22.764 26.3014 22.7421 26.1974L23.1409 28.1867C23.203 28.4971 22.9582 28.7953 22.6417 28.7953ZM22.4411 24.697L22.7399 26.1875C22.7257 26.1131 22.7281 26.0351 22.7489 25.959C22.7994 25.7732 22.9507 25.6319 23.1395 25.594L24.1366 25.3941L23.9366 24.397L22.4411 24.697Z" fill="white"/>
<path d="M29.6218 26.8871C29.5666 26.6117 29.2984 26.4333 29.0233 26.4885L27.5276 26.7884L27.3278 25.7913L28.3249 25.5914C28.6002 25.5362 28.7787 25.2682 28.7234 24.9929C28.6682 24.7175 28.4 24.539 28.1249 24.5944L27.1277 24.7943L26.9279 23.7972L28.4235 23.4973C28.6989 23.4421 28.8773 23.1742 28.8221 22.8988C28.7669 22.6234 28.4986 22.445 28.2236 22.5003L26.2294 22.9001C26.0971 22.9265 25.9809 23.0045 25.9061 23.1167C25.8313 23.229 25.8042 23.3663 25.8307 23.4985L26.6303 27.487C26.6848 27.7586 26.9571 27.9401 27.2288 27.8855L29.223 27.4857C29.4985 27.4304 29.677 27.1624 29.6218 26.8871Z" fill="white"/>
<path d="M33.1115 26.1879C33.0563 25.9125 32.7879 25.734 32.513 25.7894L31.0174 26.0892L30.8176 25.0921L31.8146 24.8922C32.0899 24.837 32.2685 24.569 32.2131 24.2937C32.1579 24.0183 31.8896 23.8398 31.6147 23.8951L30.6176 24.0951L30.4177 23.098L31.9133 22.7981C32.1886 22.7429 32.3671 22.4749 32.3118 22.1996C32.2566 21.9242 31.9883 21.7458 31.7133 21.8011L29.7192 22.2008C29.4438 22.256 29.2653 22.524 29.3206 22.7993L30.1202 26.7877C30.1746 27.0594 30.4469 27.2409 30.7186 27.1863L32.7128 26.7866C32.9882 26.7311 33.1666 26.4633 33.1115 26.1879Z" fill="white"/>
<path d="M28.4216 18.3119L28.2218 17.3148C28.1953 17.1827 28.1173 17.0663 28.0051 16.9916C27.8928 16.9167 27.7554 16.8897 27.6233 16.9162L19.6464 18.5153C19.3711 18.5705 19.1926 18.8385 19.2478 19.1138L19.4478 20.1109C19.5812 20.7768 19.966 21.3507 20.5313 21.7272C20.9537 22.0085 21.439 22.1543 21.9353 22.1543C22.1031 22.1543 22.2721 22.1376 22.4403 22.1039L26.4287 21.3043C27.0946 21.1708 27.6686 20.7861 28.045 20.2209C28.4213 19.6558 28.5552 18.9778 28.4216 18.3119Z" fill="#606268"/>
<path d="M28.4215 18.3114L28.3011 17.7109C28.3308 18.2549 28.1853 18.7918 27.8779 19.2535C27.5015 19.8187 26.9275 20.2035 26.2616 20.3369L22.2732 21.1365C22.105 21.1703 21.9359 21.1869 21.7682 21.1869C21.2719 21.1869 20.7866 21.0411 20.3642 20.7598C19.7989 20.3833 19.4141 19.8094 19.2807 19.1435L19.2419 18.9501C19.2352 19.0031 19.2365 19.058 19.2476 19.1133L19.4475 20.1104C19.581 20.7763 19.9657 21.3503 20.531 21.7267C20.9534 22.008 21.4387 22.1538 21.935 22.1538C22.1028 22.1538 22.2718 22.1372 22.44 22.1034L26.4284 21.3039C27.0943 21.1704 27.6683 20.7856 28.0447 20.2204C28.4211 19.6553 28.555 18.9773 28.4215 18.3114Z" fill="#4C4E55"/>
<path d="M33.8069 19.3061L33.1959 16.2581C33.1005 15.9941 32.8463 15.8685 32.6088 15.9162L29.1189 16.6159C28.7155 16.6968 28.5847 17.1996 28.8696 17.4842L29.9166 18.5303L29.3549 19.8962C29.2848 20.0666 29.3029 20.2691 29.4164 20.4167C29.5323 20.5674 29.7321 20.6418 29.9185 20.6043L33.4083 19.9046C33.6836 19.8494 33.8621 19.5815 33.8069 19.3061Z" fill="#D68910"/>
<path d="M18.1528 20.8887L18.7211 19.5067C18.8725 19.1384 18.5414 18.7358 18.1509 18.8147L14.661 19.5143C14.3857 19.5695 14.2072 19.8374 14.2625 20.1128L14.8622 23.1041C14.9166 23.3755 15.189 23.5572 15.4607 23.5027L18.9506 22.803C19.3406 22.7248 19.4923 22.2268 19.21 21.9448L18.1528 20.8887Z" fill="#D68910"/>
<path d="M19.4529 33.5832C19.2157 33.5832 19.0034 33.4161 18.9549 33.1745L18.6551 31.6788C18.5998 31.4035 18.7783 31.1355 19.0536 31.0804C19.3287 31.0251 19.5969 31.2035 19.6521 31.4789L19.952 32.9746C20.0143 33.285 19.7694 33.5832 19.4529 33.5832Z" fill="#F2C127"/>
<path d="M21.4471 33.1828C21.2098 33.1828 20.9975 33.0157 20.9491 32.7741L20.6492 31.2784C20.5939 31.0031 20.7724 30.7352 21.0478 30.68C21.3227 30.6247 21.591 30.8031 21.6462 31.0785L21.9461 32.5742C22.0084 32.8846 21.7635 33.1828 21.4471 33.1828Z" fill="#F2C127"/>
<path d="M23.9402 32.6837C23.703 32.6837 23.4907 32.5166 23.4422 32.275L23.1424 30.7794C23.0871 30.504 23.2656 30.2361 23.5409 30.1809C23.816 30.1258 24.0842 30.3041 24.1394 30.5794L24.4393 32.0751C24.5016 32.3854 24.2567 32.6837 23.9402 32.6837Z" fill="#F2C127"/>
<path d="M26.4329 32.1837C26.1957 32.1837 25.9834 32.0167 25.9349 31.775L25.635 30.2794C25.5798 30.0041 25.7583 29.7361 26.0336 29.6809C26.3086 29.6257 26.5769 29.8041 26.6321 30.0795L26.932 31.5751C26.9943 31.8855 26.7494 32.1837 26.4329 32.1837Z" fill="#F2C127"/>
<path d="M28.427 31.7833C28.1897 31.7833 27.9774 31.6163 27.929 31.3746L27.6292 29.879C27.574 29.6037 27.7524 29.3358 28.0277 29.2806C28.3026 29.2252 28.571 29.4037 28.6262 29.6791L28.926 31.1747C28.9882 31.4851 28.7435 31.7833 28.427 31.7833Z" fill="#F2C127"/>
<path d="M29.9227 31.4846C29.6854 31.4846 29.4731 31.3175 29.4247 31.0759L29.1248 29.5802C29.0695 29.3049 29.248 29.0369 29.5233 28.9817C29.7983 28.9265 30.0666 29.1049 30.1218 29.3803L30.4217 30.8759C30.484 31.1863 30.2391 31.4846 29.9227 31.4846Z" fill="#F2C127"/>
<path d="M31.4182 31.1838C31.1809 31.1838 30.9687 31.0168 30.9202 30.7751L30.6204 29.2794C30.5652 29.0041 30.7436 28.7362 31.0189 28.681C31.294 28.6256 31.5622 28.8041 31.6174 29.0795L31.9172 30.5752C31.9795 30.8855 31.7346 31.1838 31.4182 31.1838Z" fill="#F2C127"/>
<path d="M33.4124 30.7844C33.1752 30.7844 32.9629 30.6173 32.9144 30.3757L32.6145 28.88C32.5593 28.6047 32.7378 28.3367 33.0131 28.2815C33.288 28.2263 33.5564 28.4047 33.6116 28.6801L33.9114 30.1757C33.9738 30.4861 33.7289 30.7844 33.4124 30.7844Z" fill="#F2C127"/>
<path d="M17.9589 36.475C17.7195 36.475 17.5074 36.301 17.4603 36.0664L12.563 11.6373L10.6085 12.0291C10.3334 12.0843 10.0652 11.906 10.01 11.6306C9.95482 11.3552 10.1332 11.0873 10.4086 11.0321L12.8617 10.5403C13.1368 10.4851 13.405 10.6635 13.4602 10.9389L18.3576 35.3681L39.2969 31.1703C39.5717 31.115 39.8402 31.2934 39.8954 31.5688C39.9506 31.8442 39.7721 32.1121 39.4968 32.1673L18.0589 36.4651C18.0257 36.4717 17.9923 36.475 17.9589 36.475Z" fill="#4C4E55"/>
<path d="M28.6298 39.9998C30.0339 39.9998 31.1722 38.8615 31.1722 37.4574C31.1722 36.0533 30.0339 34.915 28.6298 34.915C27.2257 34.915 26.0874 36.0533 26.0874 37.4574C26.0874 38.8615 27.2257 39.9998 28.6298 39.9998Z" fill="#74DBC9"/>
<path d="M28.6301 38.9838C29.4729 38.9838 30.1562 38.3005 30.1562 37.4577C30.1562 36.6149 29.4729 35.9316 28.6301 35.9316C27.7873 35.9316 27.104 36.6149 27.104 37.4577C27.104 38.3005 27.7873 38.9838 28.6301 38.9838Z" fill="#6AC8B7"/>
<path d="M28.6297 38.4743C29.1914 38.4743 29.6467 38.019 29.6467 37.4574C29.6467 36.8957 29.1914 36.4404 28.6297 36.4404C28.0681 36.4404 27.6128 36.8957 27.6128 37.4574C27.6128 38.019 28.0681 38.4743 28.6297 38.4743Z" fill="#EBEBEC"/>
<path d="M21.6951 12.0349C21.1438 12.0349 20.6781 11.3364 20.6781 10.5095C20.6781 10.2287 20.4504 10.001 20.1697 10.001C19.8889 10.001 19.6612 10.2287 19.6612 10.5095C19.6612 11.3364 19.1955 12.0349 18.6442 12.0349C18.3634 12.0349 18.1357 12.2626 18.1357 12.5434C18.1357 12.8241 18.3634 13.0518 18.6442 13.0518C19.1955 13.0518 19.6612 13.7503 19.6612 14.5773C19.6612 14.8581 19.8889 15.0858 20.1697 15.0858C20.4504 15.0858 20.6781 14.8581 20.6781 14.5773C20.6781 13.7503 21.1438 13.0518 21.6951 13.0518C21.9759 13.0518 22.2036 12.8241 22.2036 12.5434C22.2036 12.2626 21.9759 12.0349 21.6951 12.0349Z" fill="#D7D8D9"/>
<path d="M39.4915 21.696C38.9402 21.696 38.4745 20.9975 38.4745 20.1706C38.4745 19.8898 38.2468 19.6621 37.966 19.6621C37.6853 19.6621 37.4576 19.8898 37.4576 20.1706C37.4576 20.9975 36.9919 21.696 36.4406 21.696C36.1598 21.696 35.9321 21.9237 35.9321 22.2045C35.9321 22.4853 36.1598 22.713 36.4406 22.713C36.9919 22.713 37.4576 23.4115 37.4576 24.2384C37.4576 24.5192 37.6853 24.7469 37.966 24.7469C38.2468 24.7469 38.4745 24.5192 38.4745 24.2384C38.4745 23.4115 38.9402 22.713 39.4915 22.713C39.7723 22.713 40 22.4853 40 22.2045C39.9999 21.9237 39.7723 21.696 39.4915 21.696Z" fill="#D7D8D9"/>
<path d="M13.5593 31.3572C13.0081 31.3572 12.5424 30.6587 12.5424 29.8317C12.5424 29.5509 12.3147 29.3232 12.0339 29.3232C11.7531 29.3232 11.5254 29.5509 11.5254 29.8317C11.5254 30.6587 11.0597 31.3572 10.5085 31.3572C10.2277 31.3572 10 31.5848 10 31.8656C10 32.1464 10.2277 32.3741 10.5085 32.3741C11.0597 32.3741 11.5254 33.0726 11.5254 33.8995C11.5254 34.1803 11.7531 34.408 12.0339 34.408C12.3147 34.408 12.5424 34.1803 12.5424 33.8995C12.5424 33.0726 13.0081 32.3741 13.5593 32.3741C13.8401 32.3741 14.0678 32.1464 14.0678 31.8656C14.0678 31.5848 13.8402 31.3572 13.5593 31.3572Z" fill="#D7D8D9"/>
</g>
<defs>
<clipPath id="clip0_10036_123349">
<rect width="30" height="30" fill="white" transform="translate(10 10)"/>
</clipPath>
</defs>
</svg>
