<svg width="50" height="50" viewBox="0 0 50 50" fill="none" xmlns="http://www.w3.org/2000/svg">
<rect width="50" height="50" rx="8" fill="#D68910" fill-opacity="0.1"/>
<path d="M25.0181 26.5648L25.0171 26.5654L25.0178 26.5669L25.0189 26.5663L25.0181 26.5648Z" fill="#808080"/>
<path d="M25.02 26.5645H25.0181V26.5665H25.02V26.5645Z" fill="#808080"/>
<path d="M25.0186 26.5643L39.9999 21.3887L29.9246 19.418L25.0186 26.5632V26.5643Z" fill="#F9C543"/>
<path d="M25.02 26.5654H25.0181V26.5675H25.02V26.5654Z" fill="#808080"/>
<path d="M33.007 29.2573L39.9999 21.3906L25.0186 26.5663L33.007 29.2573Z" fill="#FDB53F"/>
<path d="M17.0496 29.3176L15.7925 39.9996L25.0165 26.5664L17.0496 29.3176Z" fill="#F9C543"/>
<path d="M25.0165 26.5654L15.7925 39.999L25.049 35.3745L25.0187 26.5654H25.0165Z" fill="#D68910"/>
<path d="M29.9245 19.4197L24.9619 10L25.0185 26.5649L29.9245 19.4197Z" fill="#D68910"/>
<path d="M25.0186 26.5654L34.3346 39.93L33.0081 29.2564L25.0186 26.5654Z" fill="#D68910"/>
<path d="M25.0186 26.5654L25.0489 35.3745L34.3346 39.93L25.0196 26.5654H25.0186Z" fill="#FDB53F"/>
<path d="M25.0184 26.5645L24.9618 10L20.062 19.4554L25.018 26.5645H25.0184Z" fill="#F9C543"/>
<path d="M20.0622 19.4551L10 21.5017L25.0186 26.5646L20.0622 19.4551Z" fill="#FDB53F"/>
<path d="M25.0186 26.5648L10 21.502L17.0487 29.3169L25.0157 26.5656L25.0186 26.5648Z" fill="#D68910"/>
</svg>
