<svg width="149" height="44" viewBox="0 0 149 44" fill="none" xmlns="http://www.w3.org/2000/svg">
<rect x="1" y="0.5" width="147.5" height="43" rx="4.5" fill="white"/>
<rect x="1" y="0.5" width="147.5" height="43" rx="4.5" stroke="#A6A6A6"/>
<path d="M75.4499 23.9264C72.8627 23.9264 70.754 25.8943 70.754 28.6047C70.754 31.2986 72.8627 33.283 75.4499 33.283C78.0382 33.283 80.1469 31.2986 80.1469 28.6047C80.1458 25.8943 78.0371 23.9264 75.4499 23.9264ZM75.4499 31.4416C74.032 31.4416 72.8099 30.2723 72.8099 28.6058C72.8099 26.9217 74.0331 25.77 75.4499 25.77C76.8678 25.77 78.0899 26.9217 78.0899 28.6058C78.0899 30.2712 76.8678 31.4416 75.4499 31.4416ZM65.2045 23.9264C62.6173 23.9264 60.5086 25.8943 60.5086 28.6047C60.5086 31.2986 62.6173 33.283 65.2045 33.283C67.7928 33.283 69.9015 31.2986 69.9015 28.6047C69.9015 25.8943 67.7928 23.9264 65.2045 23.9264ZM65.2045 31.4416C63.7866 31.4416 62.5645 30.2723 62.5645 28.6058C62.5645 26.9217 63.7877 25.77 65.2045 25.77C66.6224 25.77 67.8445 26.9217 67.8445 28.6058C67.8456 30.2712 66.6224 31.4416 65.2045 31.4416ZM53.0187 25.363V27.3474H57.7685C57.6266 28.4639 57.2548 29.279 56.6872 29.8455C55.9964 30.5363 54.9151 31.2986 53.0187 31.2986C50.0949 31.2986 47.8091 28.9413 47.8091 26.0175C47.8091 23.0937 50.0949 20.7364 53.0187 20.7364C54.5961 20.7364 55.7478 21.3568 56.5981 22.1543L57.9984 20.754C56.8104 19.6199 55.2341 18.752 53.0187 18.752C49.0136 18.752 45.6465 22.0124 45.6465 26.0175C45.6465 30.0226 49.0136 33.283 53.0187 33.283C55.1802 33.283 56.8115 32.5735 58.0864 31.2447C59.3976 29.9335 59.8057 28.0899 59.8057 26.6016C59.8057 26.1418 59.7705 25.7161 59.699 25.3619H53.0187V25.363ZM102.857 26.9041C102.468 25.8591 101.28 23.9264 98.8524 23.9264C96.4423 23.9264 94.4392 25.8228 94.4392 28.6047C94.4392 31.2271 96.4247 33.283 99.0823 33.283C101.226 33.283 102.467 31.9718 102.982 31.2095L101.387 30.1458C100.855 30.9257 100.128 31.4394 99.0823 31.4394C98.0373 31.4394 97.2926 30.9609 96.8141 30.0215L103.07 27.4343L102.857 26.9041ZM96.4775 28.4639C96.4247 26.6555 97.8778 25.7348 98.9239 25.7348C99.739 25.7348 100.43 26.1429 100.661 26.727L96.4775 28.4639ZM91.3922 33.0003H93.447V19.2492H91.3922V33.0003ZM88.024 24.9725H87.9536C87.4927 24.4225 86.6061 23.9264 85.4907 23.9264C83.151 23.9264 81.0071 25.9823 81.0071 28.6234C81.0071 31.2458 83.151 33.2841 85.4907 33.2841C86.6072 33.2841 87.4927 32.788 87.9536 32.2215H88.024V32.8947C88.024 34.6844 87.067 35.6414 85.5259 35.6414C84.2675 35.6414 83.4876 34.7383 83.1686 33.976L81.3789 34.7207C81.8926 35.9604 83.2566 37.485 85.5259 37.485C87.936 37.485 89.9743 36.0671 89.9743 32.6109V24.2113H88.0251V24.9725H88.024ZM85.6678 31.4416C84.2499 31.4416 83.063 30.2536 83.063 28.6234C83.063 26.9745 84.2499 25.77 85.6678 25.77C87.067 25.77 88.1659 26.9745 88.1659 28.6234C88.1659 30.2536 87.067 31.4416 85.6678 31.4416ZM112.487 19.2492H107.569V33.0003H109.62V27.7907H112.486C114.761 27.7907 116.998 26.144 116.998 23.5205C116.998 20.897 114.762 19.2492 112.487 19.2492ZM112.54 25.8767H109.62V21.1632H112.54C114.074 21.1632 114.945 22.4337 114.945 23.5205C114.945 24.5853 114.074 25.8767 112.54 25.8767ZM125.225 23.9022C123.739 23.9022 122.2 24.5567 121.563 26.0076L123.385 26.7677C123.774 26.0076 124.5 25.759 125.26 25.759C126.322 25.759 127.401 26.3959 127.418 27.5278V27.6697C127.046 27.4574 126.25 27.1395 125.278 27.1395C123.314 27.1395 121.314 28.2186 121.314 30.2349C121.314 32.0752 122.925 33.2599 124.729 33.2599C126.108 33.2599 126.869 32.6406 127.347 31.9146H127.417V32.9761H129.399V27.7038C129.4 25.264 127.577 23.9022 125.225 23.9022ZM124.976 31.4383C124.305 31.4383 123.367 31.1017 123.367 30.2701C123.367 29.2086 124.535 28.8016 125.544 28.8016C126.445 28.8016 126.87 28.9963 127.418 29.2614C127.259 30.5363 126.162 31.4383 124.976 31.4383ZM136.618 24.2025L134.265 30.1645H134.194L131.752 24.2025H129.541L133.203 32.535L131.115 37.1704H133.256L138.9 24.2025H136.618ZM118.131 33.0003H120.182V19.2492H118.131V33.0003Z" fill="#222222"/>
<path d="M52.6589 11.267C52.6589 12.1888 52.3861 12.9225 51.8394 13.4703C51.219 14.1215 50.4094 14.4471 49.415 14.4471C48.4624 14.4471 47.6517 14.1171 46.9862 13.4571C46.3196 12.796 45.9863 11.9776 45.9863 11.0008C45.9863 10.0229 46.3196 9.20452 46.9862 8.54452C47.6517 7.88342 48.4624 7.55342 49.415 7.55342C49.888 7.55342 50.3401 7.64582 50.7691 7.82952C51.1992 8.01432 51.5435 8.25962 51.8009 8.56652L51.2212 9.14732C50.7845 8.62482 50.1828 8.36412 49.4139 8.36412C48.7187 8.36412 48.1181 8.60832 47.611 9.09672C47.1039 9.58512 46.8509 10.2198 46.8509 10.9997C46.8509 11.7796 47.1039 12.4143 47.611 12.9027C48.1181 13.3911 48.7187 13.6353 49.4139 13.6353C50.1509 13.6353 50.7658 13.39 51.2575 12.8983C51.5765 12.5782 51.7613 12.1327 51.8108 11.5618H49.4139V10.7687H52.6116C52.6446 10.9414 52.6589 11.1075 52.6589 11.267Z" fill="#222222"/>
<path d="M57.73 8.51048H54.7248V10.6027H57.4352V11.3958H54.7248V13.488H57.73V14.2998H53.8767V7.69978H57.73V8.51048Z" fill="#222222"/>
<path d="M61.306 14.2998H60.4579V8.51048H58.6143V7.69978H63.1496V8.51048H61.306V14.2998Z" fill="#222222"/>
<path d="M66.4309 14.2998V7.69978H67.279V14.2998H66.4309Z" fill="#222222"/>
<path d="M71.04 14.2998H70.1919V8.51048H68.3483V7.69978H72.8836V8.51048H71.04V14.2998Z" fill="#222222"/>
<path d="M81.4689 13.4473C80.8199 14.1139 80.0136 14.4472 79.0489 14.4472C78.0842 14.4472 77.2779 14.1139 76.63 13.4473C75.981 12.7807 75.6576 11.9645 75.6576 10.9998C75.6576 10.0351 75.981 9.21887 76.63 8.55227C77.2779 7.88567 78.0842 7.55127 79.0489 7.55127C80.0081 7.55127 80.8133 7.88677 81.4645 8.55667C82.1157 9.22657 82.4413 10.0406 82.4413 10.9998C82.4413 11.9645 82.1168 12.7807 81.4689 13.4473ZM77.2559 12.894C77.7443 13.389 78.3416 13.6354 79.0489 13.6354C79.7562 13.6354 80.3546 13.3879 80.8419 12.894C81.3303 12.399 81.5756 11.7676 81.5756 10.9998C81.5756 10.232 81.3303 9.60057 80.8419 9.10557C80.3546 8.61057 79.7562 8.36417 79.0489 8.36417C78.3416 8.36417 77.7443 8.61167 77.2559 9.10557C76.7686 9.60057 76.5233 10.232 76.5233 10.9998C76.5233 11.7676 76.7686 12.399 77.2559 12.894Z" fill="#222222"/>
<path d="M83.6315 14.2998V7.69978H84.6633L87.8709 12.8335H87.9072L87.8709 11.5619V7.69978H88.719V14.2998H87.8335L84.4774 8.91638H84.4411L84.4774 10.188V14.2998H83.6315Z" fill="#222222"/>
<path d="M52.6589 11.267C52.6589 12.1888 52.3861 12.9225 51.8394 13.4703C51.219 14.1215 50.4094 14.4471 49.415 14.4471C48.4624 14.4471 47.6517 14.1171 46.9862 13.4571C46.3196 12.796 45.9863 11.9776 45.9863 11.0008C45.9863 10.0229 46.3196 9.20452 46.9862 8.54452C47.6517 7.88342 48.4624 7.55342 49.415 7.55342C49.888 7.55342 50.3401 7.64582 50.7691 7.82952C51.1992 8.01432 51.5435 8.25962 51.8009 8.56652L51.2212 9.14732C50.7845 8.62482 50.1828 8.36412 49.4139 8.36412C48.7187 8.36412 48.1181 8.60832 47.611 9.09672C47.1039 9.58512 46.8509 10.2198 46.8509 10.9997C46.8509 11.7796 47.1039 12.4143 47.611 12.9027C48.1181 13.3911 48.7187 13.6353 49.4139 13.6353C50.1509 13.6353 50.7658 13.39 51.2575 12.8983C51.5765 12.5782 51.7613 12.1327 51.8108 11.5618H49.4139V10.7687H52.6116C52.6446 10.9414 52.6589 11.1075 52.6589 11.267Z" stroke="white" stroke-width="0.2" stroke-miterlimit="10"/>
<path d="M57.73 8.51048H54.7248V10.6027H57.4352V11.3958H54.7248V13.488H57.73V14.2998H53.8767V7.69978H57.73V8.51048Z" stroke="white" stroke-width="0.2" stroke-miterlimit="10"/>
<path d="M61.306 14.2998H60.4579V8.51048H58.6143V7.69978H63.1496V8.51048H61.306V14.2998Z" stroke="white" stroke-width="0.2" stroke-miterlimit="10"/>
<path d="M66.4309 14.2998V7.69978H67.279V14.2998H66.4309Z" stroke="white" stroke-width="0.2" stroke-miterlimit="10"/>
<path d="M71.04 14.2998H70.1919V8.51048H68.3483V7.69978H72.8836V8.51048H71.04V14.2998Z" stroke="white" stroke-width="0.2" stroke-miterlimit="10"/>
<path d="M81.4689 13.4473C80.8199 14.1139 80.0136 14.4472 79.0489 14.4472C78.0842 14.4472 77.2779 14.1139 76.63 13.4473C75.981 12.7807 75.6576 11.9645 75.6576 10.9998C75.6576 10.0351 75.981 9.21887 76.63 8.55227C77.2779 7.88567 78.0842 7.55127 79.0489 7.55127C80.0081 7.55127 80.8133 7.88677 81.4645 8.55667C82.1157 9.22657 82.4413 10.0406 82.4413 10.9998C82.4413 11.9645 82.1168 12.7807 81.4689 13.4473ZM77.2559 12.894C77.7443 13.389 78.3416 13.6354 79.0489 13.6354C79.7562 13.6354 80.3546 13.3879 80.8419 12.894C81.3303 12.399 81.5756 11.7676 81.5756 10.9998C81.5756 10.232 81.3303 9.60057 80.8419 9.10557C80.3546 8.61057 79.7562 8.36417 79.0489 8.36417C78.3416 8.36417 77.7443 8.61167 77.2559 9.10557C76.7686 9.60057 76.5233 10.232 76.5233 10.9998C76.5233 11.7676 76.7686 12.399 77.2559 12.894Z" stroke="white" stroke-width="0.2" stroke-miterlimit="10"/>
<path d="M83.6315 14.2998V7.69978H84.6633L87.8709 12.8335H87.9072L87.8709 11.5619V7.69978H88.719V14.2998H87.8335L84.4774 8.91638H84.4411L84.4774 10.188V14.2998H83.6315Z" stroke="white" stroke-width="0.2" stroke-miterlimit="10"/>
<g filter="url(#filter0_ii_3881_62226)">
<path d="M11.98 8.29173C11.6599 8.63053 11.4707 9.15633 11.4707 9.83723V34.1648C11.4707 34.8468 11.6599 35.3715 11.98 35.7103L12.0614 35.7895L25.6893 22.1616V22.001V21.8404L12.0614 8.21143L11.98 8.29173Z" fill="url(#paint0_linear_3881_62226)"/>
<path d="M30.2314 26.7057L25.6895 22.1616V22.001V21.8404L30.2325 17.2974L30.3348 17.3557L35.7171 20.4137C37.2538 21.2871 37.2538 22.716 35.7171 23.5905L30.3348 26.6485L30.2314 26.7057Z" fill="url(#paint1_linear_3881_62226)"/>
<g filter="url(#filter1_i_3881_62226)">
<path d="M30.3351 26.6474L25.6887 22.001L11.9805 35.7103C12.4865 36.2471 13.3236 36.3131 14.2663 35.7785L30.3351 26.6474Z" fill="url(#paint2_linear_3881_62226)"/>
</g>
<path d="M30.3351 17.3547L14.2663 8.22466C13.3236 7.68896 12.4865 7.75606 11.9805 8.29286L25.6898 22.0022L30.3351 17.3547Z" fill="url(#paint3_linear_3881_62226)"/>
</g>
<defs>
<filter id="filter0_ii_3881_62226" x="11.4707" y="7.85498" width="25.3984" height="28.293" filterUnits="userSpaceOnUse" color-interpolation-filters="sRGB">
<feFlood flood-opacity="0" result="BackgroundImageFix"/>
<feBlend mode="normal" in="SourceGraphic" in2="BackgroundImageFix" result="shape"/>
<feColorMatrix in="SourceAlpha" type="matrix" values="0 0 0 0 0 0 0 0 0 0 0 0 0 0 0 0 0 0 127 0" result="hardAlpha"/>
<feOffset dy="-0.15"/>
<feComposite in2="hardAlpha" operator="arithmetic" k2="-1" k3="1"/>
<feColorMatrix type="matrix" values="0 0 0 0 0 0 0 0 0 0 0 0 0 0 0 0 0 0 0.12 0"/>
<feBlend mode="normal" in2="shape" result="effect1_innerShadow_3881_62226"/>
<feColorMatrix in="SourceAlpha" type="matrix" values="0 0 0 0 0 0 0 0 0 0 0 0 0 0 0 0 0 0 127 0" result="hardAlpha"/>
<feOffset dy="0.15"/>
<feComposite in2="hardAlpha" operator="arithmetic" k2="-1" k3="1"/>
<feColorMatrix type="matrix" values="0 0 0 0 1 0 0 0 0 1 0 0 0 0 1 0 0 0 0.25 0"/>
<feBlend mode="normal" in2="effect1_innerShadow_3881_62226" result="effect2_innerShadow_3881_62226"/>
</filter>
<filter id="filter1_i_3881_62226" x="11.9805" y="22.001" width="18.3555" height="14.147" filterUnits="userSpaceOnUse" color-interpolation-filters="sRGB">
<feFlood flood-opacity="0" result="BackgroundImageFix"/>
<feBlend mode="normal" in="SourceGraphic" in2="BackgroundImageFix" result="shape"/>
<feColorMatrix in="SourceAlpha" type="matrix" values="0 0 0 0 0 0 0 0 0 0 0 0 0 0 0 0 0 0 127 0" result="hardAlpha"/>
<feOffset dy="-0.15"/>
<feComposite in2="hardAlpha" operator="arithmetic" k2="-1" k3="1"/>
<feColorMatrix type="matrix" values="0 0 0 0 0 0 0 0 0 0 0 0 0 0 0 0 0 0 0.08 0"/>
<feBlend mode="normal" in2="shape" result="effect1_innerShadow_3881_62226"/>
</filter>
<linearGradient id="paint0_linear_3881_62226" x1="24.4813" y1="9.57983" x2="6.02109" y2="28.04" gradientUnits="userSpaceOnUse">
<stop stop-color="#00A0FF"/>
<stop offset="0.0066" stop-color="#00A1FF"/>
<stop offset="0.2601" stop-color="#00BEFF"/>
<stop offset="0.5122" stop-color="#00D2FF"/>
<stop offset="0.7604" stop-color="#00DFFF"/>
<stop offset="1" stop-color="#00E3FF"/>
</linearGradient>
<linearGradient id="paint1_linear_3881_62226" x1="37.7174" y1="22.001" x2="11.1019" y2="22.001" gradientUnits="userSpaceOnUse">
<stop stop-color="#FFE000"/>
<stop offset="0.4087" stop-color="#FFBD00"/>
<stop offset="0.7754" stop-color="#FFA500"/>
<stop offset="1" stop-color="#FF9C00"/>
</linearGradient>
<linearGradient id="paint2_linear_3881_62226" x1="27.8118" y1="24.5243" x2="2.77744" y2="49.5586" gradientUnits="userSpaceOnUse">
<stop stop-color="#FF3A44"/>
<stop offset="1" stop-color="#C31162"/>
</linearGradient>
<linearGradient id="paint3_linear_3881_62226" x1="8.52801" y1="0.194443" x2="19.7065" y2="11.373" gradientUnits="userSpaceOnUse">
<stop stop-color="#32A071"/>
<stop offset="0.0685" stop-color="#2DA771"/>
<stop offset="0.4762" stop-color="#15CF74"/>
<stop offset="0.8009" stop-color="#06E775"/>
<stop offset="1" stop-color="#00F076"/>
</linearGradient>
</defs>
</svg>
