<svg width="80" height="80" viewBox="0 0 80 80" fill="none" xmlns="http://www.w3.org/2000/svg">
<path d="M14.9531 20.6196C14.9531 17.972 16.6264 15.6136 19.1254 14.7389L37.8168 8.19695C39.1493 7.73056 40.6007 7.73056 41.9332 8.19695L60.6246 14.7389C63.1236 15.6136 64.7969 17.972 64.7969 20.6196V53.582C64.7969 57.023 62.0074 59.8125 58.5664 59.8125H21.1836C17.7426 59.8125 14.9531 57.023 14.9531 53.582V20.6196Z" fill="url(#paint0_linear_206_19928)"/>
<path d="M14.9531 20.6196C14.9531 17.972 16.6264 15.6136 19.1254 14.7389L37.8168 8.19695C39.1493 7.73056 40.6007 7.73056 41.9332 8.19695L60.6246 14.7389C63.1236 15.6136 64.7969 17.972 64.7969 20.6196V53.582C64.7969 57.023 62.0074 59.8125 58.5664 59.8125H21.1836C17.7426 59.8125 14.9531 57.023 14.9531 53.582V20.6196Z" fill="black" fill-opacity="0.2"/>
<circle cx="39.875" cy="17.4453" r="3.73828" fill="#D0BDF8"/>
<path d="M23.75 46.2383C23.75 44.1737 25.4237 42.5 27.4883 42.5H52.5117C54.5763 42.5 56.25 44.1737 56.25 46.2383V56.25C56.25 65.2246 48.9746 72.5 40 72.5C31.0254 72.5 23.75 65.2246 23.75 56.25V46.2383Z" fill="#D0BDF8"/>
<path fill-rule="evenodd" clip-rule="evenodd" d="M26.7773 65.6984L30.367 51.0175L32.4497 42.5H37.434L35.3514 51.0175L30.7968 69.6447C29.239 68.5724 27.8775 67.2353 26.7773 65.6984ZM35.2551 71.7964C34.4697 71.557 33.7096 71.2598 32.9797 70.9096L39.9262 42.5H42.4184L35.2551 71.7964Z" fill="white"/>
<path d="M47.5 37.5C47.5 35.5109 46.7098 33.6032 45.3033 32.1967C43.8968 30.7902 41.9891 30 40 30C38.0109 30 36.1032 30.7902 34.6967 32.1967C33.2902 33.6032 32.5 35.5109 32.5 37.5" stroke="#D0BDF8" stroke-width="3.73828" stroke-linecap="round"/>
<path fill-rule="evenodd" clip-rule="evenodd" d="M42.1218 57.5847C41.9926 57.0681 42.2224 56.5397 42.5887 56.1532C43.2237 55.4831 43.6133 54.5781 43.6133 53.582C43.6133 51.5174 41.9396 49.8438 39.875 49.8438C37.8104 49.8438 36.1367 51.5174 36.1367 53.582C36.1367 54.5781 36.5263 55.4831 37.1613 56.1532C37.5276 56.5397 37.7574 57.0681 37.6282 57.5847L36.5238 62.0025C36.3272 62.7889 36.922 63.5508 37.7327 63.5508H42.0173C42.828 63.5508 43.4228 62.7889 43.2262 62.0025L42.1218 57.5847Z" fill="url(#paint1_linear_206_19928)"/>
<path fill-rule="evenodd" clip-rule="evenodd" d="M42.1218 57.5847C41.9926 57.0681 42.2224 56.5397 42.5887 56.1532C43.2237 55.4831 43.6133 54.5781 43.6133 53.582C43.6133 51.5174 41.9396 49.8438 39.875 49.8438C37.8104 49.8438 36.1367 51.5174 36.1367 53.582C36.1367 54.5781 36.5263 55.4831 37.1613 56.1532C37.5276 56.5397 37.7574 57.0681 37.6282 57.5847L36.5238 62.0025C36.3272 62.7889 36.922 63.5508 37.7327 63.5508H42.0173C42.828 63.5508 43.4228 62.7889 43.2262 62.0025L42.1218 57.5847Z" fill="black" fill-opacity="0.2"/>
<defs>
<linearGradient id="paint0_linear_206_19928" x1="39.875" y1="7.47656" x2="39.875" y2="59.8125" gradientUnits="userSpaceOnUse">
<stop stop-color="#009900"/>
<stop offset="1" stop-color="#2FCE2F"/>
</linearGradient>
<linearGradient id="paint1_linear_206_19928" x1="39.875" y1="49.8438" x2="39.875" y2="63.5508" gradientUnits="userSpaceOnUse">
<stop stop-color="#009900"/>
<stop offset="1" stop-color="#2FCE2F"/>
</linearGradient>
</defs>
</svg>
