<svg width="34" height="34" viewBox="0 0 34 34" fill="none" xmlns="http://www.w3.org/2000/svg">
<path d="M14.6673 24.6673L26.4173 12.9173L24.084 10.584L14.6673 20.0007L9.91732 15.2507L7.58398 17.584L14.6673 24.6673ZM17.0007 33.6673C14.6951 33.6673 12.5284 33.2298 10.5007 32.3548C8.47287 31.4798 6.70898 30.2923 5.20898 28.7923C3.70898 27.2923 2.52148 25.5284 1.64648 23.5007C0.771484 21.4729 0.333984 19.3062 0.333984 17.0007C0.333984 14.6951 0.771484 12.5284 1.64648 10.5007C2.52148 8.47287 3.70898 6.70898 5.20898 5.20898C6.70898 3.70898 8.47287 2.52148 10.5007 1.64648C12.5284 0.771484 14.6951 0.333984 17.0007 0.333984C19.3062 0.333984 21.4729 0.771484 23.5007 1.64648C25.5284 2.52148 27.2923 3.70898 28.7923 5.20898C30.2923 6.70898 31.4798 8.47287 32.3548 10.5007C33.2298 12.5284 33.6673 14.6951 33.6673 17.0007C33.6673 19.3062 33.2298 21.4729 32.3548 23.5007C31.4798 25.5284 30.2923 27.2923 28.7923 28.7923C27.2923 30.2923 25.5284 31.4798 23.5007 32.3548C21.4729 33.2298 19.3062 33.6673 17.0007 33.6673Z" fill="url(#paint0_linear_4004_64952)"/>
<path d="M14.6673 24.6673L26.4173 12.9173L24.084 10.584L14.6673 20.0007L9.91732 15.2507L7.58398 17.584L14.6673 24.6673ZM17.0007 33.6673C14.6951 33.6673 12.5284 33.2298 10.5007 32.3548C8.47287 31.4798 6.70898 30.2923 5.20898 28.7923C3.70898 27.2923 2.52148 25.5284 1.64648 23.5007C0.771484 21.4729 0.333984 19.3062 0.333984 17.0007C0.333984 14.6951 0.771484 12.5284 1.64648 10.5007C2.52148 8.47287 3.70898 6.70898 5.20898 5.20898C6.70898 3.70898 8.47287 2.52148 10.5007 1.64648C12.5284 0.771484 14.6951 0.333984 17.0007 0.333984C19.3062 0.333984 21.4729 0.771484 23.5007 1.64648C25.5284 2.52148 27.2923 3.70898 28.7923 5.20898C30.2923 6.70898 31.4798 8.47287 32.3548 10.5007C33.2298 12.5284 33.6673 14.6951 33.6673 17.0007C33.6673 19.3062 33.2298 21.4729 32.3548 23.5007C31.4798 25.5284 30.2923 27.2923 28.7923 28.7923C27.2923 30.2923 25.5284 31.4798 23.5007 32.3548C21.4729 33.2298 19.3062 33.6673 17.0007 33.6673Z" fill="black" fill-opacity="0.2"/>
<defs>
<linearGradient id="paint0_linear_4004_64952" x1="17.0007" y1="0.333984" x2="17.0007" y2="33.6673" gradientUnits="userSpaceOnUse">
<stop stop-color="#009900"/>
<stop offset="1" stop-color="#2FCE2F"/>
</linearGradient>
</defs>
</svg>
