<svg width="33" height="32" viewBox="0 0 33 32" fill="none" xmlns="http://www.w3.org/2000/svg">
<circle cx="16.5" cy="16" r="16" fill="url(#paint0_linear_4038_69798)"/>
<circle cx="16.5" cy="16" r="16" fill="black" fill-opacity="0.2"/>
<path d="M17.4987 22.6667C21.1806 22.6667 24.1654 19.6819 24.1654 16C24.1654 12.3181 21.1806 9.33337 17.4987 9.33337C13.8168 9.33337 10.832 12.3181 10.832 16C10.832 19.6819 13.8168 22.6667 17.4987 22.6667Z" stroke="white" stroke-width="1.5" stroke-linecap="round" stroke-linejoin="round"/>
<path d="M14.8318 10H15.4984C14.1984 13.8933 14.1984 18.1067 15.4984 22H14.8318" stroke="white" stroke-width="1.5" stroke-linecap="round" stroke-linejoin="round"/>
<path d="M19.5 10C20.8 13.8933 20.8 18.1067 19.5 22" stroke="white" stroke-width="1.5" stroke-linecap="round" stroke-linejoin="round"/>
<path d="M11.5 18.6667V18C15.3933 19.3 19.6067 19.3 23.5 18V18.6667" stroke="white" stroke-width="1.5" stroke-linecap="round" stroke-linejoin="round"/>
<path d="M11.5 14C15.3933 12.7 19.6067 12.7 23.5 14" stroke="white" stroke-width="1.5" stroke-linecap="round" stroke-linejoin="round"/>
<defs>
<linearGradient id="paint0_linear_4038_69798" x1="16.5" y1="0" x2="16.5" y2="32" gradientUnits="userSpaceOnUse">
<stop stop-color="#009900"/>
<stop offset="1" stop-color="#2FCE2F"/>
</linearGradient>
</defs>
</svg>
