<svg width="40" height="40" viewBox="0 0 40 40" fill="none" xmlns="http://www.w3.org/2000/svg">
<rect width="40" height="40" rx="20" fill="#009900" fill-opacity="0.1"/>
<path d="M25.3922 24.0249L25.7172 26.6582C25.8005 27.3498 25.0589 27.8331 24.4672 27.4748L20.9755 25.3998C20.5922 25.3998 20.2172 25.3748 19.8505 25.3248C20.4672 24.5998 20.8339 23.6832 20.8339 22.6915C20.8339 20.3248 18.7839 18.4082 16.2505 18.4082C15.2839 18.4082 14.3922 18.6832 13.6505 19.1665C13.6255 18.9582 13.6172 18.7498 13.6172 18.5332C13.6172 14.7415 16.9089 11.6665 20.9755 11.6665C25.0422 11.6665 28.3339 14.7415 28.3339 18.5332C28.3339 20.7832 27.1755 22.7749 25.3922 24.0249Z" stroke="url(#paint0_linear_3432_63481)" stroke-width="1.5" stroke-linecap="round" stroke-linejoin="round"/>
<path d="M25.3922 24.0249L25.7172 26.6582C25.8005 27.3498 25.0589 27.8331 24.4672 27.4748L20.9755 25.3998C20.5922 25.3998 20.2172 25.3748 19.8505 25.3248C20.4672 24.5998 20.8339 23.6832 20.8339 22.6915C20.8339 20.3248 18.7839 18.4082 16.2505 18.4082C15.2839 18.4082 14.3922 18.6832 13.6505 19.1665C13.6255 18.9582 13.6172 18.7498 13.6172 18.5332C13.6172 14.7415 16.9089 11.6665 20.9755 11.6665C25.0422 11.6665 28.3339 14.7415 28.3339 18.5332C28.3339 20.7832 27.1755 22.7749 25.3922 24.0249Z" stroke="black" stroke-opacity="0.2" stroke-width="1.5" stroke-linecap="round" stroke-linejoin="round"/>
<path d="M20.8327 22.6915C20.8327 23.6832 20.466 24.5999 19.8494 25.3249C19.0244 26.3249 17.716 26.9665 16.2493 26.9665L14.0743 28.2582C13.7077 28.4832 13.241 28.1748 13.291 27.7498L13.4993 26.1082C12.3827 25.3332 11.666 24.0915 11.666 22.6915C11.666 21.2248 12.4494 19.9332 13.6494 19.1665C14.391 18.6832 15.2827 18.4082 16.2493 18.4082C18.7827 18.4082 20.8327 20.3248 20.8327 22.6915Z" stroke="url(#paint1_linear_3432_63481)" stroke-width="1.5" stroke-linecap="round" stroke-linejoin="round"/>
<path d="M20.8327 22.6915C20.8327 23.6832 20.466 24.5999 19.8494 25.3249C19.0244 26.3249 17.716 26.9665 16.2493 26.9665L14.0743 28.2582C13.7077 28.4832 13.241 28.1748 13.291 27.7498L13.4993 26.1082C12.3827 25.3332 11.666 24.0915 11.666 22.6915C11.666 21.2248 12.4494 19.9332 13.6494 19.1665C14.391 18.6832 15.2827 18.4082 16.2493 18.4082C18.7827 18.4082 20.8327 20.3248 20.8327 22.6915Z" stroke="black" stroke-opacity="0.2" stroke-width="1.5" stroke-linecap="round" stroke-linejoin="round"/>
<defs>
<linearGradient id="paint0_linear_3432_63481" x1="20.9755" y1="11.6665" x2="20.9755" y2="27.5962" gradientUnits="userSpaceOnUse">
<stop stop-color="#009900"/>
<stop offset="1" stop-color="#2FCE2F"/>
</linearGradient>
<linearGradient id="paint1_linear_3432_63481" x1="16.2493" y1="18.4082" x2="16.2493" y2="28.3338" gradientUnits="userSpaceOnUse">
<stop stop-color="#009900"/>
<stop offset="1" stop-color="#2FCE2F"/>
</linearGradient>
</defs>
</svg>
