<svg width="40" height="40" viewBox="0 0 40 40" fill="none" xmlns="http://www.w3.org/2000/svg">
<rect width="40" height="40" rx="8" fill="#009900" fill-opacity="0.1"/>
<path d="M19.9984 21.4089C18.4437 21.4089 17.1734 20.1456 17.1734 18.5839C17.1734 17.0235 18.4423 15.7672 19.9984 15.7672C21.5532 15.7672 22.8234 17.0304 22.8234 18.5922C22.8234 20.1526 21.5545 21.4089 19.9984 21.4089ZM19.9984 16.2172C18.6953 16.2172 17.6234 17.2785 17.6234 18.5922C17.6234 19.9048 18.6859 20.9672 19.9984 20.9672C21.311 20.9672 22.3734 19.9048 22.3734 18.5922C22.3734 17.2785 21.3016 16.2172 19.9984 16.2172Z" fill="url(#paint0_linear_1060_150624)"/>
<path d="M19.9984 21.4089C18.4437 21.4089 17.1734 20.1456 17.1734 18.5839C17.1734 17.0235 18.4423 15.7672 19.9984 15.7672C21.5532 15.7672 22.8234 17.0304 22.8234 18.5922C22.8234 20.1526 21.5545 21.4089 19.9984 21.4089ZM19.9984 16.2172C18.6953 16.2172 17.6234 17.2785 17.6234 18.5922C17.6234 19.9048 18.6859 20.9672 19.9984 20.9672C21.311 20.9672 22.3734 19.9048 22.3734 18.5922C22.3734 17.2785 21.3016 16.2172 19.9984 16.2172Z" fill="black" fill-opacity="0.2"/>
<path d="M19.9984 21.4089C18.4437 21.4089 17.1734 20.1456 17.1734 18.5839C17.1734 17.0235 18.4423 15.7672 19.9984 15.7672C21.5532 15.7672 22.8234 17.0304 22.8234 18.5922C22.8234 20.1526 21.5545 21.4089 19.9984 21.4089ZM19.9984 16.2172C18.6953 16.2172 17.6234 17.2785 17.6234 18.5922C17.6234 19.9048 18.6859 20.9672 19.9984 20.9672C21.311 20.9672 22.3734 19.9048 22.3734 18.5922C22.3734 17.2785 21.3016 16.2172 19.9984 16.2172Z" stroke="url(#paint1_linear_1060_150624)" stroke-width="0.8"/>
<path d="M19.9984 21.4089C18.4437 21.4089 17.1734 20.1456 17.1734 18.5839C17.1734 17.0235 18.4423 15.7672 19.9984 15.7672C21.5532 15.7672 22.8234 17.0304 22.8234 18.5922C22.8234 20.1526 21.5545 21.4089 19.9984 21.4089ZM19.9984 16.2172C18.6953 16.2172 17.6234 17.2785 17.6234 18.5922C17.6234 19.9048 18.6859 20.9672 19.9984 20.9672C21.311 20.9672 22.3734 19.9048 22.3734 18.5922C22.3734 17.2785 21.3016 16.2172 19.9984 16.2172Z" stroke="black" stroke-opacity="0.2" stroke-width="0.8"/>
<path d="M12.7997 17.032L12.7998 17.0315C13.6736 13.1819 17.0316 11.443 20.0014 11.443H20.0014H20.0014H20.0014H20.0014H20.0014H20.0014H20.0014H20.0014H20.0014H20.0014H20.0014H20.0014H20.0014H20.0014H20.0014H20.0014H20.0014H20.0014H20.0014H20.0015H20.0015H20.0015H20.0015H20.0015H20.0015H20.0015H20.0015H20.0015H20.0015H20.0015H20.0015H20.0015H20.0015H20.0015H20.0015H20.0015H20.0015H20.0015H20.0016H20.0016H20.0016H20.0016H20.0016H20.0016H20.0016H20.0016H20.0016H20.0016H20.0016H20.0016H20.0016H20.0016H20.0016H20.0016H20.0016H20.0016H20.0016H20.0016H20.0016H20.0016H20.0017H20.0017H20.0017H20.0017H20.0017H20.0017H20.0017H20.0017H20.0017H20.0017H20.0017H20.0017H20.0017H20.0017H20.0017H20.0017H20.0017H20.0017H20.0018H20.0018H20.0018H20.0018H20.0018H20.0018H20.0018H20.0018H20.0018H20.0018H20.0018H20.0018H20.0018H20.0018H20.0018H20.0019H20.0019H20.0019H20.0019H20.0019H20.0019H20.0019H20.0019H20.0019H20.0019H20.0019H20.0019H20.002H20.002H20.002H20.002H20.002H20.002H20.002H20.002H20.002H20.002H20.002H20.002H20.0021H20.0021H20.0021H20.0021H20.0021H20.0021H20.0021H20.0021H20.0021H20.0021H20.0022H20.0022H20.0022H20.0022H20.0022H20.0022H20.0022H20.0022H20.0022H20.0022H20.0023H20.0023H20.0023H20.0023H20.0023H20.0023H20.0023H20.0023H20.0023H20.0024H20.0024H20.0024H20.0024H20.0024H20.0024H20.0024H20.0024H20.0025H20.0025H20.0025H20.0025H20.0025H20.0025H20.0025H20.0025H20.0026H20.0026H20.0026H20.0026H20.0026H20.0026H20.0026H20.0027H20.0027H20.0027H20.0027H20.0027H20.0027H20.0027H20.0028H20.0028H20.0028H20.0028H20.0028H20.0028H20.0029H20.0029H20.0029H20.0029H20.0029H20.0029H20.0029H20.003H20.003H20.003H20.003H20.003H20.003H20.0031H20.0031H20.0031H20.0031H20.0031H20.0031H20.0032H20.0032H20.0032H20.0032H20.0032H20.0033H20.0033H20.0033H20.0033H20.0033H20.0033H20.0034H20.0034H20.0034H20.0034H20.0034H20.0035H20.0035H20.0035H20.0035H20.0035H20.0036H20.0036H20.0036H20.0036H20.0036H20.0037H20.0037H20.0037H20.0037H20.0037H20.0038H20.0038H20.0038H20.0038H20.0039H20.0039H20.0039H20.0039H20.0039H20.004H20.004H20.004H20.004H20.0041H20.0041H20.0041H20.0041H20.0041H20.0042H20.0042H20.0042H20.0042H20.0043H20.0043H20.0043H20.0043H20.0044H20.0044H20.0044H20.0044H20.0045H20.0045H20.0045H20.0045H20.0046H20.0046H20.0046H20.0046H20.0047H20.0047H20.0047H20.0047H20.0048H20.0048H20.0048H20.0049H20.0049H20.0049H20.0049H20.005H20.005H20.005H20.0051H20.0051H20.0051H20.0051H20.0052H20.0052H20.0052H20.0053H20.0053H20.0053H20.0053H20.0054H20.0054H20.0054H20.0055H20.0055H20.0055H20.0056H20.0056H20.0056H20.0056H20.0057H20.0057H20.0057H20.0058H20.0058H20.0058H20.0059H20.0059H20.0059H20.006H20.006H20.006H20.0061H20.0061H20.0061H20.0062H20.0062H20.0062H20.0063H20.0063H20.0063H20.0064H20.0064H20.0064H20.0065H20.0065H20.0065H20.0066H20.0066H20.0067H20.0067H20.0067H20.0068H20.0068H20.0068H20.0069H20.0069H20.007H20.007H20.007H20.0071H20.0071H20.0071H20.0072H20.0072H20.0073H20.0073H20.0073H20.0074H20.0074H20.0075H20.0075H20.0075H20.0076H20.0076H20.0077H20.0077H20.0077H20.0078H20.0078H20.0079H20.0079H20.0079H20.008H20.008H20.0081H20.0081H20.0081H20.0082H20.0082H20.0083H20.0083H20.0084H20.0084H20.0085H20.0085H20.0085H20.0086H20.0086H20.0087H20.0087H20.0088H20.0088H20.0089H20.0089H20.0089H20.009H20.009H20.0091H20.0091H20.0092H20.0092H20.0093H20.0093H20.0094H20.0094H20.0095H20.0095H20.0096H20.0096H20.0097H20.0097C22.9792 11.443 26.3373 13.1817 27.2113 17.0397C28.1789 21.315 25.6008 24.9436 23.1662 27.2876C22.2756 28.1396 21.1338 28.568 20.0014 28.568C18.8689 28.568 17.7271 28.1396 16.8365 27.2876C14.4021 24.9437 11.8241 21.3071 12.7997 17.032ZM26.7749 17.1301L26.7746 17.1285C25.8861 13.255 22.5453 11.893 20.0014 11.893C17.4571 11.893 14.1245 13.2553 13.2447 17.129C12.2945 21.274 14.9053 24.7965 17.1574 26.9563C18.754 28.4969 21.2573 28.4969 22.8538 26.9562C25.0975 24.7965 27.7076 21.2745 26.7749 17.1301Z" fill="url(#paint2_linear_1060_150624)"/>
<path d="M12.7997 17.032L12.7998 17.0315C13.6736 13.1819 17.0316 11.443 20.0014 11.443H20.0014H20.0014H20.0014H20.0014H20.0014H20.0014H20.0014H20.0014H20.0014H20.0014H20.0014H20.0014H20.0014H20.0014H20.0014H20.0014H20.0014H20.0014H20.0014H20.0015H20.0015H20.0015H20.0015H20.0015H20.0015H20.0015H20.0015H20.0015H20.0015H20.0015H20.0015H20.0015H20.0015H20.0015H20.0015H20.0015H20.0015H20.0015H20.0016H20.0016H20.0016H20.0016H20.0016H20.0016H20.0016H20.0016H20.0016H20.0016H20.0016H20.0016H20.0016H20.0016H20.0016H20.0016H20.0016H20.0016H20.0016H20.0016H20.0016H20.0016H20.0017H20.0017H20.0017H20.0017H20.0017H20.0017H20.0017H20.0017H20.0017H20.0017H20.0017H20.0017H20.0017H20.0017H20.0017H20.0017H20.0017H20.0017H20.0018H20.0018H20.0018H20.0018H20.0018H20.0018H20.0018H20.0018H20.0018H20.0018H20.0018H20.0018H20.0018H20.0018H20.0018H20.0019H20.0019H20.0019H20.0019H20.0019H20.0019H20.0019H20.0019H20.0019H20.0019H20.0019H20.0019H20.002H20.002H20.002H20.002H20.002H20.002H20.002H20.002H20.002H20.002H20.002H20.002H20.0021H20.0021H20.0021H20.0021H20.0021H20.0021H20.0021H20.0021H20.0021H20.0021H20.0022H20.0022H20.0022H20.0022H20.0022H20.0022H20.0022H20.0022H20.0022H20.0022H20.0023H20.0023H20.0023H20.0023H20.0023H20.0023H20.0023H20.0023H20.0023H20.0024H20.0024H20.0024H20.0024H20.0024H20.0024H20.0024H20.0024H20.0025H20.0025H20.0025H20.0025H20.0025H20.0025H20.0025H20.0025H20.0026H20.0026H20.0026H20.0026H20.0026H20.0026H20.0026H20.0027H20.0027H20.0027H20.0027H20.0027H20.0027H20.0027H20.0028H20.0028H20.0028H20.0028H20.0028H20.0028H20.0029H20.0029H20.0029H20.0029H20.0029H20.0029H20.0029H20.003H20.003H20.003H20.003H20.003H20.003H20.0031H20.0031H20.0031H20.0031H20.0031H20.0031H20.0032H20.0032H20.0032H20.0032H20.0032H20.0033H20.0033H20.0033H20.0033H20.0033H20.0033H20.0034H20.0034H20.0034H20.0034H20.0034H20.0035H20.0035H20.0035H20.0035H20.0035H20.0036H20.0036H20.0036H20.0036H20.0036H20.0037H20.0037H20.0037H20.0037H20.0037H20.0038H20.0038H20.0038H20.0038H20.0039H20.0039H20.0039H20.0039H20.0039H20.004H20.004H20.004H20.004H20.0041H20.0041H20.0041H20.0041H20.0041H20.0042H20.0042H20.0042H20.0042H20.0043H20.0043H20.0043H20.0043H20.0044H20.0044H20.0044H20.0044H20.0045H20.0045H20.0045H20.0045H20.0046H20.0046H20.0046H20.0046H20.0047H20.0047H20.0047H20.0047H20.0048H20.0048H20.0048H20.0049H20.0049H20.0049H20.0049H20.005H20.005H20.005H20.0051H20.0051H20.0051H20.0051H20.0052H20.0052H20.0052H20.0053H20.0053H20.0053H20.0053H20.0054H20.0054H20.0054H20.0055H20.0055H20.0055H20.0056H20.0056H20.0056H20.0056H20.0057H20.0057H20.0057H20.0058H20.0058H20.0058H20.0059H20.0059H20.0059H20.006H20.006H20.006H20.0061H20.0061H20.0061H20.0062H20.0062H20.0062H20.0063H20.0063H20.0063H20.0064H20.0064H20.0064H20.0065H20.0065H20.0065H20.0066H20.0066H20.0067H20.0067H20.0067H20.0068H20.0068H20.0068H20.0069H20.0069H20.007H20.007H20.007H20.0071H20.0071H20.0071H20.0072H20.0072H20.0073H20.0073H20.0073H20.0074H20.0074H20.0075H20.0075H20.0075H20.0076H20.0076H20.0077H20.0077H20.0077H20.0078H20.0078H20.0079H20.0079H20.0079H20.008H20.008H20.0081H20.0081H20.0081H20.0082H20.0082H20.0083H20.0083H20.0084H20.0084H20.0085H20.0085H20.0085H20.0086H20.0086H20.0087H20.0087H20.0088H20.0088H20.0089H20.0089H20.0089H20.009H20.009H20.0091H20.0091H20.0092H20.0092H20.0093H20.0093H20.0094H20.0094H20.0095H20.0095H20.0096H20.0096H20.0097H20.0097C22.9792 11.443 26.3373 13.1817 27.2113 17.0397C28.1789 21.315 25.6008 24.9436 23.1662 27.2876C22.2756 28.1396 21.1338 28.568 20.0014 28.568C18.8689 28.568 17.7271 28.1396 16.8365 27.2876C14.4021 24.9437 11.8241 21.3071 12.7997 17.032ZM26.7749 17.1301L26.7746 17.1285C25.8861 13.255 22.5453 11.893 20.0014 11.893C17.4571 11.893 14.1245 13.2553 13.2447 17.129C12.2945 21.274 14.9053 24.7965 17.1574 26.9563C18.754 28.4969 21.2573 28.4969 22.8538 26.9562C25.0975 24.7965 27.7076 21.2745 26.7749 17.1301Z" fill="black" fill-opacity="0.2"/>
<path d="M12.7997 17.032L12.7998 17.0315C13.6736 13.1819 17.0316 11.443 20.0014 11.443H20.0014H20.0014H20.0014H20.0014H20.0014H20.0014H20.0014H20.0014H20.0014H20.0014H20.0014H20.0014H20.0014H20.0014H20.0014H20.0014H20.0014H20.0014H20.0014H20.0015H20.0015H20.0015H20.0015H20.0015H20.0015H20.0015H20.0015H20.0015H20.0015H20.0015H20.0015H20.0015H20.0015H20.0015H20.0015H20.0015H20.0015H20.0015H20.0016H20.0016H20.0016H20.0016H20.0016H20.0016H20.0016H20.0016H20.0016H20.0016H20.0016H20.0016H20.0016H20.0016H20.0016H20.0016H20.0016H20.0016H20.0016H20.0016H20.0016H20.0016H20.0017H20.0017H20.0017H20.0017H20.0017H20.0017H20.0017H20.0017H20.0017H20.0017H20.0017H20.0017H20.0017H20.0017H20.0017H20.0017H20.0017H20.0017H20.0018H20.0018H20.0018H20.0018H20.0018H20.0018H20.0018H20.0018H20.0018H20.0018H20.0018H20.0018H20.0018H20.0018H20.0018H20.0019H20.0019H20.0019H20.0019H20.0019H20.0019H20.0019H20.0019H20.0019H20.0019H20.0019H20.0019H20.002H20.002H20.002H20.002H20.002H20.002H20.002H20.002H20.002H20.002H20.002H20.002H20.0021H20.0021H20.0021H20.0021H20.0021H20.0021H20.0021H20.0021H20.0021H20.0021H20.0022H20.0022H20.0022H20.0022H20.0022H20.0022H20.0022H20.0022H20.0022H20.0022H20.0023H20.0023H20.0023H20.0023H20.0023H20.0023H20.0023H20.0023H20.0023H20.0024H20.0024H20.0024H20.0024H20.0024H20.0024H20.0024H20.0024H20.0025H20.0025H20.0025H20.0025H20.0025H20.0025H20.0025H20.0025H20.0026H20.0026H20.0026H20.0026H20.0026H20.0026H20.0026H20.0027H20.0027H20.0027H20.0027H20.0027H20.0027H20.0027H20.0028H20.0028H20.0028H20.0028H20.0028H20.0028H20.0029H20.0029H20.0029H20.0029H20.0029H20.0029H20.0029H20.003H20.003H20.003H20.003H20.003H20.003H20.0031H20.0031H20.0031H20.0031H20.0031H20.0031H20.0032H20.0032H20.0032H20.0032H20.0032H20.0033H20.0033H20.0033H20.0033H20.0033H20.0033H20.0034H20.0034H20.0034H20.0034H20.0034H20.0035H20.0035H20.0035H20.0035H20.0035H20.0036H20.0036H20.0036H20.0036H20.0036H20.0037H20.0037H20.0037H20.0037H20.0037H20.0038H20.0038H20.0038H20.0038H20.0039H20.0039H20.0039H20.0039H20.0039H20.004H20.004H20.004H20.004H20.0041H20.0041H20.0041H20.0041H20.0041H20.0042H20.0042H20.0042H20.0042H20.0043H20.0043H20.0043H20.0043H20.0044H20.0044H20.0044H20.0044H20.0045H20.0045H20.0045H20.0045H20.0046H20.0046H20.0046H20.0046H20.0047H20.0047H20.0047H20.0047H20.0048H20.0048H20.0048H20.0049H20.0049H20.0049H20.0049H20.005H20.005H20.005H20.0051H20.0051H20.0051H20.0051H20.0052H20.0052H20.0052H20.0053H20.0053H20.0053H20.0053H20.0054H20.0054H20.0054H20.0055H20.0055H20.0055H20.0056H20.0056H20.0056H20.0056H20.0057H20.0057H20.0057H20.0058H20.0058H20.0058H20.0059H20.0059H20.0059H20.006H20.006H20.006H20.0061H20.0061H20.0061H20.0062H20.0062H20.0062H20.0063H20.0063H20.0063H20.0064H20.0064H20.0064H20.0065H20.0065H20.0065H20.0066H20.0066H20.0067H20.0067H20.0067H20.0068H20.0068H20.0068H20.0069H20.0069H20.007H20.007H20.007H20.0071H20.0071H20.0071H20.0072H20.0072H20.0073H20.0073H20.0073H20.0074H20.0074H20.0075H20.0075H20.0075H20.0076H20.0076H20.0077H20.0077H20.0077H20.0078H20.0078H20.0079H20.0079H20.0079H20.008H20.008H20.0081H20.0081H20.0081H20.0082H20.0082H20.0083H20.0083H20.0084H20.0084H20.0085H20.0085H20.0085H20.0086H20.0086H20.0087H20.0087H20.0088H20.0088H20.0089H20.0089H20.0089H20.009H20.009H20.0091H20.0091H20.0092H20.0092H20.0093H20.0093H20.0094H20.0094H20.0095H20.0095H20.0096H20.0096H20.0097H20.0097C22.9792 11.443 26.3373 13.1817 27.2113 17.0397C28.1789 21.315 25.6008 24.9436 23.1662 27.2876C22.2756 28.1396 21.1338 28.568 20.0014 28.568C18.8689 28.568 17.7271 28.1396 16.8365 27.2876C14.4021 24.9437 11.8241 21.3071 12.7997 17.032ZM26.7749 17.1301L26.7746 17.1285C25.8861 13.255 22.5453 11.893 20.0014 11.893C17.4571 11.893 14.1245 13.2553 13.2447 17.129C12.2945 21.274 14.9053 24.7965 17.1574 26.9563C18.754 28.4969 21.2573 28.4969 22.8538 26.9562C25.0975 24.7965 27.7076 21.2745 26.7749 17.1301Z" stroke="url(#paint3_linear_1060_150624)" stroke-width="0.8"/>
<path d="M12.7997 17.032L12.7998 17.0315C13.6736 13.1819 17.0316 11.443 20.0014 11.443H20.0014H20.0014H20.0014H20.0014H20.0014H20.0014H20.0014H20.0014H20.0014H20.0014H20.0014H20.0014H20.0014H20.0014H20.0014H20.0014H20.0014H20.0014H20.0014H20.0015H20.0015H20.0015H20.0015H20.0015H20.0015H20.0015H20.0015H20.0015H20.0015H20.0015H20.0015H20.0015H20.0015H20.0015H20.0015H20.0015H20.0015H20.0015H20.0016H20.0016H20.0016H20.0016H20.0016H20.0016H20.0016H20.0016H20.0016H20.0016H20.0016H20.0016H20.0016H20.0016H20.0016H20.0016H20.0016H20.0016H20.0016H20.0016H20.0016H20.0016H20.0017H20.0017H20.0017H20.0017H20.0017H20.0017H20.0017H20.0017H20.0017H20.0017H20.0017H20.0017H20.0017H20.0017H20.0017H20.0017H20.0017H20.0017H20.0018H20.0018H20.0018H20.0018H20.0018H20.0018H20.0018H20.0018H20.0018H20.0018H20.0018H20.0018H20.0018H20.0018H20.0018H20.0019H20.0019H20.0019H20.0019H20.0019H20.0019H20.0019H20.0019H20.0019H20.0019H20.0019H20.0019H20.002H20.002H20.002H20.002H20.002H20.002H20.002H20.002H20.002H20.002H20.002H20.002H20.0021H20.0021H20.0021H20.0021H20.0021H20.0021H20.0021H20.0021H20.0021H20.0021H20.0022H20.0022H20.0022H20.0022H20.0022H20.0022H20.0022H20.0022H20.0022H20.0022H20.0023H20.0023H20.0023H20.0023H20.0023H20.0023H20.0023H20.0023H20.0023H20.0024H20.0024H20.0024H20.0024H20.0024H20.0024H20.0024H20.0024H20.0025H20.0025H20.0025H20.0025H20.0025H20.0025H20.0025H20.0025H20.0026H20.0026H20.0026H20.0026H20.0026H20.0026H20.0026H20.0027H20.0027H20.0027H20.0027H20.0027H20.0027H20.0027H20.0028H20.0028H20.0028H20.0028H20.0028H20.0028H20.0029H20.0029H20.0029H20.0029H20.0029H20.0029H20.0029H20.003H20.003H20.003H20.003H20.003H20.003H20.0031H20.0031H20.0031H20.0031H20.0031H20.0031H20.0032H20.0032H20.0032H20.0032H20.0032H20.0033H20.0033H20.0033H20.0033H20.0033H20.0033H20.0034H20.0034H20.0034H20.0034H20.0034H20.0035H20.0035H20.0035H20.0035H20.0035H20.0036H20.0036H20.0036H20.0036H20.0036H20.0037H20.0037H20.0037H20.0037H20.0037H20.0038H20.0038H20.0038H20.0038H20.0039H20.0039H20.0039H20.0039H20.0039H20.004H20.004H20.004H20.004H20.0041H20.0041H20.0041H20.0041H20.0041H20.0042H20.0042H20.0042H20.0042H20.0043H20.0043H20.0043H20.0043H20.0044H20.0044H20.0044H20.0044H20.0045H20.0045H20.0045H20.0045H20.0046H20.0046H20.0046H20.0046H20.0047H20.0047H20.0047H20.0047H20.0048H20.0048H20.0048H20.0049H20.0049H20.0049H20.0049H20.005H20.005H20.005H20.0051H20.0051H20.0051H20.0051H20.0052H20.0052H20.0052H20.0053H20.0053H20.0053H20.0053H20.0054H20.0054H20.0054H20.0055H20.0055H20.0055H20.0056H20.0056H20.0056H20.0056H20.0057H20.0057H20.0057H20.0058H20.0058H20.0058H20.0059H20.0059H20.0059H20.006H20.006H20.006H20.0061H20.0061H20.0061H20.0062H20.0062H20.0062H20.0063H20.0063H20.0063H20.0064H20.0064H20.0064H20.0065H20.0065H20.0065H20.0066H20.0066H20.0067H20.0067H20.0067H20.0068H20.0068H20.0068H20.0069H20.0069H20.007H20.007H20.007H20.0071H20.0071H20.0071H20.0072H20.0072H20.0073H20.0073H20.0073H20.0074H20.0074H20.0075H20.0075H20.0075H20.0076H20.0076H20.0077H20.0077H20.0077H20.0078H20.0078H20.0079H20.0079H20.0079H20.008H20.008H20.0081H20.0081H20.0081H20.0082H20.0082H20.0083H20.0083H20.0084H20.0084H20.0085H20.0085H20.0085H20.0086H20.0086H20.0087H20.0087H20.0088H20.0088H20.0089H20.0089H20.0089H20.009H20.009H20.0091H20.0091H20.0092H20.0092H20.0093H20.0093H20.0094H20.0094H20.0095H20.0095H20.0096H20.0096H20.0097H20.0097C22.9792 11.443 26.3373 13.1817 27.2113 17.0397C28.1789 21.315 25.6008 24.9436 23.1662 27.2876C22.2756 28.1396 21.1338 28.568 20.0014 28.568C18.8689 28.568 17.7271 28.1396 16.8365 27.2876C14.4021 24.9437 11.8241 21.3071 12.7997 17.032ZM26.7749 17.1301L26.7746 17.1285C25.8861 13.255 22.5453 11.893 20.0014 11.893C17.4571 11.893 14.1245 13.2553 13.2447 17.129C12.2945 21.274 14.9053 24.7965 17.1574 26.9563C18.754 28.4969 21.2573 28.4969 22.8538 26.9562C25.0975 24.7965 27.7076 21.2745 26.7749 17.1301Z" stroke="black" stroke-opacity="0.2" stroke-width="0.8"/>
<defs>
<linearGradient id="paint0_linear_1060_150624" x1="19.9984" y1="15.3672" x2="19.9984" y2="21.8089" gradientUnits="userSpaceOnUse">
<stop stop-color="#009900"/>
<stop offset="1" stop-color="#2FCE2F"/>
</linearGradient>
<linearGradient id="paint1_linear_1060_150624" x1="19.9984" y1="15.3672" x2="19.9984" y2="21.8089" gradientUnits="userSpaceOnUse">
<stop stop-color="#009900"/>
<stop offset="1" stop-color="#2FCE2F"/>
</linearGradient>
<linearGradient id="paint2_linear_1060_150624" x1="20.0039" y1="11.043" x2="20.0039" y2="28.968" gradientUnits="userSpaceOnUse">
<stop stop-color="#009900"/>
<stop offset="1" stop-color="#2FCE2F"/>
</linearGradient>
<linearGradient id="paint3_linear_1060_150624" x1="20.0039" y1="11.043" x2="20.0039" y2="28.968" gradientUnits="userSpaceOnUse">
<stop stop-color="#009900"/>
<stop offset="1" stop-color="#2FCE2F"/>
</linearGradient>
</defs>
</svg>
