<svg width="50" height="51" viewBox="0 0 50 51" fill="none" xmlns="http://www.w3.org/2000/svg">
<circle cx="25" cy="25.5" r="25" fill="#D68910" fill-opacity="0.1"/>
<path d="M20.8342 35.9167H29.1675C33.355 35.9167 34.105 34.2396 34.3238 32.1979L35.105 23.8646C35.3863 21.3229 34.6571 19.25 30.2092 19.25H19.7925C15.3446 19.25 14.6154 21.3229 14.8967 23.8646L15.6779 32.1979C15.8967 34.2396 16.6467 35.9167 20.8342 35.9167Z" stroke="#D68910" stroke-width="1.2" stroke-miterlimit="10" stroke-linecap="round" stroke-linejoin="round"/>
<path d="M20.8359 19.2507V18.4173C20.8359 16.5736 20.8359 15.084 24.1693 15.084H25.8359C29.1693 15.084 29.1693 16.5736 29.1693 18.4173V19.2507" stroke="#D68910" stroke-width="1.2" stroke-miterlimit="10" stroke-linecap="round" stroke-linejoin="round"/>
<path d="M27.0807 26.5417V27.5833C27.0807 27.5938 27.0807 27.5938 27.0807 27.6042C27.0807 28.7396 27.0703 29.6667 24.9974 29.6667C22.9349 29.6667 22.9141 28.75 22.9141 27.6146V26.5417C22.9141 25.5 22.9141 25.5 23.9557 25.5H26.0391C27.0807 25.5 27.0807 25.5 27.0807 26.5417Z" stroke="#D68910" stroke-width="1.2" stroke-miterlimit="10" stroke-linecap="round" stroke-linejoin="round"/>
<path d="M35.0547 24.459C32.6484 26.209 29.8984 27.2507 27.0859 27.6048" stroke="#D68910" stroke-width="1.2" stroke-miterlimit="10" stroke-linecap="round" stroke-linejoin="round"/>
<path d="M15.2266 24.7402C17.5703 26.3444 20.2161 27.3132 22.9141 27.6152" stroke="#D68910" stroke-width="1.2" stroke-miterlimit="10" stroke-linecap="round" stroke-linejoin="round"/>
</svg>
