<svg width="73" height="38" viewBox="0 0 73 38" fill="none" xmlns="http://www.w3.org/2000/svg">
<path d="M36.6568 13.8247H37.7474C37.8028 13.8248 37.857 13.8404 37.9039 13.8699C37.9507 13.8994 37.9883 13.9415 38.0123 13.9914C38.0364 14.0412 38.0458 14.0969 38.0396 14.1519C38.0334 14.2069 38.0119 14.2591 37.9774 14.3024L37.5069 14.8918L36.8861 15.6707C36.8586 15.7053 36.8236 15.7332 36.7838 15.7524C36.744 15.7716 36.7004 15.7816 36.6562 15.7816C36.612 15.7816 36.5684 15.7716 36.5285 15.7524C36.4887 15.7332 36.4538 15.7053 36.4263 15.6707L35.8055 14.8918L35.3356 14.3024C35.3011 14.2591 35.2795 14.2069 35.2733 14.1519C35.2671 14.0969 35.2766 14.0412 35.3006 13.9914C35.3246 13.9415 35.3622 13.8994 35.4091 13.8699C35.4559 13.8404 35.5101 13.8248 35.5655 13.8247H36.6568Z" fill="url(#paint0_linear_3881_62248)"/>
<path d="M36.6568 13.8247H37.7474C37.8028 13.8248 37.857 13.8404 37.9039 13.8699C37.9507 13.8994 37.9883 13.9415 38.0123 13.9914C38.0364 14.0412 38.0458 14.0969 38.0396 14.1519C38.0334 14.2069 38.0119 14.2591 37.9774 14.3024L37.5069 14.8918L36.8861 15.6707C36.8586 15.7053 36.8236 15.7332 36.7838 15.7524C36.744 15.7716 36.7004 15.7816 36.6562 15.7816C36.612 15.7816 36.5684 15.7716 36.5285 15.7524C36.4887 15.7332 36.4538 15.7053 36.4263 15.6707L35.8055 14.8918L35.3356 14.3024C35.3011 14.2591 35.2795 14.2069 35.2733 14.1519C35.2671 14.0969 35.2766 14.0412 35.3006 13.9914C35.3246 13.9415 35.3622 13.8994 35.4091 13.8699C35.4559 13.8404 35.5101 13.8248 35.5655 13.8247H36.6568Z" fill="black" fill-opacity="0.2"/>
<path d="M31.4632 10.6368C31.4572 10.7456 31.4325 10.8525 31.3902 10.953C31.3284 11.1007 31.2307 11.2307 31.106 11.3312C30.9813 11.4317 30.8336 11.4995 30.6761 11.5286C30.5186 11.5577 30.3564 11.5471 30.204 11.4977C30.0517 11.4484 29.914 11.3618 29.8035 11.2459C29.693 11.1301 29.6131 10.9885 29.571 10.8339C29.5289 10.6794 29.526 10.5169 29.5625 10.3609C29.599 10.205 29.6738 10.0606 29.7801 9.94085C29.8864 9.82107 30.0209 9.72967 30.1714 9.67489C29.5187 9.43089 28.8 9.43063 28.1472 9.67416C27.4944 9.91769 26.9515 10.3887 26.6181 11.0005C26.2848 11.6123 26.1835 12.3239 26.3329 13.0044C26.4822 13.685 26.8722 14.2887 27.4311 14.7048C27.9899 15.1208 28.6802 15.3211 29.375 15.2689C30.0698 15.2167 30.7224 14.9155 31.2128 14.4207C31.7033 13.9258 31.9987 13.2706 32.0447 12.5754C32.0907 11.8801 31.8842 11.1917 31.4632 10.6365V10.6368Z" fill="url(#paint1_linear_3881_62248)"/>
<path d="M31.4632 10.6368C31.4572 10.7456 31.4325 10.8525 31.3902 10.953C31.3284 11.1007 31.2307 11.2307 31.106 11.3312C30.9813 11.4317 30.8336 11.4995 30.6761 11.5286C30.5186 11.5577 30.3564 11.5471 30.204 11.4977C30.0517 11.4484 29.914 11.3618 29.8035 11.2459C29.693 11.1301 29.6131 10.9885 29.571 10.8339C29.5289 10.6794 29.526 10.5169 29.5625 10.3609C29.599 10.205 29.6738 10.0606 29.7801 9.94085C29.8864 9.82107 30.0209 9.72967 30.1714 9.67489C29.5187 9.43089 28.8 9.43063 28.1472 9.67416C27.4944 9.91769 26.9515 10.3887 26.6181 11.0005C26.2848 11.6123 26.1835 12.3239 26.3329 13.0044C26.4822 13.685 26.8722 14.2887 27.4311 14.7048C27.9899 15.1208 28.6802 15.3211 29.375 15.2689C30.0698 15.2167 30.7224 14.9155 31.2128 14.4207C31.7033 13.9258 31.9987 13.2706 32.0447 12.5754C32.0907 11.8801 31.8842 11.1917 31.4632 10.6365V10.6368Z" fill="black" fill-opacity="0.2"/>
<path d="M46.7833 10.8222C46.7769 10.9309 46.7524 11.0377 46.7109 11.1384C46.649 11.2862 46.5513 11.4163 46.4265 11.5169C46.3018 11.6175 46.1539 11.6855 45.9963 11.7146C45.8387 11.7437 45.6764 11.7331 45.5239 11.6838C45.3714 11.6344 45.2337 11.5478 45.1231 11.4318C45.0125 11.3158 44.9325 11.1741 44.8904 11.0195C44.8483 10.8649 44.8454 10.7022 44.882 10.5461C44.9185 10.3901 44.9934 10.2456 45.0998 10.1258C45.2062 10.0059 45.3408 9.91449 45.4914 9.85972C44.8386 9.61551 44.1197 9.61511 43.4666 9.8586C42.8136 10.1021 42.2704 10.5731 41.9368 11.1851C41.6033 11.797 41.5019 12.5088 41.6511 13.1896C41.8004 13.8704 42.1904 14.4744 42.7494 14.8906C43.3084 15.3069 43.9989 15.5074 44.6939 15.4552C45.3889 15.4031 46.0417 15.1019 46.5324 14.6069C47.0231 14.112 47.3186 13.4566 47.3647 12.7611C47.4108 12.0657 47.2043 11.377 46.7833 10.8216V10.8222Z" fill="url(#paint2_linear_3881_62248)"/>
<path d="M46.7833 10.8222C46.7769 10.9309 46.7524 11.0377 46.7109 11.1384C46.649 11.2862 46.5513 11.4163 46.4265 11.5169C46.3018 11.6175 46.1539 11.6855 45.9963 11.7146C45.8387 11.7437 45.6764 11.7331 45.5239 11.6838C45.3714 11.6344 45.2337 11.5478 45.1231 11.4318C45.0125 11.3158 44.9325 11.1741 44.8904 11.0195C44.8483 10.8649 44.8454 10.7022 44.882 10.5461C44.9185 10.3901 44.9934 10.2456 45.0998 10.1258C45.2062 10.0059 45.3408 9.91449 45.4914 9.85972C44.8386 9.61551 44.1197 9.61511 43.4666 9.8586C42.8136 10.1021 42.2704 10.5731 41.9368 11.1851C41.6033 11.797 41.5019 12.5088 41.6511 13.1896C41.8004 13.8704 42.1904 14.4744 42.7494 14.8906C43.3084 15.3069 43.9989 15.5074 44.6939 15.4552C45.3889 15.4031 46.0417 15.1019 46.5324 14.6069C47.0231 14.112 47.3186 13.4566 47.3647 12.7611C47.4108 12.0657 47.2043 11.377 46.7833 10.8216V10.8222Z" fill="black" fill-opacity="0.2"/>
<path d="M45.8872 0.0954436C44.8457 -0.390836 44.6028 1.06685 42.416 2.52483C40.8577 3.56349 38.0136 3.50975 36.5442 3.3807C35.0747 3.50975 32.2303 3.56349 30.6723 2.52483C28.4855 1.06685 28.2421 -0.390836 27.2008 0.0954436C26.6867 0.334847 25.4537 2.4616 24.2949 5.27983C25.9402 5.3096 27.5755 5.54125 29.1643 5.9696C32.7617 5.24305 35.2629 7.54828 36.2631 8.70621C36.4492 8.74387 36.6409 8.74387 36.827 8.70621C37.8257 7.54857 40.3272 5.24391 43.9257 5.96988C45.5144 5.54156 47.1497 5.30991 48.7948 5.28012C47.6343 2.4616 46.4017 0.334847 45.8872 0.0954436Z" fill="url(#paint3_linear_3881_62248)"/>
<path d="M45.8872 0.0954436C44.8457 -0.390836 44.6028 1.06685 42.416 2.52483C40.8577 3.56349 38.0136 3.50975 36.5442 3.3807C35.0747 3.50975 32.2303 3.56349 30.6723 2.52483C28.4855 1.06685 28.2421 -0.390836 27.2008 0.0954436C26.6867 0.334847 25.4537 2.4616 24.2949 5.27983C25.9402 5.3096 27.5755 5.54125 29.1643 5.9696C32.7617 5.24305 35.2629 7.54828 36.2631 8.70621C36.4492 8.74387 36.6409 8.74387 36.827 8.70621C37.8257 7.54857 40.3272 5.24391 43.9257 5.96988C45.5144 5.54156 47.1497 5.30991 48.7948 5.28012C47.6343 2.4616 46.4017 0.334847 45.8872 0.0954436Z" fill="black" fill-opacity="0.2"/>
<path d="M36.5444 11.4844L37.31 11.5295C37.8877 11.5548 37.9883 11.9816 38.4404 12.7851C38.8924 13.5887 39.696 17.2806 44.7948 17.2053C49.8935 17.13 54.9399 11.5792 55.6691 9.59587C56.3982 7.61253 54.9661 6.15456 49.34 5.97896C43.7138 5.80335 37.863 9.09321 37.863 9.09321C37.4583 9.31336 37.005 9.4287 36.5444 9.4287C36.0837 9.4287 35.6304 9.31336 35.2258 9.09321C35.2258 9.09321 29.3738 5.80335 23.7482 5.97896C18.1227 6.15456 16.6911 7.61253 17.4197 9.59559C18.1482 11.5786 23.1964 17.13 28.2943 17.2051C33.3922 17.2801 34.196 13.5887 34.6484 12.7849C35.1008 11.981 35.2005 11.5545 35.7782 11.5292L36.5444 11.4844ZM44.1665 16.2006C40.6755 15.9744 38.4404 12.3081 40.2987 10.2486C42.157 8.18905 46.251 7.78756 46.251 7.78756C47.3563 7.73726 51.8771 7.28489 51.8771 9.97179C51.8771 12.6587 47.6575 16.4268 44.1668 16.2006H44.1665ZM21.2116 9.97208C21.2116 7.2849 25.7324 7.73726 26.8372 7.78784C26.8372 7.78784 30.9318 8.1902 32.7898 10.2488C34.6478 12.3075 32.4133 15.9747 28.9223 16.2009C25.4312 16.4271 21.2116 12.6596 21.2116 9.97208Z" fill="url(#paint4_linear_3881_62248)"/>
<path d="M36.5444 11.4844L37.31 11.5295C37.8877 11.5548 37.9883 11.9816 38.4404 12.7851C38.8924 13.5887 39.696 17.2806 44.7948 17.2053C49.8935 17.13 54.9399 11.5792 55.6691 9.59587C56.3982 7.61253 54.9661 6.15456 49.34 5.97896C43.7138 5.80335 37.863 9.09321 37.863 9.09321C37.4583 9.31336 37.005 9.4287 36.5444 9.4287C36.0837 9.4287 35.6304 9.31336 35.2258 9.09321C35.2258 9.09321 29.3738 5.80335 23.7482 5.97896C18.1227 6.15456 16.6911 7.61253 17.4197 9.59559C18.1482 11.5786 23.1964 17.13 28.2943 17.2051C33.3922 17.2801 34.196 13.5887 34.6484 12.7849C35.1008 11.981 35.2005 11.5545 35.7782 11.5292L36.5444 11.4844ZM44.1665 16.2006C40.6755 15.9744 38.4404 12.3081 40.2987 10.2486C42.157 8.18905 46.251 7.78756 46.251 7.78756C47.3563 7.73726 51.8771 7.28489 51.8771 9.97179C51.8771 12.6587 47.6575 16.4268 44.1668 16.2006H44.1665ZM21.2116 9.97208C21.2116 7.2849 25.7324 7.73726 26.8372 7.78784C26.8372 7.78784 30.9318 8.1902 32.7898 10.2488C34.6478 12.3075 32.4133 15.9747 28.9223 16.2009C25.4312 16.4271 21.2116 12.6596 21.2116 9.97208Z" fill="black" fill-opacity="0.2"/>
<path d="M3.99428 19.5539C4.33398 19.5274 4.62109 19.5274 4.83003 19.5274H5.24734C6.07852 19.4998 6.91028 19.5611 7.72845 19.7102C8.51788 19.8889 9.23871 20.2923 9.80396 20.8716C10.3692 21.451 10.7547 22.1815 10.914 22.9751C10.9433 23.2002 10.9608 23.4267 10.9663 23.6536C10.9663 24.7765 10.3136 25.7686 8.74699 26.4989C7.33701 27.1254 5.40425 27.7258 4.25523 28.8751C3.83542 29.2917 3.49092 29.7779 3.23698 30.3121C2.92534 30.8895 2.76376 31.5359 2.76708 32.192C2.76708 32.8188 2.97602 33.5241 3.62928 33.5241C4.22994 33.5241 5.06627 33.0016 6.21443 31.6175C6.63202 31.1214 7.05019 29.9988 7.88566 29.3717C8.27477 29.029 8.7772 28.843 9.29564 28.8495C9.65022 28.8486 10.001 28.9225 10.325 29.0665C10.649 29.2105 10.9389 29.4214 11.1758 29.6853C12.0897 30.6777 12.1682 32.192 12.1682 32.5305C12.1668 33.2705 12.034 34.0043 11.7762 34.6978C10.7841 37.4399 7.65056 37.8305 4.3084 37.8305C4.07331 37.8305 2.71535 37.8043 0 37.8043V19.5516L3.99428 19.5539ZM3.49851 37.3887C5.29993 37.3887 7.9371 37.2321 9.24276 36.1351C9.72891 35.7396 10.1165 35.2366 10.3748 34.6656C10.6332 34.0947 10.7553 33.4715 10.7315 32.8452C10.7121 32.4771 10.6684 32.1106 10.6007 31.7482C10.4957 31.2294 10.2623 30.7453 9.92188 30.34C9.80225 30.1376 9.63497 29.9676 9.43461 29.8447C9.23425 29.7217 9.00688 29.6497 8.77229 29.6347C8.32835 29.6347 7.93663 29.8958 7.59711 30.4181C6.8401 31.593 5.22118 33.9169 3.65457 33.9169C2.89727 33.9169 2.45295 33.3166 2.37478 32.2983V32.0629C2.37478 29.5559 4.62052 26.9714 8.04114 25.3001C8.98123 24.6998 9.7368 23.9948 9.7368 23.1329V23.0021C9.5543 21.3064 8.2748 19.9735 5.68964 19.9735H4.82744C4.30524 19.9735 3.75659 19.9993 2.94699 19.9993H1.38038V37.3643C2.40151 37.3629 3.31544 37.3887 3.49851 37.3887Z" fill="#222222"/>
<path d="M13.9043 37.8066V19.5801H15.1053V37.8066H13.9043Z" fill="#222222"/>
<path d="M17.4065 21.0407C17.477 20.9663 17.562 20.907 17.6563 20.8667C17.7505 20.8264 17.852 20.8058 17.9546 20.8062C18.0621 20.8056 18.1685 20.8273 18.2673 20.8698C18.3661 20.9122 18.455 20.9746 18.5286 21.053C18.6021 21.1315 18.6587 21.2242 18.6948 21.3255C18.7309 21.4268 18.7457 21.5344 18.7383 21.6416C18.7461 21.7503 18.7318 21.8594 18.6962 21.9624C18.6606 22.0653 18.6044 22.16 18.5311 22.2406C18.4578 22.3212 18.369 22.3861 18.2698 22.4314C18.1707 22.4766 18.0635 22.5013 17.9546 22.5038C17.852 22.5041 17.7505 22.4834 17.6562 22.443C17.562 22.4025 17.477 22.3433 17.4065 22.2687C17.2719 22.0875 17.1986 21.868 17.1973 21.6422C17.2028 21.4248 17.276 21.2146 17.4065 21.0407ZM17.3542 25.1927H18.5555V37.8053H17.3542V25.1927Z" fill="#222222"/>
<path d="M20.832 25.4817H22.0328V27.5966C22.5121 26.9083 23.1479 26.3436 23.8879 25.9489C24.628 25.5542 25.4511 25.3408 26.2897 25.3262C28.509 25.3262 30.5458 26.9184 30.5458 30.287V37.8076H29.3448V30.0772C29.3448 27.4926 27.7782 25.8472 25.9765 25.8472C24.3053 25.8472 22.5817 27.5716 22.0328 29.3722V37.8068H20.832V25.4817Z" fill="#222222"/>
<path d="M33.8225 19.5537V37.8064H32.6484V19.5537H33.8225ZM34.9721 32.8968C34.9813 32.7568 34.9988 32.6174 35.0247 32.4795C35.1548 31.7222 35.7294 30.7551 36.7999 29.5288C37.6092 28.6148 38.5499 27.5701 39.3578 26.7088L40.7678 25.2201L41.2638 25.8469C40.3237 26.7344 39.9579 26.9965 39.5144 27.4397L38.9919 27.9622C38.5743 28.3797 37.9998 28.9807 37.0597 29.999C35.8325 31.3563 35.3623 32.5056 35.3623 32.9494C35.3623 33.1586 35.3623 33.5501 35.9892 33.5759C37.8693 33.6547 39.5144 34.6729 40.6367 36.2392L41.4201 37.3365C41.5125 37.501 41.6173 37.6581 41.7337 37.8064H40.4283C40.3503 37.6699 40.2631 37.5389 40.1671 37.4144C39.984 37.1796 39.8015 36.8396 39.5144 36.4482C38.6396 35.1469 37.3059 34.2238 35.7799 33.8633C35.5469 33.8367 35.333 33.7216 35.1825 33.5417C35.032 33.3617 34.9565 33.1309 34.9715 32.8968H34.9721Z" fill="#222222"/>
<path d="M42.2686 29.9991C42.9481 27.1001 45.5588 25.1421 47.9879 25.1421C49.5545 25.1421 51.0171 25.8991 51.8525 27.7793C52.0243 28.0615 52.1061 28.3893 52.0871 28.7191C52.0997 29.1261 51.9716 29.5251 51.7242 29.8487C51.4769 30.1723 51.1255 30.4006 50.7294 30.4952C48.3793 30.9912 44.6193 30.286 43.862 33.8115C44.7759 36.2394 46.3428 37.2841 47.9091 37.2841C49.4755 37.2841 50.9122 36.2136 51.5131 34.4116L51.9569 34.7251C52.0528 34.8068 52.1579 34.8769 52.2701 34.9341C51.1475 36.9171 49.3976 37.7793 47.622 37.7793C45.2984 37.7793 43.0001 36.1607 42.2954 33.2097C42.1704 32.6429 42.1005 32.0655 42.0864 31.4853C42.0798 30.9839 42.1411 30.484 42.2686 29.9991ZM43.2872 30.8346C43.2875 31.496 43.3752 32.1545 43.5481 32.7929C43.5978 32.9549 43.6329 33.1209 43.653 33.289C44.4885 30.3644 47.6743 30.5211 49.8154 30.1032C50.1483 30.0147 50.4421 29.8177 50.6503 29.5435C50.8586 29.2692 50.9693 28.9332 50.965 28.5889C50.9782 28.3075 50.9151 28.0277 50.7823 27.7793C49.9729 26.3173 48.7705 25.7675 47.5444 25.7675C45.9778 25.7675 44.4894 26.7334 43.7579 28.4834C43.5361 28.9526 43.3949 29.4558 43.3403 29.9718C43.3136 30.4167 43.2872 30.7041 43.2872 30.8346Z" fill="#222222"/>
<path d="M53.9902 37.8065V30.1042C54.1213 27.2058 56.1319 25.2213 58.9781 25.2213C59.7322 25.1967 60.4816 25.349 61.1662 25.6661C61.8508 25.9833 62.4517 26.4563 62.9206 27.0475L62.0064 27.8832C61.6171 27.287 61.0976 26.7869 60.487 26.4205C59.8764 26.0542 59.1907 25.8311 58.4814 25.7683H58.3509C58.1584 25.7728 57.9664 25.7903 57.7761 25.8206C56.3391 26.0295 55.139 27.309 55.139 29.8421V37.8063L53.9902 37.8065Z" fill="#222222"/>
<path d="M63.9385 27.5181C64.3825 26.2383 65.7919 25.1157 67.777 25.1157C69.0042 25.1157 70.3621 25.5074 71.9287 26.5257L71.3019 27.3879L71.1714 27.2574C70.2575 26.3952 69.2916 25.7954 68.0388 25.7167H67.7255C66.6544 25.7167 65.8453 26.0041 65.2444 26.6047C65.0452 26.7979 64.887 27.0292 64.7793 27.2849C64.6716 27.5406 64.6166 27.8154 64.6176 28.0929C64.6176 28.5628 64.8791 29.8429 66.5503 30.2605L66.8898 30.3389C67.3554 30.07 67.8564 29.8677 68.3782 29.738V30.0774C68.0324 30.1537 67.6985 30.2767 67.3858 30.443C69.6054 30.8608 72.2687 30.9916 72.8955 33.3678C72.9704 33.631 73.0056 33.9039 72.9999 34.1774C72.9991 35.0269 72.6827 35.8458 72.1121 36.4752C71.6756 36.9512 71.142 37.3281 70.5474 37.5803C69.9528 37.8325 69.311 37.9542 68.6653 37.9372C67.8839 37.9653 67.1081 37.7956 66.4097 37.4439C65.7114 37.0922 65.1131 36.5699 64.6705 35.9254C64.3507 35.4876 64.1938 34.9519 64.2267 34.4108C64.2267 33.4974 64.6705 32.2697 65.7407 31.1994C64.8271 30.7815 64.2787 30.3116 64.0695 29.7891C63.8838 29.3684 63.7777 28.917 63.7565 28.4576C63.7486 28.135 63.8107 27.8144 63.9385 27.5181ZM64.6696 34.6456C64.7082 35.034 64.8526 35.4043 65.0872 35.7162C65.5147 36.2276 66.0503 36.638 66.6552 36.918C67.2602 37.1979 67.9197 37.3405 68.5863 37.3354C69.0861 37.3444 69.5829 37.2556 70.0486 37.0738C71.3019 36.5778 72.1115 35.4811 72.1115 34.4367V34.3062C72.1127 34.2098 72.104 34.1135 72.0856 34.0188C72.0856 33.7573 71.8506 33.392 71.4068 32.9479C70.9631 32.5039 70.2316 32.1906 69.2392 32.034C68.1717 31.933 67.1201 31.705 66.1066 31.3549C65.088 32.3734 64.6443 33.4966 64.6443 34.2536C64.6355 34.3852 64.644 34.5174 64.6696 34.6468V34.6456Z" fill="#222222"/>
<defs>
<linearGradient id="paint0_linear_3881_62248" x1="36.6565" y1="13.8247" x2="36.6565" y2="15.7816" gradientUnits="userSpaceOnUse">
<stop stop-color="#009900"/>
<stop offset="1" stop-color="#2FCE2F"/>
</linearGradient>
<linearGradient id="paint1_linear_3881_62248" x1="29.1583" y1="9.4917" x2="29.1583" y2="15.2771" gradientUnits="userSpaceOnUse">
<stop stop-color="#009900"/>
<stop offset="1" stop-color="#2FCE2F"/>
</linearGradient>
<linearGradient id="paint2_linear_3881_62248" x1="44.4775" y1="9.67627" x2="44.4775" y2="15.4633" gradientUnits="userSpaceOnUse">
<stop stop-color="#009900"/>
<stop offset="1" stop-color="#2FCE2F"/>
</linearGradient>
<linearGradient id="paint3_linear_3881_62248" x1="36.5449" y1="0" x2="36.5449" y2="8.73446" gradientUnits="userSpaceOnUse">
<stop stop-color="#009900"/>
<stop offset="1" stop-color="#2FCE2F"/>
</linearGradient>
<linearGradient id="paint4_linear_3881_62248" x1="36.5445" y1="5.97217" x2="36.5445" y2="17.2065" gradientUnits="userSpaceOnUse">
<stop stop-color="#009900"/>
<stop offset="1" stop-color="#2FCE2F"/>
</linearGradient>
</defs>
</svg>
