<svg width="40" height="40" viewBox="0 0 40 40" fill="none" xmlns="http://www.w3.org/2000/svg">
<rect x="0.5" y="0.5" width="39" height="39" rx="7.5" stroke="#EEEEEE"/>
<path d="M20.0175 12.4258C17.2591 12.4258 15.0175 14.6674 15.0175 17.4258V19.8341C15.0175 20.3424 14.8008 21.1174 14.5425 21.5508L13.5841 23.1424C12.9925 24.1258 13.4008 25.2174 14.4841 25.5841C18.0758 26.7841 21.9508 26.7841 25.5425 25.5841C26.5508 25.2508 26.9925 24.0591 26.4425 23.1424L25.4841 21.5508C25.2341 21.1174 25.0175 20.3424 25.0175 19.8341V17.4258C25.0175 14.6758 22.7675 12.4258 20.0175 12.4258Z" stroke="#828282" stroke-width="1.5" stroke-miterlimit="10" stroke-linecap="round"/>
<path d="M21.5599 12.6672C21.3016 12.5922 21.0349 12.5339 20.7599 12.5005C19.9599 12.4005 19.1932 12.4589 18.4766 12.6672C18.7182 12.0505 19.3182 11.6172 20.0182 11.6172C20.7182 11.6172 21.3182 12.0505 21.5599 12.6672Z" stroke="#828282" stroke-width="1.5" stroke-miterlimit="10" stroke-linecap="round" stroke-linejoin="round"/>
<path d="M22.5156 25.8828C22.5156 27.2578 21.3906 28.3828 20.0156 28.3828C19.3323 28.3828 18.699 28.0995 18.249 27.6495C17.799 27.1995 17.5156 26.5661 17.5156 25.8828" stroke="#828282" stroke-width="1.5" stroke-miterlimit="10"/>
</svg>
