<svg width="50" height="50" viewBox="0 0 50 50" fill="none" xmlns="http://www.w3.org/2000/svg">
<rect width="50" height="50" rx="8" fill="#D68910" fill-opacity="0.1"/>
<path d="M31.4141 12.0615C31.815 12.0615 32.1999 12.2214 32.4834 12.5049C32.7667 12.7883 32.9257 13.1725 32.9258 13.5732C32.9258 14.1724 32.576 14.6899 32.0684 14.9355L31.9609 14.9873L31.958 15.1064C31.9321 16.2472 32.0019 18.0835 32.585 19.6162C32.8771 20.3843 33.303 21.0889 33.9229 21.5889C34.4988 22.0534 35.2307 22.3313 36.1494 22.3301C36.1271 22.4654 36.0902 22.6567 36.0322 22.8857C35.9131 23.3561 35.7056 23.9814 35.3516 24.6045C34.6472 25.8441 33.3672 27.0762 31.0254 27.0762C28.6807 27.0762 27.261 25.8275 26.4189 24.5664C25.997 23.9345 25.7222 23.3013 25.5527 22.8252C25.4681 22.5875 25.4097 22.3895 25.373 22.252C25.3715 22.2463 25.3696 22.2408 25.3682 22.2354C27.2264 21.91 28.4399 21.0758 29.2676 19.8623C30.1175 18.6162 30.5507 16.9862 30.8887 15.1553L30.916 15.0078L30.7793 14.9443C30.2611 14.7029 29.9023 14.1809 29.9023 13.5732C29.9024 13.1724 30.0623 12.7883 30.3457 12.5049C30.6291 12.2215 31.0133 12.0616 31.4141 12.0615Z" fill="#D68910" stroke="#D68910" stroke-width="0.389194"/>
<path d="M18.1421 15.1109C17.5702 14.8344 17.1741 14.2508 17.1741 13.5734C17.1741 13.1209 17.3539 12.6869 17.6739 12.3669C17.9939 12.047 18.4278 11.8672 18.8804 11.8672C19.3329 11.8672 19.7669 12.047 20.0869 12.3669C20.4069 12.6869 20.5866 13.1209 20.5866 13.5734C20.5866 14.2602 20.1812 14.8484 19.5976 15.1203C20.2726 18.7766 21.3085 21.4977 25.164 22.0789C25.164 22.0789 24.1257 27.2703 19.2694 27.2703C14.4132 27.2703 13.9233 22.1328 13.9233 22.1328C17.8608 22.332 18.1937 17.3797 18.1421 15.1109Z" fill="#D68910"/>
<path d="M30.96 27.2713C30.9811 27.2713 31.0021 27.2736 31.0232 27.2736C32.3615 27.2736 33.367 26.8822 34.1217 26.3174L30.96 27.2713Z" fill="#FFCA28"/>
<path d="M37.9468 13.9514C37.1663 13.8459 36.421 14.5889 36.2851 15.6061C36.2007 16.2412 36.3718 16.8342 36.7023 17.2162L36.1398 19.5483C36.1398 19.5483 35.2796 25.0584 30.9343 26.1459C27.4609 27.0154 26.2023 20.6569 25.8976 18.6928C26.5585 18.3647 27.0156 17.685 27.0156 16.8951C27.0156 15.7865 26.1179 14.8889 25.0093 14.8889C23.9007 14.8889 23.0031 15.7865 23.0031 16.8951C23.0031 17.6897 23.4671 18.3764 24.1398 18.6998C23.8984 20.6381 22.8343 26.7858 19.0843 26.1436C15.2781 25.4897 13.6163 19.0795 13.232 17.3358C13.689 16.9608 13.9445 16.2998 13.8507 15.5897C13.7148 14.5701 12.9085 13.8389 12.0507 13.9537C11.1929 14.0686 10.6093 14.9873 10.7452 16.0045C10.8437 16.7451 11.2984 17.3334 11.8679 17.5561L14.8491 36.0787C14.8491 36.0787 17.4507 38.1342 25.0093 38.1342C32.5679 38.1342 35.1695 36.0787 35.1695 36.0787L38.1577 17.5069C38.6406 17.2537 39.0202 16.6842 39.114 15.9858C39.2523 14.9662 38.7296 14.0569 37.9468 13.9514Z" fill="#FFCA28"/>
<path d="M25.1026 33.4158C26.3634 33.4158 27.3854 32.1975 27.3854 30.6947C27.3854 29.1919 26.3634 27.9736 25.1026 27.9736C23.8419 27.9736 22.8198 29.1919 22.8198 30.6947C22.8198 32.1975 23.8419 33.4158 25.1026 33.4158Z" fill="#26A69A"/>
<path d="M25.1029 28.6469C25.1919 28.7453 25.2716 28.9258 25.1029 29.2774C24.9341 29.6289 24.0247 30.1047 23.8583 30.2008C23.6919 30.2993 23.5818 30.2547 23.5302 30.2149C23.2841 30.018 23.3779 29.5727 23.5372 29.3008C23.8794 28.7125 24.6037 28.1055 25.1029 28.6469Z" fill="#69F0AE"/>
<path d="M24.9339 31.7095C24.6761 31.8337 23.83 32.211 24.1089 32.6587C24.273 32.9235 24.6128 33.036 24.9245 33.0501C25.2363 33.0642 25.5433 32.9657 25.8199 32.8227C27.1324 32.1431 27.2378 30.3571 26.9824 30.2212C26.7199 30.0806 26.5417 30.4438 26.4058 30.5985C25.9925 31.0614 25.4924 31.4389 24.9339 31.7095Z" fill="#00796B"/>
<path d="M37.6769 28.4688C38.0425 26.4462 36.6831 25.9399 36.6831 25.9399C36.6831 25.9399 35.8066 25.7805 35.3941 28.0563C34.9816 30.3297 35.8581 30.4891 35.8581 30.4891C35.8581 30.4891 37.3089 30.4915 37.6769 28.4688Z" fill="#26A69A"/>
<path d="M37.0722 26.6309C37.391 27.0575 37.0136 27.6879 36.4019 28.1075C36.2214 28.2317 35.9824 28.1848 35.9472 28.0817C35.8488 27.7864 35.891 27.4512 36.0222 27.1676C36.4113 26.3168 36.9105 26.4153 37.0722 26.6309Z" fill="#69F0AE"/>
<path d="M12.2872 28.5294C11.9192 26.509 13.281 26.0005 13.281 26.0005C13.281 26.0005 14.1575 25.8411 14.57 28.1169C14.9825 30.3903 14.106 30.5497 14.106 30.5497C14.106 30.5497 12.6528 30.552 12.2872 28.5294Z" fill="#26A69A"/>
<path d="M13.6984 26.6871C14.0125 26.9214 13.8836 27.2285 13.6469 27.4418C13.3773 27.6879 13.1711 27.9574 12.9414 28.2363C12.9062 28.2785 12.8664 28.3254 12.8101 28.3371C12.7023 28.3605 12.6156 28.2504 12.5805 28.1449C12.4797 27.8496 12.4984 27.5027 12.6484 27.2308C13.075 26.455 13.5765 26.5957 13.6984 26.6871Z" fill="#69F0AE"/>
<path d="M33.4347 30.4277C33.273 31.3488 32.5347 31.9886 31.7824 31.8574C31.03 31.7261 30.9269 30.9409 31.0886 30.0199C31.2504 29.0988 31.6136 28.3933 32.3636 28.5245C33.116 28.6558 33.5964 29.5089 33.4347 30.4277Z" fill="#F44336"/>
<path d="M17.1316 30.4277C17.2933 31.3488 18.0316 31.9886 18.7839 31.8574C19.5363 31.7261 19.6394 30.9409 19.4777 30.0199C19.316 29.0988 18.9527 28.3933 18.2027 28.5245C17.4527 28.6558 16.9722 29.5089 17.1316 30.4277Z" fill="#F44336"/>
<path d="M18.2216 29.8134C18.0505 30.0056 17.6334 30.3923 17.4857 30.097C17.2841 29.6938 17.563 29.0845 17.8818 28.8829C18.2005 28.6813 18.4607 28.8407 18.5052 29.0212C18.5591 29.2509 18.374 29.6399 18.2216 29.8134Z" fill="#FFA8A4"/>
<path d="M31.5574 30.4019C31.3253 30.3668 31.2996 29.5675 31.923 28.9394C32.2206 28.6394 32.6472 28.9957 32.5394 29.4761C32.4363 29.9332 31.9816 30.4675 31.5574 30.4019Z" fill="#FFA8A4"/>
<path d="M35.5815 33.0176C34.1776 33.7207 30.9573 35.5934 25.0112 35.5934C19.0651 35.5934 15.8448 33.7207 14.4409 33.0176C14.4409 33.0176 13.937 33.2871 13.937 33.5684V35.727C13.937 36.0152 14.0894 36.2801 14.3378 36.4277C15.4347 37.0746 18.7769 38.6027 25.0136 38.6027C31.2503 38.6027 34.5925 37.0746 35.6894 36.4277C35.8113 36.3558 35.9124 36.2534 35.9827 36.1305C36.053 36.0076 36.09 35.8685 36.0901 35.727V33.5684C36.0855 33.2871 35.5815 33.0176 35.5815 33.0176Z" fill="#FFCA28"/>
<path d="M19.2809 35.9781C19.9371 36.107 20.1363 36.1633 20.0918 36.5289C20.0004 37.2485 18.5074 37.0774 17.6238 36.8453C15.798 36.3649 15.4277 35.8586 15.4277 35.4063C15.4277 34.9914 15.7465 34.9422 16.2387 35.1156C16.827 35.3242 17.7363 35.6758 19.2809 35.9781Z" fill="#FFF59D"/>
<path d="M35.5815 33.4912C35.5815 33.4912 31.698 35.6896 25.0112 35.6896C18.3245 35.6896 14.4409 33.4912 14.4409 33.4912" stroke="#D68910" stroke-width="1.55678" stroke-miterlimit="10" stroke-linecap="round"/>
<path d="M16.3207 21.6181C17.5676 20.7275 18.2379 19.1314 18.2965 16.5908C18.3012 16.3611 18.3668 16.2931 18.491 16.279C18.6902 16.2579 18.723 16.4384 18.7207 16.5673C18.6644 19.3095 18.3152 21.0228 16.9324 21.9884C16.8644 22.0353 16.3793 22.3306 16.173 22.1267C15.9269 21.8876 16.241 21.6743 16.3207 21.6181Z" fill="#FFCA28"/>
<path d="M17.462 13.6422C17.4222 13.218 17.5206 12.454 18.6339 12.1071C18.9597 12.0063 19.1613 12.1657 19.1988 12.2899C19.2925 12.5993 19.0206 12.7211 18.8964 12.761C18.041 13.0376 17.9988 13.4641 17.823 13.736C17.6472 14.0079 17.4761 13.7711 17.462 13.6422Z" fill="#FFCA28"/>
<path d="M28.3323 21.0549C29.4597 20.0542 30.2073 18.9362 30.6995 16.3909C30.7441 16.1659 30.8097 16.1049 30.9316 16.1096C31.1308 16.1143 31.1402 16.2995 31.1191 16.426C30.7019 19.1401 30.3058 19.9135 28.9159 21.4534C28.7589 21.6268 28.3769 21.7838 28.1612 21.6034C27.9667 21.4417 28.1917 21.1815 28.3323 21.0549Z" fill="#FFCA28"/>
<path d="M29.9918 13.6627C29.952 13.2385 30.0504 12.4745 31.1637 12.1276C31.4895 12.0268 31.691 12.1862 31.7285 12.3104C31.8223 12.6198 31.5504 12.7417 31.4262 12.7815C30.5707 13.0581 30.5285 13.4846 30.3528 13.7565C30.1793 14.0284 30.0059 13.7917 29.9918 13.6627Z" fill="#FFCA28"/>
<path d="M17.4037 26.7853C14.6803 25.5501 13.8787 22.3275 13.4522 20.9282C13.3959 20.7431 13.424 20.5673 13.6092 20.5111C13.7943 20.4548 13.9045 20.5743 13.9631 20.7595C14.2725 21.7743 15.4748 25.1634 17.9568 26.1267C18.1373 26.197 18.4186 26.3681 18.2662 26.6611C18.1654 26.8509 17.842 26.9845 17.4037 26.7853Z" fill="#FFF59D"/>
<path d="M12.9715 15.7722C12.8402 15.5003 12.7863 15.2425 12.0715 14.9448C11.891 14.8698 11.7715 14.7034 11.8207 14.5159C11.8699 14.3284 12.0574 14.1878 12.3293 14.2347C13.2129 14.387 13.4051 15.2847 13.4426 15.5964C13.4777 15.8964 13.1051 16.044 12.9715 15.7722Z" fill="#FFF59D"/>
<path d="M32.7035 26.7853C35.427 25.5501 36.2285 22.3275 36.6551 20.9282C36.7113 20.7431 36.6832 20.5673 36.498 20.5111C36.3129 20.4548 36.2027 20.5743 36.1441 20.7595C35.8348 21.7743 34.6324 25.1634 32.1504 26.1267C31.9699 26.197 31.6887 26.3681 31.841 26.6611C31.9418 26.8509 32.2652 26.9845 32.7035 26.7853Z" fill="#FFF59D"/>
<path d="M37.1355 15.7722C37.2668 15.5003 37.3207 15.2425 38.0355 14.9448C38.216 14.8698 38.3355 14.7034 38.2863 14.5159C38.2371 14.3284 38.0496 14.1878 37.7777 14.2347C36.8941 14.387 36.7019 15.2847 36.6644 15.5964C36.6293 15.8964 37.0043 16.044 37.1355 15.7722Z" fill="#FFF59D"/>
<path d="M23.9168 16.9258C24.0598 16.6329 24.3106 16.2321 25.1285 16.0633C25.4426 15.9977 25.534 15.8618 25.5059 15.6555C25.4496 15.2266 24.9153 15.2571 24.627 15.3251C23.666 15.5501 23.4528 16.4032 23.4129 16.7407C23.3731 17.0618 23.7762 17.2188 23.9168 16.9258Z" fill="#FFF59D"/>
</svg>
