<svg width="20" height="20" viewBox="0 0 20 20" fill="none" xmlns="http://www.w3.org/2000/svg">
<path d="M18.3359 5.41687H13.3359" stroke="#707070" stroke-width="1.5" stroke-miterlimit="10" stroke-linecap="round" stroke-linejoin="round"/>
<path d="M4.9974 5.41687H1.66406" stroke="#707070" stroke-width="1.5" stroke-miterlimit="10" stroke-linecap="round" stroke-linejoin="round"/>
<path d="M8.33073 8.33333C9.94156 8.33333 11.2474 7.0275 11.2474 5.41667C11.2474 3.80584 9.94156 2.5 8.33073 2.5C6.7199 2.5 5.41406 3.80584 5.41406 5.41667C5.41406 7.0275 6.7199 8.33333 8.33073 8.33333Z" stroke="#6E6E6E" stroke-width="1.5" stroke-miterlimit="10" stroke-linecap="round" stroke-linejoin="round"/>
<path d="M18.3333 14.5834H15" stroke="#6E6E6E" stroke-width="1.5" stroke-miterlimit="10" stroke-linecap="round" stroke-linejoin="round"/>
<path d="M6.66406 14.5831H1.66406" stroke="#6E6E6E" stroke-width="1.5" stroke-miterlimit="10" stroke-linecap="round" stroke-linejoin="round"/>
<path d="M11.6667 17.5C13.2775 17.5 14.5833 16.1941 14.5833 14.5833C14.5833 12.9725 13.2775 11.6666 11.6667 11.6666C10.0558 11.6666 8.75 12.9725 8.75 14.5833C8.75 16.1941 10.0558 17.5 11.6667 17.5Z" stroke="#6E6E6E" stroke-width="1.5" stroke-miterlimit="10" stroke-linecap="round" stroke-linejoin="round"/>
</svg>
