<svg width="24" height="25" viewBox="0 0 24 25" fill="none" xmlns="http://www.w3.org/2000/svg">
<path d="M12 3.10137C15.2063 3.10137 15.5859 3.11543 16.8469 3.17168C18.0188 3.22324 18.6516 3.42012 19.0734 3.58418C19.6313 3.7998 20.0344 4.0623 20.4516 4.47949C20.8734 4.90137 21.1313 5.2998 21.3469 5.85762C21.5109 6.27949 21.7078 6.91699 21.7594 8.08418C21.8156 9.3498 21.8297 9.72949 21.8297 12.9311C21.8297 16.1373 21.8156 16.517 21.7594 17.7779C21.7078 18.9498 21.5109 19.5826 21.3469 20.0045C21.1313 20.5623 20.8687 20.9654 20.4516 21.3826C20.0297 21.8045 19.6313 22.0623 19.0734 22.2779C18.6516 22.442 18.0141 22.6389 16.8469 22.6904C15.5813 22.7467 15.2016 22.7607 12 22.7607C8.79375 22.7607 8.41406 22.7467 7.15313 22.6904C5.98125 22.6389 5.34844 22.442 4.92656 22.2779C4.36875 22.0623 3.96563 21.7998 3.54844 21.3826C3.12656 20.9607 2.86875 20.5623 2.65313 20.0045C2.48906 19.5826 2.29219 18.9451 2.24063 17.7779C2.18438 16.5123 2.17031 16.1326 2.17031 12.9311C2.17031 9.7248 2.18438 9.34512 2.24063 8.08418C2.29219 6.9123 2.48906 6.27949 2.65313 5.85762C2.86875 5.2998 3.13125 4.89668 3.54844 4.47949C3.97031 4.05762 4.36875 3.7998 4.92656 3.58418C5.34844 3.42012 5.98594 3.22324 7.15313 3.17168C8.41406 3.11543 8.79375 3.10137 12 3.10137ZM12 0.94043C8.74219 0.94043 8.33438 0.954492 7.05469 1.01074C5.77969 1.06699 4.90313 1.27324 4.14375 1.56855C3.35156 1.87793 2.68125 2.28574 2.01563 2.95605C1.34531 3.62168 0.9375 4.29199 0.628125 5.07949C0.332812 5.84355 0.126563 6.71543 0.0703125 7.99043C0.0140625 9.2748 0 9.68262 0 12.9404C0 16.1982 0.0140625 16.6061 0.0703125 17.8857C0.126563 19.1607 0.332812 20.0373 0.628125 20.7967C0.9375 21.5889 1.34531 22.2592 2.01563 22.9248C2.68125 23.5904 3.35156 24.0029 4.13906 24.3076C4.90313 24.6029 5.775 24.8092 7.05 24.8654C8.32969 24.9217 8.7375 24.9357 11.9953 24.9357C15.2531 24.9357 15.6609 24.9217 16.9406 24.8654C18.2156 24.8092 19.0922 24.6029 19.8516 24.3076C20.6391 24.0029 21.3094 23.5904 21.975 22.9248C22.6406 22.2592 23.0531 21.5889 23.3578 20.8014C23.6531 20.0373 23.8594 19.1654 23.9156 17.8904C23.9719 16.6107 23.9859 16.2029 23.9859 12.9451C23.9859 9.68731 23.9719 9.27949 23.9156 7.9998C23.8594 6.7248 23.6531 5.84824 23.3578 5.08887C23.0625 4.29199 22.6547 3.62168 21.9844 2.95605C21.3188 2.29043 20.6484 1.87793 19.8609 1.57324C19.0969 1.27793 18.225 1.07168 16.95 1.01543C15.6656 0.954492 15.2578 0.94043 12 0.94043Z" fill="white"/>
<path d="M12 6.77637C8.59688 6.77637 5.83594 9.5373 5.83594 12.9404C5.83594 16.3436 8.59688 19.1045 12 19.1045C15.4031 19.1045 18.1641 16.3436 18.1641 12.9404C18.1641 9.5373 15.4031 6.77637 12 6.77637ZM12 16.9389C9.79219 16.9389 8.00156 15.1482 8.00156 12.9404C8.00156 10.7326 9.79219 8.94199 12 8.94199C14.2078 8.94199 15.9984 10.7326 15.9984 12.9404C15.9984 15.1482 14.2078 16.9389 12 16.9389Z" fill="white"/>
<path d="M19.8469 6.53281C19.8469 7.32969 19.2 7.97188 18.4078 7.97188C17.6109 7.97188 16.9688 7.325 16.9688 6.53281C16.9688 5.73594 17.6156 5.09375 18.4078 5.09375C19.2 5.09375 19.8469 5.74063 19.8469 6.53281Z" fill="white"/>
</svg>
