<svg width="24" height="25" viewBox="0 0 24 25" fill="none" xmlns="http://www.w3.org/2000/svg">
<path d="M0 24.9404L1.687 18.7774C0.645998 16.9734 0.0989998 14.9284 0.0999998 12.8314C0.103 6.27543 5.43799 0.94043 11.993 0.94043C15.174 0.94143 18.16 2.18043 20.406 4.42843C22.6509 6.67643 23.8869 9.66443 23.8859 12.8424C23.8829 19.3994 18.548 24.7344 11.993 24.7344C10.003 24.7334 8.04198 24.2344 6.30499 23.2864L0 24.9404ZM6.59698 21.1334C8.27298 22.1284 9.87298 22.7244 11.989 22.7254C17.437 22.7254 21.875 18.2914 21.878 12.8404C21.88 7.37843 17.463 2.95043 11.997 2.94843C6.54498 2.94843 2.11 7.38243 2.108 12.8324C2.107 15.0574 2.75899 16.7234 3.85399 18.4664L2.85499 22.1144L6.59698 21.1334ZM17.984 15.6694C17.91 15.5454 17.712 15.4714 17.414 15.3224C17.117 15.1734 15.656 14.4544 15.383 14.3554C15.111 14.2564 14.913 14.2064 14.714 14.5044C14.516 14.8014 13.946 15.4714 13.773 15.6694C13.6 15.8674 13.426 15.8924 13.129 15.7434C12.832 15.5944 11.874 15.2814 10.739 14.2684C9.85598 13.4804 9.25898 12.5074 9.08598 12.2094C8.91298 11.9124 9.06798 11.7514 9.21598 11.6034C9.34998 11.4704 9.51298 11.2564 9.66198 11.0824C9.81298 10.9104 9.86198 10.7864 9.96198 10.5874C10.061 10.3894 10.012 10.2154 9.93698 10.0664C9.86198 9.91843 9.26798 8.45543 9.02098 7.86043C8.77898 7.28143 8.53398 7.35943 8.35198 7.35043L7.78198 7.34043C7.58398 7.34043 7.26198 7.41443 6.98998 7.71243C6.71798 8.01043 5.94999 8.72843 5.94999 10.1914C5.94999 11.6544 7.01498 13.0674 7.16298 13.2654C7.31198 13.4634 9.25798 16.4654 12.239 17.7524C12.948 18.0584 13.502 18.2414 13.933 18.3784C14.645 18.6044 15.293 18.5724 15.805 18.4964C16.376 18.4114 17.563 17.7774 17.811 17.0834C18.059 16.3884 18.059 15.7934 17.984 15.6694Z" fill="white"/>
</svg>
