<svg width="12" height="11" viewBox="0 0 12 11" fill="none" xmlns="http://www.w3.org/2000/svg">
<path d="M5.10394 0.650125C5.47078 -0.0930429 6.53052 -0.0930417 6.89736 0.650126L7.82821 2.53592C7.97375 2.83077 8.25493 3.03523 8.58028 3.08278L10.6635 3.38728C11.4834 3.50712 11.8102 4.51496 11.2166 5.09312L9.71077 6.55984C9.4749 6.78958 9.36724 7.12071 9.4229 7.44524L9.77808 9.51613C9.9182 10.3331 9.06065 10.9561 8.32702 10.5702L6.4661 9.59161C6.17472 9.43837 5.82658 9.43837 5.5352 9.59161L3.67428 10.5702C2.94065 10.9561 2.0831 10.3331 2.22322 9.51613L2.5784 7.44524C2.63407 7.12071 2.5264 6.78958 2.29053 6.55984L0.784663 5.09312C0.191069 4.51496 0.517853 3.50712 1.33777 3.38728L3.42102 3.08278C3.74637 3.03523 4.02756 2.83077 4.1731 2.53592L5.10394 0.650125Z" fill="#FFBB00"/>
</svg>
