<svg width="131" height="145" viewBox="0 0 131 145" fill="none" xmlns="http://www.w3.org/2000/svg">
<path d="M118.347 99.9465C126.964 104.897 127.01 112.922 118.449 117.872L78.2616 141.11C69.7003 146.061 55.777 146.061 47.1596 141.111L6.70963 117.873C-1.90772 112.923 -1.9531 104.898 6.60815 99.947L46.7952 76.7091C55.3565 71.7585 69.2798 71.7584 77.8971 76.7089L118.347 99.9465Z" fill="url(#paint0_linear_10663_321146)"/>
<path d="M118.347 99.9465C126.964 104.897 127.01 112.922 118.449 117.872L78.2616 141.11C69.7003 146.061 55.777 146.061 47.1596 141.111L6.70963 117.873C-1.90772 112.923 -1.9531 104.898 6.60815 99.947L46.7952 76.7091C55.3565 71.7585 69.2798 71.7584 77.8971 76.7089L118.347 99.9465Z" fill="black" fill-opacity="0.2"/>
<path d="M118.45 96.2591L78.263 119.497C69.7016 124.448 55.7784 124.448 47.1611 119.497L6.71108 96.2598C2.3747 93.7685 0.208801 90.499 0.218124 87.2344L0.205108 91.8591C0.19579 95.1237 2.36151 98.3934 6.69789 100.885L47.1477 124.122C55.7651 129.073 69.6886 129.073 78.2498 124.122L118.437 100.884C122.69 98.4246 124.819 95.2065 124.828 91.9835L124.841 87.3588C124.832 90.5818 122.703 93.7997 118.45 96.2591Z" fill="#8AE58A"/>
<path d="M118.347 78.3351C126.964 83.2855 127.01 91.3105 118.449 96.261L78.2616 119.499C69.7003 124.45 55.777 124.45 47.1596 119.499L6.70963 96.2616C-1.90772 91.311 -1.9531 83.2862 6.60815 78.3356L46.7952 55.0977C55.3565 50.1471 69.2798 50.1471 77.8971 55.0975L118.347 78.3351Z" fill="#E6F3FF"/>
<path d="M55.9207 65.0984C55.9207 65.0984 56.7107 66.3329 56.5981 66.782C56.4855 67.2311 55.9211 66.5577 55.9211 66.5577C55.9211 66.5577 56.0907 68.017 55.696 68.354C55.3012 68.6908 55.1316 67.7367 55.1316 67.7367C55.1316 67.7367 54.5677 68.1299 54.1162 67.5687C53.6648 67.0074 53.7773 65.7724 54.2284 65.0427C54.6795 64.3128 55.9207 65.0984 55.9207 65.0984Z" fill="#FF9554"/>
<path d="M58.6065 44.1414C58.6065 44.1414 56.5005 44.0671 55.5235 46.9862C54.5465 49.9051 54.1718 54.4706 54.0218 55.8178C53.8719 57.1649 53.8174 64.6676 53.8928 65.0418C53.9682 65.4908 55.3223 66.2389 56.1493 65.1909C56.7506 63.8436 56.7301 57.9874 57.4063 55.742C58.0826 53.4965 59.7356 47.8084 59.8104 46.2367C59.8852 44.665 58.6065 44.1414 58.6065 44.1414Z" fill="black"/>
<path d="M124.517 28.9504L77.1202 1.7221C75.4075 0.738258 73.8549 0.646555 72.7341 1.29476L69.9531 2.90283C71.074 2.25463 72.6266 2.34616 74.3393 3.33001L121.736 30.5584C125.137 32.5121 127.884 37.2466 127.873 41.1351L127.794 68.8729C127.788 70.8048 127.103 72.1638 125.998 72.8029L128.779 71.1948C129.884 70.5559 130.569 69.1967 130.575 67.2649L130.654 39.527C130.665 35.6385 127.918 30.9042 124.517 28.9504Z" fill="#CDFACD"/>
<path d="M121.736 30.5558C125.137 32.5095 127.884 37.244 127.873 41.1325L127.794 68.8703C127.783 72.7588 125.018 74.3268 121.617 72.3731L74.2201 45.1447C70.8192 43.191 68.0671 38.4536 68.0782 34.5651L68.1571 6.82723C68.1682 2.93873 70.9382 1.3737 74.3391 3.32758L121.736 30.5558Z" fill="#209E20"/>
<path d="M79.5262 25.7324L77.6953 19.4023L78.6368 19.8897L79.4996 23.0579C79.7165 23.844 79.9127 24.6208 80.045 25.2122L80.0658 25.2234C80.1727 24.744 80.3829 24.2152 80.6133 23.6398L81.5188 21.3821L82.4816 21.8807L83.3972 25.1304C83.6105 25.8936 83.8137 26.6528 83.9299 27.2931L83.9514 27.3048C84.0931 26.7781 84.289 26.2713 84.5055 25.7013L85.4291 23.407L86.4027 23.9112L84.4062 28.3735L83.4266 27.8433L82.4772 24.4894C82.2441 23.6715 82.0881 23.0565 81.9849 22.454L81.9636 22.443C81.8447 22.9211 81.6938 23.374 81.4404 23.941L80.4734 26.245L79.5262 25.7324Z" fill="white"/>
<path d="M91.3078 29.4582L88.3449 27.887L88.3772 29.9202L91.6863 31.7027L91.6967 32.3226L87.4184 30.007L87.3301 24.3945L91.429 26.5171L91.4392 27.135L88.3069 25.5051L88.3352 27.285L91.2976 28.8485L91.3078 29.4582Z" fill="white"/>
<path d="M96.7538 33.2349L95.9509 34.6214L94.8848 34.0443L97.5099 29.6621L98.7804 30.3201L101.723 37.7455L100.57 37.1211L99.649 34.7805L96.7538 33.2349ZM99.4176 34.0669L98.5817 31.9453C98.3924 31.466 98.2651 31.0541 98.1376 30.6512L98.1135 30.6388C97.9988 30.9239 97.8724 31.211 97.7222 31.4856L96.959 32.7601L99.4176 34.0669Z" fill="white"/>
<path d="M102.852 32.5078C103.404 32.7147 104.201 33.0832 104.965 33.4787C106.158 34.0965 106.937 34.6516 107.49 35.2782C107.939 35.7805 108.196 36.3272 108.206 36.7992C108.223 37.607 107.502 37.7554 106.584 37.4839L106.585 37.5109C107.263 38.0315 107.676 38.6809 107.898 39.4273C108.204 40.4353 108.426 41.1397 108.615 41.4759L107.436 40.8382C107.29 40.5884 107.084 39.9583 106.821 39.0661C106.545 38.0882 106.074 37.5252 105.059 36.9595L104.015 36.4047L104.066 39.014L102.966 38.4188L102.852 32.5078ZM104.003 35.8155L105.137 36.415C106.332 37.0473 107.088 36.9906 107.073 36.2948C107.057 35.5089 106.235 34.7417 105.053 34.1183C104.517 33.8397 104.137 33.6773 103.96 33.6206L104.003 35.8155Z" fill="white"/>
<path d="M114.579 41.7946L111.022 39.9086L111.069 42.1413L115.043 44.2817L115.058 44.9633L109.923 42.1841L109.793 36.0234L114.711 38.5702L114.726 39.2496L110.966 37.2931L111.008 39.2475L114.564 41.1242L114.579 41.7946Z" fill="white"/>
<path d="M80.4904 30.4858L80.5226 32.772L83.9863 34.7441L83.9518 32.4226L84.9039 32.9553L84.9881 38.5315L84.0343 37.9755L83.9956 35.3703L80.5312 33.3886L80.5673 35.9541L79.6593 35.4247L79.584 29.9785L80.4904 30.4858Z" fill="white"/>
<path d="M87.5229 34.4154L87.6116 40.0559L86.6476 39.4938L86.5605 33.877L87.5229 34.4154Z" fill="white"/>
<path d="M89.2227 35.4375C89.7183 35.6398 90.4325 35.9973 91.1172 36.3804C92.1863 36.9784 92.8837 37.5125 93.3781 38.1119C93.7796 38.5924 94.0089 39.1127 94.0167 39.5598C94.0298 40.3253 93.3833 40.4588 92.5613 40.1926L92.5618 40.2183C93.1686 40.7181 93.5374 41.3373 93.7347 42.0464C94.0063 43.004 94.2038 43.6732 94.3723 43.9932L93.3179 43.3785C93.1869 43.1407 93.0038 42.5416 92.7706 41.6939C92.5251 40.7645 92.1038 40.2269 91.1946 39.6807L90.2586 39.1445L90.299 41.6185L89.3132 41.0436L89.2227 35.4375ZM90.2494 38.5858L91.2654 39.1655C92.3365 39.7766 93.0135 39.7301 93.0022 39.0709C92.9895 38.3262 92.2539 37.5907 91.1954 36.9877C90.7155 36.718 90.3739 36.5598 90.2153 36.5043L90.2494 38.5858Z" fill="white"/>
<path d="M96.4734 39.4194L96.578 45.2795L95.5402 44.6743L95.4375 38.8398L96.4734 39.4194Z" fill="white"/>
<path d="M98.4127 46.3541L98.3047 40.4492L99.4632 41.0974L102.196 45.6268C102.837 46.6906 103.341 47.6083 103.759 48.4604L103.784 48.4661C103.667 47.6011 103.627 46.8521 103.609 45.912L103.559 43.3894L104.602 43.9725L104.721 50.0322L103.601 49.3791L100.861 44.7854C100.267 43.7912 99.701 42.7982 99.2724 41.921L99.2359 41.9091C99.3109 42.6906 99.3485 43.4167 99.3668 44.4019L99.4138 46.9377L98.4127 46.3541Z" fill="white"/>
<path d="M113.513 54.8757C112.983 54.6961 111.943 54.3006 110.718 53.5865C109.36 52.7941 108.246 51.91 107.37 50.8334C106.605 49.8877 106.123 48.8039 106.104 47.8542C106.08 46.0445 107.847 45.7195 110.838 47.3925C111.887 47.9791 112.716 48.5988 113.113 48.9497L112.842 49.4484C112.35 49.0251 111.739 48.5629 110.826 48.0496C108.648 46.8261 107.265 46.9648 107.297 48.4999C107.328 50.0544 108.698 51.7575 110.785 52.9692C111.551 53.4141 112.076 53.6456 112.344 53.71L112.304 51.8457L110.461 50.7894L110.447 50.1451L113.447 51.8568L113.513 54.8757Z" fill="white"/>
<path d="M18.0743 25.8137C18.132 28.3633 16.8041 30.2981 15.1029 31.0187C13.2893 31.787 11.9595 30.7291 11.9264 28.3598C11.892 25.891 13.2453 23.7937 15.0584 23.1462C16.8564 22.5041 18.0249 23.6302 18.0743 25.8137ZM12.8964 27.9578C12.9219 29.6143 13.7497 30.769 15.1381 30.1904C16.5045 29.621 17.2328 27.8934 17.1965 26.2003C17.165 24.724 16.4571 23.4335 15.0333 23.9515C13.5848 24.4786 12.8703 26.2631 12.8964 27.9578Z" fill="#009900"/>
<path d="M19.0488 21.9263C19.4349 21.7121 19.9373 21.4676 20.5724 21.2405C21.3429 20.9649 21.9068 20.9743 22.2689 21.2233C22.6019 21.4391 22.8083 21.8787 22.8266 22.5038C22.8453 23.1405 22.703 23.7029 22.416 24.1859C22.025 24.8618 21.3646 25.3915 20.5978 25.696C20.3612 25.79 20.1415 25.8664 19.9567 25.8852L20.0306 28.8096L19.2229 29.1508L19.0488 21.9263ZM19.9375 25.1202C20.1129 25.1061 20.3325 25.042 20.5964 24.9389C21.541 24.57 22.0938 23.8107 22.0661 22.8325C22.0398 21.8988 21.4697 21.6517 20.6097 21.965C20.2657 22.0903 20.0024 22.2182 19.8665 22.311L19.9375 25.1202Z" fill="#009900"/>
<path d="M26.7957 22.7022L24.6284 23.5522L24.7084 26.0645L27.1249 25.0603L27.1511 25.8008L23.9907 27.1362L23.7754 20.1467L26.7913 19.0664L26.8168 19.7951L24.5353 20.6281L24.6048 22.8112L26.7704 21.9768L26.7957 22.7022Z" fill="#009900"/>
<path d="M28.0619 25.4119L27.8164 18.695L28.5621 18.428L30.3511 21.1358C30.7595 21.7545 31.0805 22.3261 31.3471 22.8977L31.3617 22.8817C31.266 22.0346 31.2184 21.2479 31.1767 20.2357L31.0653 17.5315L31.6709 17.3145L31.9424 23.7721L31.2882 24.0484L29.5307 21.3666C29.1395 20.7707 28.7612 20.1465 28.4687 19.527L28.4457 19.5454C28.5162 20.3684 28.5619 21.1622 28.6034 22.2708L28.7109 25.1376L28.0619 25.4119Z" fill="#009900"/>
<path d="M4.57623 49.0238L1.85352 41.6437L3.01675 41.1066L4.30644 44.7485C4.66066 45.7404 4.96562 46.6394 5.18617 47.5417L5.21009 47.5292C5.43257 46.4133 5.75987 45.1618 6.10775 43.8709L7.40343 39.0815L8.46008 38.5938L5.72927 48.4142L4.57623 49.0238Z" fill="#009900"/>
<path d="M9.91943 43.5754L9.16386 46.6006L8.14062 47.1413L10.6134 37.6008L11.7457 37.0781L14.2887 43.8921L13.3166 44.4059L12.5162 42.2581L9.91943 43.5754ZM12.3127 41.5394L11.5741 39.5612C11.4056 39.1111 11.2918 38.6829 11.1778 38.2667L11.1562 38.2769C11.054 38.8076 10.9409 39.357 10.8057 39.9187L10.1097 42.6423L12.3127 41.5394Z" fill="#009900"/>
<path d="M19.7679 40.7437C19.4696 41.0843 18.8636 41.5888 18.0718 42.0081C16.1947 43.0021 14.7164 42.3532 14.6709 39.7553C14.6276 37.292 16.0378 34.9692 18.0799 34.0288C18.8808 33.6599 19.3854 33.6293 19.6042 33.6625L19.4264 34.5421C19.1112 34.51 18.6626 34.5848 18.1272 34.8352C16.5892 35.5546 15.5663 37.2077 15.6048 39.2574C15.641 41.1788 16.6177 41.9204 18.2278 41.0795C18.7387 40.8128 19.2519 40.4189 19.579 40.054L19.7679 40.7437Z" fill="#009900"/>
<path d="M21.7685 37.561L21.192 40.2403L20.3574 40.6813L22.2497 32.2258L23.1788 31.7969L25.3913 38.0208L24.5923 38.443L23.896 36.4816L21.7685 37.561ZM23.7166 35.828L23.0747 34.0223C22.9284 33.6116 22.8276 33.2228 22.7268 32.8446L22.709 32.853C22.6327 33.326 22.5476 33.8153 22.4444 34.3148L21.9111 36.7317L23.7166 35.828Z" fill="#009900"/>
<path d="M26.2309 37.5764L25.9941 30.4964L26.7801 30.1336L28.6539 32.8029C29.0815 33.4126 29.4168 33.9817 29.6954 34.5568L29.7107 34.5384C29.6128 33.6534 29.5653 32.8274 29.5245 31.7622L29.4156 28.9169L30.0525 28.623L30.3184 35.4162L29.63 35.78L27.79 33.1361C27.3802 32.5486 26.9843 31.9291 26.6785 31.3056L26.654 31.3277C26.7256 32.1904 26.771 33.0252 26.8111 34.1935L26.915 37.2148L26.2309 37.5764Z" fill="#009900"/>
<path d="M34.934 32.7561C34.7137 33.031 34.2627 33.4289 33.6695 33.7431C32.2676 34.4854 31.1372 33.8498 31.0479 31.6352C30.9631 29.5333 31.9799 27.621 33.51 26.9163C34.112 26.6389 34.4959 26.6372 34.6635 26.6764L34.5462 27.4226C34.3053 27.3795 33.9648 27.4215 33.5626 27.6097C32.4099 28.1488 31.6701 29.5095 31.7426 31.2605C31.8105 32.9006 32.565 33.5871 33.7689 32.9585C34.1517 32.7585 34.5341 32.4496 34.7759 32.1551L34.934 32.7561Z" fill="#009900"/>
<path d="M36.7691 32.0062L36.6386 29.3008L34.9941 26.3409L35.6823 26.0233L36.4175 27.4644C36.6176 27.8576 36.7721 28.1759 36.9358 28.5468L36.9493 28.5401C37.0575 28.0652 37.1924 27.5788 37.3433 27.0201L37.9021 24.9985L38.5505 24.6992L37.2343 28.9934L37.3667 31.6905L36.7691 32.0062Z" fill="#009900"/>
<g opacity="0.12525">
<path d="M43.7441 31.6006L43.7471 32.6334C43.7489 33.2421 44.4119 33.621 44.9411 33.3156L44.6575 33.5464C44.9034 33.4046 45.0545 33.1428 45.0536 32.8598L45.0508 31.8272C45.0492 31.2183 44.386 30.8396 43.8568 31.145L44.1402 30.9141C43.8943 31.0562 43.7434 31.3176 43.7441 31.6006Z" fill="#5C6BC0"/>
</g>
<path d="M7.04605 124.925L1.85352 121.898" stroke="#B8E2FF" stroke-width="1.75583" stroke-linecap="round" stroke-linejoin="round"/>
<path d="M27.9798 137.133L9.30859 126.252" stroke="#B8E2FF" stroke-width="1.75583" stroke-linecap="round" stroke-linejoin="round"/>
<path d="M27.7266 137.837C27.7266 138.64 28.381 139.292 29.1883 139.292C29.9955 139.292 30.65 138.64 30.65 137.837C30.65 137.034 29.9955 136.383 29.1883 136.383C28.381 136.383 27.7266 137.034 27.7266 137.837Z" stroke="#B8E2FF" stroke-width="1.75583" stroke-miterlimit="10"/>
<g opacity="0.35">
<path d="M48.2891 86.7601C48.2891 91.5315 54.4072 95.3992 61.9544 95.3992C69.5015 95.3992 75.6197 91.5315 75.6197 86.7601C75.6197 81.9889 69.5015 78.1211 61.9544 78.1211C54.4072 78.1211 48.2891 81.9889 48.2891 86.7601Z" fill="#B7FBB7"/>
</g>
<path d="M57.9474 84.7999C57.3869 85.0677 57.0496 85.655 57.1106 86.2706C57.1477 86.6448 57.1996 86.9964 57.2675 87.0804C57.4256 87.2758 58.1949 87.6267 58.9619 87.1738C59.7289 86.7209 60.1485 85.9983 60.4818 85.4095C60.8151 84.8206 61.412 84.1171 61.4936 83.6974C61.5752 83.2778 61.0935 82.9222 60.6526 83.0176C60.2742 83.0993 58.6937 84.2858 58.2512 84.622C58.1708 84.683 58.0879 84.7329 57.9968 84.7765L57.9474 84.7999Z" fill="black"/>
<path d="M57.1074 60.5957C57.1074 60.5957 56.9301 66.5468 57.1557 70.1392C57.3573 73.3485 57.0701 82.6403 57.0066 84.7044C56.9887 85.2859 57.2945 85.8666 57.8408 86.0743C58.2024 86.2119 58.6604 86.2138 59.1781 85.9175C59.5192 85.7224 59.7369 85.3687 59.8174 84.9856C60.2223 83.0589 61.5677 76.4728 61.7591 73.1415C61.9847 69.2124 62.1844 64.3003 62.41 62.7286C62.6357 61.1569 57.1074 60.5957 57.1074 60.5957Z" fill="black"/>
<path d="M65.4939 86.9071C64.8891 87.0504 64.4341 87.5528 64.3625 88.1674C64.319 88.5409 64.2946 88.8956 64.343 88.9919C64.4559 89.2164 65.1328 89.7216 65.979 89.4409C66.8251 89.1602 67.3891 88.5428 67.8404 88.0376C68.2917 87.5325 69.0249 86.9711 69.1943 86.5783C69.3635 86.1854 68.9688 85.7363 68.5175 85.7363C68.1304 85.7363 66.3326 86.562 65.8286 86.7972C65.7371 86.8399 65.6455 86.8712 65.5472 86.8945L65.4939 86.9071Z" fill="black"/>
<path d="M67.1827 61.7635C67.1827 61.7635 67.4836 79.9745 66.8192 86.5713C66.7288 87.4689 65.9125 88.2676 65.0435 88.0109C64.9315 87.9778 64.1823 88.1951 64.0572 88.1418C63.4556 87.9172 62.8203 70.2954 62.2937 68.2747C61.7672 66.254 60.1878 64.757 60.3382 61.7635C60.4885 58.7699 65.0015 60.2667 67.1827 61.7635Z" fill="black"/>
<path d="M67.5419 63.2094C67.2768 64.5282 63.438 64.8698 61.2288 64.5182C59.0198 64.1665 56.4151 63.6642 56.4939 61.1155C56.4939 61.1155 56.6987 49.6997 56.6987 47.6965C56.6987 45.6935 57.9651 44.2103 57.9651 44.2103C57.9651 44.2103 59.2022 42.8037 63.0903 43.595C63.0903 43.595 66.258 44.2814 67.7158 46.6115C67.7158 46.6115 68.936 48.8104 68.6005 54.1524C68.2649 59.4945 67.5419 63.2094 67.5419 63.2094Z" fill="black"/>
<path d="M65.5415 44.5528L64.3383 43.8823C64.3383 43.8823 61.2584 43.5952 60.1516 42.877L59.5742 43.6909C59.5742 43.6909 60.3442 45.1752 62.3172 45.3669C64.2901 45.5585 65.2045 44.7922 65.2045 44.7922L65.5415 44.5528Z" fill="#E1E8F2"/>
<path d="M72.7173 65.3734L69.0129 67.6468L69.5235 73.8517L77.5463 68.7755L77.2556 62.8481L72.7173 65.3734Z" fill="#94C3FF"/>
<path d="M73.3183 63.6584C73.3183 63.6584 74.2169 64.5155 74.4098 64.7761C74.6027 65.0367 74.7582 66.4227 74.5413 66.6126C74.3245 66.8025 73.2639 67.3014 72.8991 67.2284C72.5344 67.1555 72.2848 66.9872 72.2785 66.8526C72.2722 66.718 72.1555 65.8249 72.1555 65.8249C72.1555 65.8249 71.5034 65.4058 71.4457 65.1389C71.388 64.872 71.4593 64.4641 71.4593 64.4641L73.3183 63.6584Z" fill="#FF9554"/>
<path d="M66.415 45.1245C66.415 45.1245 68.6678 46.2113 69.1942 48.5569C69.7207 50.9025 70.7244 56.9309 70.7244 56.9309L73.6333 63.4817C73.6333 63.4817 73.0824 65.5444 71.0744 64.6581C71.0744 64.6581 67.9152 59.2463 67.149 57.6464C66.3829 56.0465 65.5868 48.6009 65.4442 47.1171C65.3016 45.6333 66.415 45.1245 66.415 45.1245Z" fill="black"/>
<path d="M60.0901 40.7717C60.0901 40.7717 60.3934 42.7132 60.0578 43.6036C60.0019 44.0487 61.9592 45.5514 63.6928 45.1618C64.6995 44.9392 64.6406 44.4384 64.6406 44.4384C64.6406 44.4384 63.7988 43.0882 63.9106 41.7526C64.0225 40.4172 61.2646 40.4934 60.0901 40.7717Z" fill="#FF7C40"/>
<path d="M66.0994 37.495C66.0751 39.5689 64.3657 41.2304 62.2815 41.2063C60.1972 41.1821 58.5274 39.4814 58.5517 37.4074C58.576 35.3336 60.2852 33.6719 62.3695 33.6961C64.4537 33.7203 66.1237 35.4212 66.0994 37.495Z" fill="#FF8654"/>
<path d="M66.0994 37.7445C66.0994 37.7445 66.101 41.5064 65.2687 42.2561C64.4364 43.0057 63.1895 41.5211 61.174 41.0266C59.1589 40.4864 62.8643 36.6179 62.8643 36.6179L66.0994 37.7445Z" fill="#FF8654"/>
<path d="M59.1868 34.3336C59.1868 34.3336 63.2484 32.0522 65.485 34.0052C67.7217 35.9582 65.1303 36.7313 64.7202 37.2885C64.3102 37.8458 64.7083 38.3053 64.4884 38.7042C64.2684 39.1032 64.2138 39.1829 64.2138 39.1829L64.3427 39.6662L64.098 39.8775C64.098 39.8775 63.786 38.9639 63.4899 38.9872C63.1938 39.0105 62.9447 39.5964 63.0483 39.9455C63.1518 40.2946 63.4432 40.6729 63.3866 40.9131C63.33 41.1534 62.9994 41.8186 62.7033 41.842C62.4072 41.8653 61.0658 41.5552 60.6114 41.3091C60.157 41.063 58.7713 39.9495 58.2491 38.6053C57.7268 37.2609 58.4927 36.1724 58.4927 36.1724C58.4927 36.1724 58.1301 34.9904 59.1868 34.3336Z" fill="#96432A"/>
<defs>
<linearGradient id="paint0_linear_10663_321146" x1="62.5284" y1="72.9961" x2="62.5284" y2="144.823" gradientUnits="userSpaceOnUse">
<stop stop-color="#009900"/>
<stop offset="1" stop-color="#2FCE2F"/>
</linearGradient>
</defs>
</svg>
