<svg width="33" height="32" viewBox="0 0 33 32" fill="none" xmlns="http://www.w3.org/2000/svg">
<path fill-rule="evenodd" clip-rule="evenodd" d="M13.1 21.7C14.1 22.3 15.3 22.6 16.5 22.6C20.2 22.6 23.1 19.6 23.1 16.1C23.1 14.3 22.5 12.7 21.2 11.4C19.9 10.2 18.3 9.5 16.5 9.5C12.9 9.5 9.89999 12.5 9.89999 16.1C9.89999 17.3 10.2 18.5 10.9 19.6L11.1 19.9L10.4 22.3L12.9 21.6L13.1 21.7ZM18.7 17C18.9 17 19.9 17.5 20.1 17.6C20.1311 17.6156 20.1623 17.6287 20.1931 17.6417C20.3599 17.7121 20.5156 17.7779 20.6 18.2C20.7 18.2 20.7 18.6 20.5 19.1C20.4 19.5 19.6 20 19.2 20C19.1322 20 19.0673 20.0057 18.998 20.0119C18.6582 20.0419 18.212 20.0814 16.8 19.5C15.0475 18.799 13.8325 17.0999 13.4913 16.6228C13.4431 16.5554 13.4124 16.5124 13.4 16.5C13.383 16.466 13.3485 16.4116 13.3031 16.3399C13.0819 15.9906 12.6 15.2297 12.6 14.4C12.6 13.4 13.1 12.9 13.3 12.7C13.5 12.5 13.7 12.5 13.8 12.5H14.2C14.3 12.5 14.5 12.5 14.6 12.8C14.8 13.2 15.2 14.2 15.2 14.3C15.2 14.3333 15.2111 14.3667 15.2222 14.4C15.2445 14.4667 15.2667 14.5333 15.2 14.6C15.15 14.65 15.125 14.7 15.1 14.75C15.075 14.8 15.05 14.85 15 14.9L14.7 15.2C14.6 15.3 14.5 15.4 14.6 15.6C14.7 15.8 15.1 16.5 15.7 17C16.3751 17.5907 16.9078 17.8254 17.1778 17.9443C17.2278 17.9663 17.2688 17.9844 17.3 18C17.5 18 17.6 18 17.7 17.9C17.75 17.8 17.875 17.65 18 17.5C18.125 17.35 18.25 17.2 18.3 17.1C18.4 16.9 18.5 16.9 18.7 17Z" fill="url(#paint0_linear_4038_69794)"/>
<path fill-rule="evenodd" clip-rule="evenodd" d="M13.1 21.7C14.1 22.3 15.3 22.6 16.5 22.6C20.2 22.6 23.1 19.6 23.1 16.1C23.1 14.3 22.5 12.7 21.2 11.4C19.9 10.2 18.3 9.5 16.5 9.5C12.9 9.5 9.89999 12.5 9.89999 16.1C9.89999 17.3 10.2 18.5 10.9 19.6L11.1 19.9L10.4 22.3L12.9 21.6L13.1 21.7ZM18.7 17C18.9 17 19.9 17.5 20.1 17.6C20.1311 17.6156 20.1623 17.6287 20.1931 17.6417C20.3599 17.7121 20.5156 17.7779 20.6 18.2C20.7 18.2 20.7 18.6 20.5 19.1C20.4 19.5 19.6 20 19.2 20C19.1322 20 19.0673 20.0057 18.998 20.0119C18.6582 20.0419 18.212 20.0814 16.8 19.5C15.0475 18.799 13.8325 17.0999 13.4913 16.6228C13.4431 16.5554 13.4124 16.5124 13.4 16.5C13.383 16.466 13.3485 16.4116 13.3031 16.3399C13.0819 15.9906 12.6 15.2297 12.6 14.4C12.6 13.4 13.1 12.9 13.3 12.7C13.5 12.5 13.7 12.5 13.8 12.5H14.2C14.3 12.5 14.5 12.5 14.6 12.8C14.8 13.2 15.2 14.2 15.2 14.3C15.2 14.3333 15.2111 14.3667 15.2222 14.4C15.2445 14.4667 15.2667 14.5333 15.2 14.6C15.15 14.65 15.125 14.7 15.1 14.75C15.075 14.8 15.05 14.85 15 14.9L14.7 15.2C14.6 15.3 14.5 15.4 14.6 15.6C14.7 15.8 15.1 16.5 15.7 17C16.3751 17.5907 16.9078 17.8254 17.1778 17.9443C17.2278 17.9663 17.2688 17.9844 17.3 18C17.5 18 17.6 18 17.7 17.9C17.75 17.8 17.875 17.65 18 17.5C18.125 17.35 18.25 17.2 18.3 17.1C18.4 16.9 18.5 16.9 18.7 17Z" fill="black" fill-opacity="0.2"/>
<path fill-rule="evenodd" clip-rule="evenodd" d="M0.5 16C0.5 7.16344 7.66344 0 16.5 0C25.3366 0 32.5 7.16344 32.5 16C32.5 24.8366 25.3366 32 16.5 32C7.66344 32 0.5 24.8366 0.5 16ZM16.5 8C18.6 8 20.6 8.8 22.1 10.3C23.6 11.8 24.5 13.8 24.5 15.9C24.5 20.3 20.9 23.9 16.5 23.9C15.2 23.9 13.9 23.5 12.7 22.9L8.5 24L9.60001 20C8.90001 18.8 8.5 17.4 8.5 16C8.5 11.6 12.1 8 16.5 8Z" fill="url(#paint1_linear_4038_69794)"/>
<path fill-rule="evenodd" clip-rule="evenodd" d="M0.5 16C0.5 7.16344 7.66344 0 16.5 0C25.3366 0 32.5 7.16344 32.5 16C32.5 24.8366 25.3366 32 16.5 32C7.66344 32 0.5 24.8366 0.5 16ZM16.5 8C18.6 8 20.6 8.8 22.1 10.3C23.6 11.8 24.5 13.8 24.5 15.9C24.5 20.3 20.9 23.9 16.5 23.9C15.2 23.9 13.9 23.5 12.7 22.9L8.5 24L9.60001 20C8.90001 18.8 8.5 17.4 8.5 16C8.5 11.6 12.1 8 16.5 8Z" fill="black" fill-opacity="0.2"/>
<defs>
<linearGradient id="paint0_linear_4038_69794" x1="16.5" y1="0" x2="16.5" y2="32" gradientUnits="userSpaceOnUse">
<stop stop-color="#009900"/>
<stop offset="1" stop-color="#2FCE2F"/>
</linearGradient>
<linearGradient id="paint1_linear_4038_69794" x1="16.5" y1="0" x2="16.5" y2="32" gradientUnits="userSpaceOnUse">
<stop stop-color="#009900"/>
<stop offset="1" stop-color="#2FCE2F"/>
</linearGradient>
</defs>
</svg>
