<svg width="20" height="20" viewBox="0 0 20 20" fill="none" xmlns="http://www.w3.org/2000/svg">
<path d="M9.99935 18.3327C14.5827 18.3327 18.3327 14.5827 18.3327 9.99935C18.3327 5.41602 14.5827 1.66602 9.99935 1.66602C5.41602 1.66602 1.66602 5.41602 1.66602 9.99935C1.66602 14.5827 5.41602 18.3327 9.99935 18.3327Z" stroke="url(#paint0_linear_10942_15934)" stroke-width="1.5" stroke-linecap="round" stroke-linejoin="round"/>
<path d="M9.99935 18.3327C14.5827 18.3327 18.3327 14.5827 18.3327 9.99935C18.3327 5.41602 14.5827 1.66602 9.99935 1.66602C5.41602 1.66602 1.66602 5.41602 1.66602 9.99935C1.66602 14.5827 5.41602 18.3327 9.99935 18.3327Z" stroke="black" stroke-opacity="0.2" stroke-width="1.5" stroke-linecap="round" stroke-linejoin="round"/>
<path d="M6.66602 10H13.3327" stroke="url(#paint1_linear_10942_15934)" stroke-width="1.5" stroke-linecap="round" stroke-linejoin="round"/>
<path d="M6.66602 10H13.3327" stroke="black" stroke-opacity="0.2" stroke-width="1.5" stroke-linecap="round" stroke-linejoin="round"/>
<path d="M10 13.3327V6.66602" stroke="url(#paint2_linear_10942_15934)" stroke-width="1.5" stroke-linecap="round" stroke-linejoin="round"/>
<path d="M10 13.3327V6.66602" stroke="black" stroke-opacity="0.2" stroke-width="1.5" stroke-linecap="round" stroke-linejoin="round"/>
<defs>
<linearGradient id="paint0_linear_10942_15934" x1="9.99935" y1="1.66602" x2="9.99935" y2="18.3327" gradientUnits="userSpaceOnUse">
<stop stop-color="#009900"/>
<stop offset="1" stop-color="#2FCE2F"/>
</linearGradient>
<linearGradient id="paint1_linear_10942_15934" x1="9.99935" y1="10" x2="9.99935" y2="11" gradientUnits="userSpaceOnUse">
<stop stop-color="#009900"/>
<stop offset="1" stop-color="#2FCE2F"/>
</linearGradient>
<linearGradient id="paint2_linear_10942_15934" x1="10.5" y1="6.66602" x2="10.5" y2="13.3327" gradientUnits="userSpaceOnUse">
<stop stop-color="#009900"/>
<stop offset="1" stop-color="#2FCE2F"/>
</linearGradient>
</defs>
</svg>
