<svg width="21" height="20" viewBox="0 0 21 20" fill="none" xmlns="http://www.w3.org/2000/svg">
<path d="M10.6341 9.05768C10.5508 9.04935 10.4508 9.04935 10.3591 9.05768C8.37578 8.99102 6.80078 7.36602 6.80078 5.36602C6.80078 3.32435 8.45078 1.66602 10.5008 1.66602C12.5424 1.66602 14.2008 3.32435 14.2008 5.36602C14.1924 7.36602 12.6174 8.99102 10.6341 9.05768Z" stroke="white" stroke-linecap="round" stroke-linejoin="round"/>
<path d="M6.46758 12.134C4.45091 13.484 4.45091 15.684 6.46758 17.0257C8.75924 18.559 12.5176 18.559 14.8092 17.0257C16.8259 15.6757 16.8259 13.4757 14.8092 12.134C12.5259 10.609 8.76758 10.609 6.46758 12.134Z" stroke="white" stroke-linecap="round" stroke-linejoin="round"/>
</svg>
