<svg width="41" height="40" viewBox="0 0 41 40" fill="none" xmlns="http://www.w3.org/2000/svg">
<rect x="0.5" width="40" height="40" rx="20" fill="#009900" fill-opacity="0.1"/>
<path d="M25.8922 24.025L26.2172 26.6583C26.3005 27.3499 25.5589 27.8333 24.9672 27.4749L21.4755 25.3999C21.0922 25.3999 20.7172 25.375 20.3505 25.325C20.9672 24.6 21.3339 23.6833 21.3339 22.6916C21.3339 20.3249 19.2839 18.4083 16.7505 18.4083C15.7839 18.4083 14.8922 18.6833 14.1505 19.1666C14.1255 18.9583 14.1172 18.75 14.1172 18.5333C14.1172 14.7416 17.4089 11.6666 21.4755 11.6666C25.5422 11.6666 28.8339 14.7416 28.8339 18.5333C28.8339 20.7833 27.6755 22.775 25.8922 24.025Z" stroke="url(#paint0_linear_5039_69795)" stroke-width="1.5" stroke-linecap="round" stroke-linejoin="round"/>
<path d="M25.8922 24.025L26.2172 26.6583C26.3005 27.3499 25.5589 27.8333 24.9672 27.4749L21.4755 25.3999C21.0922 25.3999 20.7172 25.375 20.3505 25.325C20.9672 24.6 21.3339 23.6833 21.3339 22.6916C21.3339 20.3249 19.2839 18.4083 16.7505 18.4083C15.7839 18.4083 14.8922 18.6833 14.1505 19.1666C14.1255 18.9583 14.1172 18.75 14.1172 18.5333C14.1172 14.7416 17.4089 11.6666 21.4755 11.6666C25.5422 11.6666 28.8339 14.7416 28.8339 18.5333C28.8339 20.7833 27.6755 22.775 25.8922 24.025Z" stroke="black" stroke-opacity="0.2" stroke-width="1.5" stroke-linecap="round" stroke-linejoin="round"/>
<path d="M21.3327 22.6916C21.3327 23.6833 20.966 24.6 20.3494 25.325C19.5244 26.325 18.216 26.9666 16.7493 26.9666L14.5743 28.2583C14.2077 28.4833 13.741 28.175 13.791 27.75L13.9993 26.1083C12.8827 25.3333 12.166 24.0916 12.166 22.6916C12.166 21.225 12.9494 19.9333 14.1494 19.1666C14.891 18.6833 15.7827 18.4083 16.7493 18.4083C19.2827 18.4083 21.3327 20.325 21.3327 22.6916Z" stroke="url(#paint1_linear_5039_69795)" stroke-width="1.5" stroke-linecap="round" stroke-linejoin="round"/>
<path d="M21.3327 22.6916C21.3327 23.6833 20.966 24.6 20.3494 25.325C19.5244 26.325 18.216 26.9666 16.7493 26.9666L14.5743 28.2583C14.2077 28.4833 13.741 28.175 13.791 27.75L13.9993 26.1083C12.8827 25.3333 12.166 24.0916 12.166 22.6916C12.166 21.225 12.9494 19.9333 14.1494 19.1666C14.891 18.6833 15.7827 18.4083 16.7493 18.4083C19.2827 18.4083 21.3327 20.325 21.3327 22.6916Z" stroke="black" stroke-opacity="0.2" stroke-width="1.5" stroke-linecap="round" stroke-linejoin="round"/>
<defs>
<linearGradient id="paint0_linear_5039_69795" x1="21.4755" y1="11.6666" x2="21.4755" y2="27.5963" gradientUnits="userSpaceOnUse">
<stop stop-color="#009900"/>
<stop offset="1" stop-color="#2FCE2F"/>
</linearGradient>
<linearGradient id="paint1_linear_5039_69795" x1="16.7493" y1="18.4083" x2="16.7493" y2="28.334" gradientUnits="userSpaceOnUse">
<stop stop-color="#009900"/>
<stop offset="1" stop-color="#2FCE2F"/>
</linearGradient>
</defs>
</svg>
